<svg xmlns="http://www.w3.org/2000/svg" xmlns:xlink="http://www.w3.org/1999/xlink" width="724.651" height="728.569" viewBox="0 0 724.651 728.569">
  <defs>
    <clipPath id="clip-path">
      <rect id="Rectangle_2408" data-name="Rectangle 2408" width="61.347" height="61.497" fill="none"/>
    </clipPath>
    <clipPath id="clip-path-2">
      <rect id="Rectangle_2411" data-name="Rectangle 2411" width="70.937" height="402.359" fill="none"/>
    </clipPath>
    <clipPath id="clip-path-3">
      <rect id="Rectangle_2421" data-name="Rectangle 2421" width="229.479" height="236.305" fill="none"/>
    </clipPath>
  </defs>
  <g id="Group_469" data-name="Group 469" transform="translate(6292.206 -3095.995)">
    <rect id="Rectangle_2407" data-name="Rectangle 2407" width="722.744" height="727.581" transform="translate(-6291.212 3096.27)" fill="#edf2f7"/>
    <path id="Path_21056" data-name="Path 21056" d="M1782.348,1.409V588.721L2372.54.669Z" transform="translate(-8074.125 3095.849)" fill="#299eff"/>
    <g id="Group_456" data-name="Group 456" transform="translate(-5986.902 3419.298)" opacity="0.43">
      <g id="Group_455" data-name="Group 455" transform="translate(0 0)">
        <g id="Group_454" data-name="Group 454" clip-path="url(#clip-path)">
          <path id="Path_21057" data-name="Path 21057" d="M2196.489,417.017,2175.6,438.354l23.791,23.2,4.052-4.081,21.042,21.042,12.458-12.458L2215.86,444.97l4.51-4.8Z" transform="translate(-2175.601 -417.017)" fill="#d2d4d3"/>
        </g>
      </g>
    </g>
    <path id="Path_21058" data-name="Path 21058" d="M2372.488.769,2257.866,114.977l-21.9,21.824L1782.295,588.822l.923,139.528h15L2505.807,19.327V.769Z" transform="translate(-8074.113 3095.826)" fill="#bcc2ce"/>
    <path id="Path_21059" data-name="Path 21059" d="M2372.215.27,2257.479,114.59l.546.55L2372.536,1.045h132.771V19.055L1797.94,727.85h-14.45l-.918-138.98,453.55-451.907-.546-.549L1781.909,588.435l-.115.116.926,140.075h15.542L2505.968,19.49l.113-.114V.27Z" transform="translate(-8074 3095.938)" fill="#5c5c63"/>
    <g id="Group_461" data-name="Group 461" transform="translate(-5638.769 3184.823)" opacity="0.69">
      <g id="Group_460" data-name="Group 460" transform="translate(0 0)">
        <g id="Group_459" data-name="Group 459" clip-path="url(#clip-path-2)">
          <rect id="Rectangle_2410" data-name="Rectangle 2410" width="70.935" height="402.359" transform="translate(-0.002)" fill="#e4e8ed"/>
        </g>
      </g>
    </g>
    <path id="Path_21060" data-name="Path 21060" d="M1948.817,648.378l8.988-9.079,31.3-31.563L1970.351,588.9l-40.724,40.246" transform="translate(-8107.223 2963.654)" fill="#edf2f7"/>
    <path id="Path_21061" data-name="Path 21061" d="M1949.014,648.493l-.551-.545,40.017-40.369-18.209-18.294-40.449,39.973-.545-.551,41-40.517,19.3,19.387-.271.274Z" transform="translate(-8107.144 2963.812)" fill="#5c5c63"/>
    <path id="Path_21062" data-name="Path 21062" d="M1958.483,644.6l87.173-86.82,18.84,18.841-86.671,87.024" transform="translate(-8113.708 2970.647)" fill="#edf2f7"/>
    <path id="Path_21063" data-name="Path 21063" d="M1978.022,663.759l-.55-.547,86.4-86.751-18.293-18.294-86.9,86.548-.547-.55,87.448-87.093,19.388,19.388Z" transform="translate(-8113.629 2970.805)" fill="#5c5c63"/>
    <path id="Path_21064" data-name="Path 21064" d="M2388.568,146.516,2366.578,168.4l10.833,10.7-11.264,11.264,41.589,40.723L2418.827,220l25.809,25.357,22.528-23.112L2441.7,197.476l13.343-13.863L2413.8,142.37,2399.592,157.1l-11.03-10.465" transform="translate(-8205.324 3064.003)" fill="#edf2f7"/>
    <path id="Path_21065" data-name="Path 21065" d="M1981.228,705.505l-79.745-79.329L1890.645,637l-36.99,36.958,81.639,81.252" transform="translate(-8090.15 2955.276)" fill="#edf2f7"/>
    <path id="Path_21066" data-name="Path 21066" d="M1948.391,636.12l.528.528,28.542-28.749-.44-.44Z" transform="translate(-8111.44 2959.482)" fill="#5c5c63"/>
    <path id="Path_21067" data-name="Path 21067" d="M1950.889,638.5l.529.528,28.541-28.749-.44-.44Z" transform="translate(-8112.001 2958.946)" fill="#5c5c63"/>
    <path id="Path_21068" data-name="Path 21068" d="M1976.782,650.99l.528.528,75.892-75.98-.44-.44Z" transform="translate(-8117.82 2966.755)" fill="#5c5c63"/>
    <path id="Path_21069" data-name="Path 21069" d="M1979.28,653.545l.528.528,75.892-75.98-.44-.44Z" transform="translate(-8118.382 2966.18)" fill="#5c5c63"/>
    <line id="Line_2054" data-name="Line 2054" x2="5.635" y2="5.635" transform="translate(-6142.359 3606.519)" fill="none" stroke="#5c5c63" stroke-width="1"/>
    <line id="Line_2055" data-name="Line 2055" x2="5.635" y2="5.635" transform="translate(-6138.521 3602.681)" fill="none" stroke="#5c5c63" stroke-width="1"/>
    <line id="Line_2056" data-name="Line 2056" x2="5.635" y2="5.635" transform="translate(-6134.684 3598.844)" fill="none" stroke="#5c5c63" stroke-width="1"/>
    <line id="Line_2057" data-name="Line 2057" x2="5.635" y2="5.635" transform="translate(-6130.847 3595.006)" fill="none" stroke="#5c5c63" stroke-width="1"/>
    <line id="Line_2058" data-name="Line 2058" x2="5.635" y2="5.635" transform="translate(-6127.009 3591.169)" fill="none" stroke="#5c5c63" stroke-width="1"/>
    <line id="Line_2059" data-name="Line 2059" x2="5.635" y2="5.635" transform="translate(-6123.171 3587.331)" fill="none" stroke="#5c5c63" stroke-width="1"/>
    <line id="Line_2060" data-name="Line 2060" x2="5.635" y2="5.635" transform="translate(-6119.334 3583.493)" fill="none" stroke="#5c5c63" stroke-width="1"/>
    <line id="Line_2061" data-name="Line 2061" x2="5.635" y2="5.635" transform="translate(-6115.496 3579.656)" fill="none" stroke="#5c5c63" stroke-width="1"/>
    <line id="Line_2062" data-name="Line 2062" x2="5.635" y2="5.635" transform="translate(-6111.659 3575.818)" fill="none" stroke="#5c5c63" stroke-width="1"/>
    <line id="Line_2063" data-name="Line 2063" x2="5.635" y2="5.635" transform="translate(-6107.821 3571.981)" fill="none" stroke="#5c5c63" stroke-width="1"/>
    <line id="Line_2064" data-name="Line 2064" x2="5.635" y2="5.635" transform="translate(-6103.983 3568.143)" fill="none" stroke="#5c5c63" stroke-width="1"/>
    <line id="Line_2065" data-name="Line 2065" x2="5.635" y2="5.635" transform="translate(-6100.146 3564.305)" fill="none" stroke="#5c5c63" stroke-width="1"/>
    <line id="Line_2066" data-name="Line 2066" x2="5.635" y2="5.635" transform="translate(-6096.309 3560.468)" fill="none" stroke="#5c5c63" stroke-width="1"/>
    <line id="Line_2067" data-name="Line 2067" x2="5.635" y2="5.635" transform="translate(-6092.471 3556.63)" fill="none" stroke="#5c5c63" stroke-width="1"/>
    <line id="Line_2068" data-name="Line 2068" x2="5.634" y2="5.635" transform="translate(-6088.633 3552.793)" fill="none" stroke="#5c5c63" stroke-width="1"/>
    <line id="Line_2069" data-name="Line 2069" x2="5.634" y2="5.635" transform="translate(-6084.795 3548.955)" fill="none" stroke="#5c5c63" stroke-width="1"/>
    <line id="Line_2070" data-name="Line 2070" x2="5.634" y2="5.635" transform="translate(-6080.958 3545.118)" fill="none" stroke="#5c5c63" stroke-width="1"/>
    <line id="Line_2071" data-name="Line 2071" x2="5.634" y2="5.635" transform="translate(-6077.12 3541.28)" fill="none" stroke="#5c5c63" stroke-width="1"/>
    <line id="Line_2072" data-name="Line 2072" x2="5.635" y2="5.635" transform="translate(-6132.939 3615.939)" fill="none" stroke="#5c5c63" stroke-width="1"/>
    <line id="Line_2073" data-name="Line 2073" x2="5.635" y2="5.635" transform="translate(-6129.101 3612.102)" fill="none" stroke="#5c5c63" stroke-width="1"/>
    <line id="Line_2074" data-name="Line 2074" x2="5.635" y2="5.635" transform="translate(-6125.263 3608.264)" fill="none" stroke="#5c5c63" stroke-width="1"/>
    <line id="Line_2075" data-name="Line 2075" x2="5.635" y2="5.635" transform="translate(-6121.426 3604.427)" fill="none" stroke="#5c5c63" stroke-width="1"/>
    <line id="Line_2076" data-name="Line 2076" x2="5.635" y2="5.635" transform="translate(-6117.588 3600.589)" fill="none" stroke="#5c5c63" stroke-width="1"/>
    <line id="Line_2077" data-name="Line 2077" x2="5.635" y2="5.635" transform="translate(-6113.751 3596.751)" fill="none" stroke="#5c5c63" stroke-width="1"/>
    <line id="Line_2078" data-name="Line 2078" x2="5.635" y2="5.635" transform="translate(-6109.914 3592.914)" fill="none" stroke="#5c5c63" stroke-width="1"/>
    <line id="Line_2079" data-name="Line 2079" x2="5.635" y2="5.635" transform="translate(-6106.076 3589.076)" fill="none" stroke="#5c5c63" stroke-width="1"/>
    <line id="Line_2080" data-name="Line 2080" x2="5.635" y2="5.635" transform="translate(-6102.238 3585.239)" fill="none" stroke="#5c5c63" stroke-width="1"/>
    <line id="Line_2081" data-name="Line 2081" x2="5.635" y2="5.635" transform="translate(-6098.4 3581.401)" fill="none" stroke="#5c5c63" stroke-width="1"/>
    <line id="Line_2082" data-name="Line 2082" x2="5.635" y2="5.635" transform="translate(-6094.563 3577.563)" fill="none" stroke="#5c5c63" stroke-width="1"/>
    <line id="Line_2083" data-name="Line 2083" x2="5.635" y2="5.635" transform="translate(-6090.726 3573.726)" fill="none" stroke="#5c5c63" stroke-width="1"/>
    <line id="Line_2084" data-name="Line 2084" x2="5.634" y2="5.635" transform="translate(-6086.888 3569.888)" fill="none" stroke="#5c5c63" stroke-width="1"/>
    <line id="Line_2085" data-name="Line 2085" x2="5.634" y2="5.635" transform="translate(-6083.05 3566.051)" fill="none" stroke="#5c5c63" stroke-width="1"/>
    <line id="Line_2086" data-name="Line 2086" x2="5.634" y2="5.635" transform="translate(-6079.212 3562.213)" fill="none" stroke="#5c5c63" stroke-width="1"/>
    <line id="Line_2087" data-name="Line 2087" x2="5.634" y2="5.635" transform="translate(-6075.375 3558.375)" fill="none" stroke="#5c5c63" stroke-width="1"/>
    <line id="Line_2088" data-name="Line 2088" x2="5.634" y2="5.635" transform="translate(-6071.538 3554.538)" fill="none" stroke="#5c5c63" stroke-width="1"/>
    <line id="Line_2089" data-name="Line 2089" x2="5.634" y2="5.635" transform="translate(-6067.7 3550.7)" fill="none" stroke="#5c5c63" stroke-width="1"/>
    <line id="Line_2090" data-name="Line 2090" x2="5.635" y2="5.635" transform="translate(-6153.941 3592.657)" fill="none" stroke="#5c5c63" stroke-width="1"/>
    <line id="Line_2091" data-name="Line 2091" x2="5.635" y2="5.635" transform="translate(-6150.543 3589.26)" fill="none" stroke="#5c5c63" stroke-width="1"/>
    <line id="Line_2092" data-name="Line 2092" x2="5.635" y2="5.635" transform="translate(-6147.146 3585.862)" fill="none" stroke="#5c5c63" stroke-width="1"/>
    <line id="Line_2093" data-name="Line 2093" x2="5.635" y2="5.635" transform="translate(-6143.749 3582.464)" fill="none" stroke="#5c5c63" stroke-width="1"/>
    <line id="Line_2094" data-name="Line 2094" x2="5.635" y2="5.635" transform="translate(-6140.351 3579.066)" fill="none" stroke="#5c5c63" stroke-width="1"/>
    <line id="Line_2095" data-name="Line 2095" x2="5.635" y2="5.635" transform="translate(-6136.953 3575.668)" fill="none" stroke="#5c5c63" stroke-width="1"/>
    <line id="Line_2096" data-name="Line 2096" x2="5.635" y2="5.635" transform="translate(-6133.555 3572.271)" fill="none" stroke="#5c5c63" stroke-width="1"/>
    <line id="Line_2097" data-name="Line 2097" x2="5.635" y2="5.635" transform="translate(-6163.514 3583.455)" fill="none" stroke="#5c5c63" stroke-width="1"/>
    <line id="Line_2098" data-name="Line 2098" x2="5.635" y2="5.635" transform="translate(-6160.116 3580.057)" fill="none" stroke="#5c5c63" stroke-width="1"/>
    <line id="Line_2099" data-name="Line 2099" x2="5.635" y2="5.635" transform="translate(-6156.718 3576.659)" fill="none" stroke="#5c5c63" stroke-width="1"/>
    <line id="Line_2100" data-name="Line 2100" x2="5.635" y2="5.635" transform="translate(-6153.321 3573.261)" fill="none" stroke="#5c5c63" stroke-width="1"/>
    <line id="Line_2101" data-name="Line 2101" x2="5.635" y2="5.635" transform="translate(-6149.923 3569.863)" fill="none" stroke="#5c5c63" stroke-width="1"/>
    <line id="Line_2102" data-name="Line 2102" x2="5.635" y2="5.635" transform="translate(-6146.525 3566.466)" fill="none" stroke="#5c5c63" stroke-width="1"/>
    <line id="Line_2103" data-name="Line 2103" x2="5.635" y2="5.635" transform="translate(-6143.127 3563.068)" fill="none" stroke="#5c5c63" stroke-width="1"/>
    <rect id="Rectangle_2413" data-name="Rectangle 2413" width="495.067" height="0.775" transform="matrix(0.709, -0.706, 0.706, 0.709, -6188.925, 3581.523)" fill="#5c5c63"/>
    <path id="Path_21070" data-name="Path 21070" d="M2395.638,115.139,2510.69.349Z" transform="translate(-8211.952 3095.92)" fill="#888b99"/>
    <rect id="Rectangle_2414" data-name="Rectangle 2414" width="162.523" height="0.776" transform="translate(-5816.588 3210.785) rotate(-44.934)" fill="#5c5c63"/>
    <rect id="Rectangle_2415" data-name="Rectangle 2415" width="229.026" height="0.775" transform="translate(-5923.722 3470.887) rotate(-45.042)" fill="#5c5c63"/>
    <path id="Path_21071" data-name="Path 21071" d="M2196.433,491.832l-31.5,31.5,42.612,42.612,31.653-31.652Z" transform="translate(-8160.105 2985.467)" fill="#025ea1"/>
    <path id="Path_21072" data-name="Path 21072" d="M2207.55,565.938l31.652-31.653-42.769-42.454-31.5,31.5,17.152,17.152" transform="translate(-8160.106 2985.467)" fill="#299eff"/>
    <rect id="Rectangle_2416" data-name="Rectangle 2416" width="0.775" height="94.389" transform="matrix(0.703, -0.711, 0.711, 0.703, -6226.032, 3641.027)" fill="#5c5c63"/>
    <rect id="Rectangle_2417" data-name="Rectangle 2417" width="0.775" height="16.696" transform="translate(-6189.249 3581.677) rotate(-45.963)" fill="#5c5c63"/>
    <rect id="Rectangle_2418" data-name="Rectangle 2418" width="0.776" height="5.254" transform="translate(-6158.859 3611.994) rotate(-46.053)" fill="#5c5c63"/>
    <rect id="Rectangle_2419" data-name="Rectangle 2419" width="0.776" height="35.746" transform="translate(-6136.607 3634.191) rotate(-45.091)" fill="#5c5c63"/>
    <path id="Path_21073" data-name="Path 21073" d="M2443.476,253.153,2418.584,227.9l-11.14,11.326-.276-.271L2365.32,197.7l11.348-11.079-10.509-10.534.548-.548,11.063,11.089L2366.427,197.7l41.008,40.426,11.148-11.335,25.445,25.816Z" transform="translate(-8205.139 3056.55)" fill="#5c5c63"/>
    <path id="Path_21074" data-name="Path 21074" d="M2473.279,222.335l-25.9-25.262,13.584-13.583L2420.3,142.827l-14.4,14.517-11.195-10.587.533-.564,10.644,10.067,14.415-14.532.274.276,41.486,41.486-13.576,13.576,25.334,24.715Z" transform="translate(-8211.744 3064.148)" fill="#5c5c63"/>
    <path id="Path_21075" data-name="Path 21075" d="M2245.472,618.419h-3.846v7.98h-1.3v-9.116h5.146Z" transform="translate(-8177.048 2957.274)" fill="#241e20"/>
    <path id="Path_21076" data-name="Path 21076" d="M2250.358,622.394h-2.368v1.041c0,2.779-.629,4.024-2.067,4.024h-.356v-1.108h.165c.822,0,1.123-.919,1.123-3.054v-1.97h4.736v5.981h-1.232Z" transform="translate(-8178.226 2956.365)" fill="#241e20"/>
    <path id="Path_21077" data-name="Path 21077" d="M2256.131,621.542a5.774,5.774,0,0,1,2.272-.41c1.478,0,2.423.643,2.423,1.833v4.3h-1.177v-.437a3.331,3.331,0,0,1-2.039.589c-1.355,0-2.3-.712-2.3-1.93,0-1.164,1-1.93,2.532-1.93a3.6,3.6,0,0,1,1.806.424v-.329c0-.971-.3-1.5-1.464-1.5a4.933,4.933,0,0,0-1.833.342Zm1.821,4.859c.93,0,1.711-.356,1.711-.957,0-.562-.658-.959-1.6-.959-.863,0-1.437.343-1.437.959,0,.643.438.957,1.327.957" transform="translate(-8180.416 2956.409)" fill="#241e20"/>
    <path id="Path_21078" data-name="Path 21078" d="M2265.069,621.326h2.614c1.465,0,2.19.63,2.19,1.506a1.205,1.205,0,0,1-1.095,1.232v.028c.917.177,1.41.712,1.41,1.423,0,1.054-.781,1.792-2.354,1.792h-2.765Zm1.232,2.451h1.232c.7,0,1.04-.26,1.04-.767s-.329-.752-.971-.752h-1.3Zm0,2.6h1.382c.712,0,1.205-.3,1.205-.862,0-.657-.616-.89-1.178-.89h-1.41Z" transform="translate(-8182.609 2956.365)" fill="#241e20"/>
    <path id="Path_21079" data-name="Path 21079" d="M2273.8,621.542a5.776,5.776,0,0,1,2.272-.41c1.479,0,2.423.643,2.423,1.833v4.3h-1.177v-.437a3.331,3.331,0,0,1-2.038.589c-1.355,0-2.3-.712-2.3-1.93,0-1.164,1-1.93,2.531-1.93a3.6,3.6,0,0,1,1.807.424v-.329c0-.971-.3-1.5-1.464-1.5a4.932,4.932,0,0,0-1.833.342Zm1.821,4.859c.93,0,1.71-.356,1.71-.957,0-.562-.657-.959-1.6-.959-.863,0-1.437.343-1.437.959,0,.643.439.957,1.328.957" transform="translate(-8184.386 2956.409)" fill="#241e20"/>
    <path id="Path_21080" data-name="Path 21080" d="M2287.061,620.418v-1.4l1.752-1.738h.766V626.4h-1.259v-7.172Z" transform="translate(-8187.551 2957.274)" fill="#241e20"/>
    <rect id="Rectangle_2420" data-name="Rectangle 2420" width="1.725" height="1.725" transform="translate(-5895.551 3581.948)" fill="#241e20"/>
    <path id="Path_21081" data-name="Path 21081" d="M2247.36,642.036a4.108,4.108,0,0,0-2.487-.808,3.09,3.09,0,0,0-2.394.948,3.427,3.427,0,0,0-.885,2.425,3.292,3.292,0,0,0,.963,2.425,3.4,3.4,0,0,0,2.487.947,3.539,3.539,0,0,0,2.5-.932l1.321,1.476a5.622,5.622,0,0,1-4.01,1.477,5.27,5.27,0,0,1-5.564-5.393,5.235,5.235,0,0,1,1.539-3.809,5.986,5.986,0,0,1,7.788-.28Z" transform="translate(-8176.816 2952.347)" fill="#241e20"/>
    <path id="Path_21082" data-name="Path 21082" d="M2254.26,644.153a4.027,4.027,0,0,1,3.046-1.2,4.091,4.091,0,0,1,3.03,1.134,3.665,3.665,0,0,1,1.151,2.782,3.852,3.852,0,0,1-1.182,2.768,4.076,4.076,0,0,1-3,1.15,4.235,4.235,0,0,1-3.015-1.1,3.725,3.725,0,0,1-1.166-2.813,3.8,3.8,0,0,1,1.135-2.72m1.57,4.182a2.065,2.065,0,0,0,3.512-1.461,2.1,2.1,0,0,0-.528-1.4,1.833,1.833,0,0,0-1.508-.653,1.992,1.992,0,0,0-2.037,2.051,2.04,2.04,0,0,0,.561,1.461" transform="translate(-8179.924 2951.504)" fill="#241e20"/>
    <path id="Path_21083" data-name="Path 21083" d="M2265.936,643.177h3.5c1.819,0,2.736.622,2.736,1.881a1.6,1.6,0,0,1-1.368,1.57v.047c1.151.233,1.725.824,1.725,1.741,0,1.321-.979,2.254-2.953,2.254h-3.637Zm2.051,2.86h1.073c.637,0,.963-.233.963-.7,0-.374-.3-.606-.793-.606h-1.244Zm0,3.078h1.135c.84,0,1.259-.264,1.259-.778q0-.747-1.073-.746h-1.321Z" transform="translate(-8182.803 2951.455)" fill="#241e20"/>
    <path id="Path_21084" data-name="Path 21084" d="M2283.242,649.376a4.256,4.256,0,0,1-3.358,1.415,4,4,0,0,1-2.923-1.088,3.835,3.835,0,0,1-1.1-2.813,3.9,3.9,0,0,1,1.12-2.752,3.721,3.721,0,0,1,2.829-1.181,3.65,3.65,0,0,1,3.762,3.87,6.491,6.491,0,0,1-.047.809h-5.5A1.973,1.973,0,0,0,2280.04,649a2.363,2.363,0,0,0,1.788-.7Zm-1.913-3.295a1.5,1.5,0,0,0-1.538-1.337,1.738,1.738,0,0,0-1.819,1.337Z" transform="translate(-8185.033 2951.504)" fill="#241e20"/>
    <path id="Path_21085" data-name="Path 21085" d="M2288.454,650.669v-5.627h-1.85v-1.865h5.752v1.865h-1.85v5.627Z" transform="translate(-8187.448 2951.455)" fill="#241e20"/>
    <path id="Path_21086" data-name="Path 21086" d="M2300.645,645.4a2.591,2.591,0,0,0-1.586-.574,1.964,1.964,0,0,0-2.129,2.02,2.148,2.148,0,0,0,.56,1.461,2.061,2.061,0,0,0,1.6.622,2.96,2.96,0,0,0,1.8-.653l1.073,1.445a4.562,4.562,0,0,1-3.016,1.073,4.192,4.192,0,0,1-3.062-1.088,3.845,3.845,0,0,1-1.1-2.83,3.757,3.757,0,0,1,1.151-2.751,4.148,4.148,0,0,1,3.093-1.165,3.8,3.8,0,0,1,2.736.995Z" transform="translate(-8189.287 2951.504)" fill="#241e20"/>
    <path id="Path_21087" data-name="Path 21087" d="M2305.771,650.669v-7.492h2.051v3.171l2.285-3.171h2.5l-2.751,3.482,3.062,4.01h-2.612l-2.487-3.4v3.4Z" transform="translate(-8191.756 2951.455)" fill="#241e20"/>
    <path id="Path_21088" data-name="Path 21088" d="M2320.973,646.827l-4.182,3.964h-.435v-7.663h2.052v3.792l4.2-3.964h.419v7.663h-2.051Z" transform="translate(-8194.135 2951.504)" fill="#241e20"/>
    <path id="Path_21089" data-name="Path 21089" d="M2332.1,645.908l-4.181,3.964h-.435v-7.663h2.052V646l4.2-3.964h.419V649.7H2332.1Zm-1.989-7.041a.891.891,0,0,0,.9.839.808.808,0,0,0,.871-.839h1.74a2.638,2.638,0,0,1-5.253,0Z" transform="translate(-8196.635 2952.424)" fill="#241e20"/>
    <path id="Path_21090" data-name="Path 21090" d="M2240.11,664.361a6.117,6.117,0,0,1,2.16-.4c2.254,0,3.389,1.026,3.389,3.062v4.6H2243.7v-.652a2.8,2.8,0,0,1-2.114.823,2.508,2.508,0,0,1-2.736-2.58,2.593,2.593,0,0,1,.746-1.913,2.676,2.676,0,0,1,1.99-.761,3.284,3.284,0,0,1,2.114.716c.016-1.073-.684-1.664-1.82-1.664a4.98,4.98,0,0,0-1.771.326Zm3.591,4.819c0-.606-.592-1.011-1.461-1.011-.81,0-1.336.343-1.336.98,0,.605.482.995,1.274.995.916,0,1.523-.358,1.523-.964" transform="translate(-8176.716 2946.785)" fill="#241e20"/>
    <path id="Path_21091" data-name="Path 21091" d="M2251.085,671.669v-5.627h-1.85v-1.865h5.752v1.865h-1.85v5.627Z" transform="translate(-8179.05 2946.735)" fill="#241e20"/>
    <path id="Path_21092" data-name="Path 21092" d="M2258.55,665.153a4.029,4.029,0,0,1,3.046-1.2,4.1,4.1,0,0,1,3.032,1.134,3.668,3.668,0,0,1,1.15,2.782,3.852,3.852,0,0,1-1.182,2.768,4.078,4.078,0,0,1-3,1.15,4.236,4.236,0,0,1-3.015-1.1,3.728,3.728,0,0,1-1.165-2.813,3.8,3.8,0,0,1,1.134-2.72m1.571,4.182a2.066,2.066,0,0,0,3.512-1.461,2.1,2.1,0,0,0-.528-1.4,1.836,1.836,0,0,0-1.508-.653,1.992,1.992,0,0,0-2.036,2.051,2.042,2.042,0,0,0,.561,1.461" transform="translate(-8180.889 2946.785)" fill="#241e20"/>
    <path id="Path_21093" data-name="Path 21093" d="M2274.34,671.791l-1.99-3.389-.933,3.217H2269.3l2.347-7.663h.264l2.6,4.4,2.58-4.4h.3l2.331,7.663h-2.129l-.933-3.234-1.989,3.4Z" transform="translate(-8183.561 2946.785)" fill="#241e20"/>
    <path id="Path_21094" data-name="Path 21094" d="M2286.392,668.716v2.954h-2.052v-7.492h2.052v2.673h2.7v-2.673h2.052v7.492H2289.1v-2.954Z" transform="translate(-8186.939 2946.735)" fill="#241e20"/>
    <path id="Path_21095" data-name="Path 21095" d="M2295.647,671.669v-7.492h2.051v2.285h1.352c1.912,0,2.892.917,2.892,2.55,0,1.725-1.12,2.658-3.094,2.658Zm2.051-1.865h.979c.747,0,1.119-.264,1.119-.777q0-.7-.979-.7h-1.12Zm4.912-5.627h2.051v7.492h-2.051Z" transform="translate(-8189.48 2946.735)" fill="#241e20"/>
    <path id="Path_21096" data-name="Path 21096" d="M2314.417,666.908l-4.181,3.964h-.436v-7.663h2.052V667l4.2-3.964h.419V670.7h-2.052Zm-1.989-7.041a.891.891,0,0,0,.9.839.808.808,0,0,0,.87-.839h1.74a2.638,2.638,0,0,1-5.253,0Z" transform="translate(-8192.661 2947.704)" fill="#241e20"/>
    <path id="Path_21097" data-name="Path 21097" d="M2241.706,687.043v5.627h-2.052v-7.492h6.792v7.492h-2.052v-5.627Z" transform="translate(-8176.897 2942.016)" fill="#241e20"/>
    <path id="Path_21098" data-name="Path 21098" d="M2252.991,685.128v.995a3.362,3.362,0,0,1,2.549-1.165,3.274,3.274,0,0,1,2.658,1.134,4.178,4.178,0,0,1,.963,2.782,4.078,4.078,0,0,1-.995,2.751,3.292,3.292,0,0,1-2.627,1.166,3.178,3.178,0,0,1-2.549-1.166v3.824h-2.052V685.128Zm.606,5.208a2.016,2.016,0,0,0,1.476.591,1.934,1.934,0,0,0,1.943-2.052,2.255,2.255,0,0,0-.5-1.43,1.714,1.714,0,0,0-1.447-.622,2.066,2.066,0,0,0-1.476.59,2.006,2.006,0,0,0-.591,1.461,2.031,2.031,0,0,0,.591,1.461" transform="translate(-8179.433 2942.065)" fill="#241e20"/>
    <path id="Path_21099" data-name="Path 21099" d="M2264.164,686.153a4.026,4.026,0,0,1,3.046-1.2,4.092,4.092,0,0,1,3.031,1.134,3.664,3.664,0,0,1,1.151,2.782,3.851,3.851,0,0,1-1.182,2.768,4.077,4.077,0,0,1-3,1.15,4.234,4.234,0,0,1-3.015-1.1,3.726,3.726,0,0,1-1.166-2.813,3.8,3.8,0,0,1,1.135-2.72m1.569,4.182a2.066,2.066,0,0,0,3.513-1.461,2.1,2.1,0,0,0-.528-1.4,1.833,1.833,0,0,0-1.508-.653,1.992,1.992,0,0,0-2.037,2.051,2.044,2.044,0,0,0,.56,1.461" transform="translate(-8182.15 2942.065)" fill="#241e20"/>
    <path id="Path_21100" data-name="Path 21100" d="M2282.7,691.376a4.256,4.256,0,0,1-3.358,1.415,4,4,0,0,1-2.923-1.088,3.835,3.835,0,0,1-1.1-2.813,3.9,3.9,0,0,1,1.12-2.752,3.721,3.721,0,0,1,2.829-1.181,3.65,3.65,0,0,1,3.762,3.87,6.444,6.444,0,0,1-.047.809h-5.5A1.974,1.974,0,0,0,2279.5,691a2.363,2.363,0,0,0,1.788-.7Zm-1.913-3.295a1.5,1.5,0,0,0-1.538-1.337,1.738,1.738,0,0,0-1.82,1.337Z" transform="translate(-8184.912 2942.065)" fill="#241e20"/>
    <path id="Path_21101" data-name="Path 21101" d="M2287.307,692.669v-7.492h2.051v3.171l2.285-3.171h2.5l-2.751,3.482,3.063,4.01h-2.612l-2.487-3.4v3.4Z" transform="translate(-8187.606 2942.016)" fill="#241e20"/>
    <path id="Path_21102" data-name="Path 21102" d="M2298.979,692.669v-5.627h-1.85v-1.865h5.752v1.865h-1.85v5.627Z" transform="translate(-8189.813 2942.016)" fill="#241e20"/>
    <path id="Path_21103" data-name="Path 21103" d="M2240.754,710.364v3.161h-.938v-6.578h.938v2.6h3.654v-2.6h.939v6.578h-.939v-3.161Z" transform="translate(-8176.933 2937.124)" fill="#241e20"/>
    <path id="Path_21104" data-name="Path 21104" d="M2249.153,710.02a4.149,4.149,0,0,1,1.64-.3c1.067,0,1.748.464,1.748,1.323v3.1h-.85v-.316a2.4,2.4,0,0,1-1.472.425c-.978,0-1.66-.514-1.66-1.393,0-.84.722-1.392,1.827-1.392a2.6,2.6,0,0,1,1.3.306v-.237c0-.7-.217-1.087-1.057-1.087a3.585,3.585,0,0,0-1.323.247Zm1.313,3.507c.671,0,1.235-.257,1.235-.692,0-.4-.475-.692-1.155-.692-.623,0-1.038.247-1.038.692,0,.464.316.692.958.692" transform="translate(-8178.898 2936.5)" fill="#241e20"/>
    <path id="Path_21105" data-name="Path 21105" d="M2258.128,709.865h.889v4.316h-.889v-1.747a3.178,3.178,0,0,1-1.323.276,1.362,1.362,0,0,1-1.541-1.54v-1.3h.889v1.086c0,.74.336.988.889.988a1.937,1.937,0,0,0,1.086-.267Z" transform="translate(-8180.405 2936.468)" fill="#241e20"/>
    <path id="Path_21106" data-name="Path 21106" d="M2262.128,710.02a4.149,4.149,0,0,1,1.64-.3c1.067,0,1.748.464,1.748,1.323v3.1h-.849v-.316a2.4,2.4,0,0,1-1.472.425c-.978,0-1.66-.514-1.66-1.393,0-.84.722-1.392,1.827-1.392a2.605,2.605,0,0,1,1.3.306v-.237c0-.7-.217-1.087-1.057-1.087a3.586,3.586,0,0,0-1.323.247Zm1.313,3.507c.671,0,1.235-.257,1.235-.692,0-.4-.474-.692-1.155-.692-.623,0-1.037.247-1.037.692,0,.464.315.692.958.692" transform="translate(-8181.814 2936.5)" fill="#241e20"/>
    <path id="Path_21107" data-name="Path 21107" d="M2271.379,710.635h-1.708v.751c0,2-.454,2.9-1.492,2.9h-.257v-.8h.118c.593,0,.81-.662.81-2.2v-1.422h3.417v4.316h-.889Z" transform="translate(-8183.25 2936.468)" fill="#241e20"/>
    <path id="Path_21108" data-name="Path 21108" d="M2275.762,710.406a2.383,2.383,0,0,1,1.789-.681,2.453,2.453,0,0,1,1.758.642,2.315,2.315,0,0,1,0,3.279,2.538,2.538,0,0,1-1.758.612,2.382,2.382,0,0,1-1.789-.662,2.28,2.28,0,0,1,0-3.191m1.789,3.082a1.5,1.5,0,1,0-1.492-1.491,1.4,1.4,0,0,0,1.492,1.491" transform="translate(-8184.865 2936.499)" fill="#241e20"/>
    <path id="Path_21109" data-name="Path 21109" d="M2286.808,712.256v-.671h2.1a1.439,1.439,0,0,0-1.492-1.077,2.23,2.23,0,0,0-1.265.405l-.335-.643a2.557,2.557,0,0,1,1.6-.533,2.329,2.329,0,0,1,1.8.681,2.313,2.313,0,0,1,.01,3.19,2.378,2.378,0,0,1-1.808.663,2.746,2.746,0,0,1-1.768-.593l.473-.612a1.936,1.936,0,0,0,1.294.434,1.454,1.454,0,0,0,1.522-1.244Z" transform="translate(-8187.234 2936.496)" fill="#241e20"/>
    <path id="Path_21110" data-name="Path 21110" d="M2292.662,714.181v-4.316h.888v1.945l1.828-1.945h1.017l-1.876,1.936,2.232,2.38h-1.126l-2.075-2.223v2.223Z" transform="translate(-8188.81 2936.468)" fill="#241e20"/>
    <path id="Path_21111" data-name="Path 21111" d="M2298.9,713.587a2.2,2.2,0,0,1-.652-1.59,2.28,2.28,0,0,1,2.43-2.272,2.483,2.483,0,0,1,1.7.632l-.5.613a1.8,1.8,0,0,0-1.195-.474,1.42,1.42,0,0,0-1.481,1.5,1.45,1.45,0,0,0,.435,1.087,1.586,1.586,0,0,0,1.1.4,1.869,1.869,0,0,0,1.226-.454l.474.582a2.454,2.454,0,0,1-1.738.643,2.386,2.386,0,0,1-1.789-.672" transform="translate(-8190.064 2936.499)" fill="#241e20"/>
    <path id="Path_21112" data-name="Path 21112" d="M2308.21,714.181v-3.546h-2.282v3.546h-.889v-4.316h4.06v4.316Z" transform="translate(-8191.591 2936.468)" fill="#241e20"/>
    <path id="Path_21113" data-name="Path 21113" d="M2312.51,710.406a2.384,2.384,0,0,1,1.789-.681,2.453,2.453,0,0,1,1.758.642,2.315,2.315,0,0,1,0,3.279,2.538,2.538,0,0,1-1.758.612,2.381,2.381,0,0,1-1.789-.662,2.28,2.28,0,0,1,0-3.191m1.789,3.082a1.5,1.5,0,1,0-1.492-1.491,1.4,1.4,0,0,0,1.492,1.491" transform="translate(-8193.124 2936.499)" fill="#241e20"/>
    <path id="Path_21114" data-name="Path 21114" d="M2319.238,710.336a2.329,2.329,0,0,1,1.64-.612c1.058,0,1.719.375,1.719,1.136a.935.935,0,0,1-.73.919v.029c.661.139,1,.484,1,1.047,0,.83-.692,1.4-2,1.4a2.465,2.465,0,0,1-1.719-.583l.425-.574a2.257,2.257,0,0,0,1.343.416c.672,0,1.008-.227,1.008-.672s-.366-.661-1.087-.661h-.4v-.672h.4c.544,0,.82-.178.82-.523s-.276-.523-.84-.523a1.915,1.915,0,0,0-1.205.4Z" transform="translate(-8194.763 2936.5)" fill="#241e20"/>
    <path id="Path_21115" data-name="Path 21115" d="M2328.385,711.472l-2.963,2.786v-4.425h.889v2.637l2.963-2.746v4.425h-.888Z" transform="translate(-8196.172 2936.5)" fill="#241e20"/>
    <path id="Path_21116" data-name="Path 21116" d="M2336.424,713.41h.741v2.075h-.888v-1.3h-3.922v-4.316h.888v3.545h2.292v-3.545h.889Z" transform="translate(-8197.729 2936.468)" fill="#241e20"/>
    <path id="Path_21117" data-name="Path 21117" d="M2342.762,711.472l-2.963,2.786v-4.425h.889v2.637l2.963-2.746v4.425h-.888Z" transform="translate(-8199.403 2936.5)" fill="#241e20"/>
    <path id="Path_21118" data-name="Path 21118" d="M2349.7,711.472l-2.963,2.786v-4.425h.888v2.637l2.963-2.746v4.425h-.889Z" transform="translate(-8200.961 2936.5)" fill="#241e20"/>
    <path id="Path_21119" data-name="Path 21119" d="M2245.27,904.019a.775.775,0,1,1,.775.775.773.773,0,0,1-.775-.775m0-3.876a.775.775,0,1,1,.775.775.773.773,0,0,1-.775-.775m0-3.876a.775.775,0,1,1,.775.775.778.778,0,0,1-.775-.775m0-3.876a.775.775,0,1,1,.775.775.778.778,0,0,1-.775-.775m0-3.876a.775.775,0,1,1,.775.775.773.773,0,0,1-.775-.775m0-3.876a.775.775,0,1,1,.775.775.773.773,0,0,1-.775-.775m0-3.876a.775.775,0,1,1,.775.775.778.778,0,0,1-.775-.775m0-3.876a.775.775,0,1,1,.775.775.778.778,0,0,1-.775-.775m0-3.876a.775.775,0,1,1,.775.775.773.773,0,0,1-.775-.775m0-3.876a.775.775,0,1,1,.775.775.773.773,0,0,1-.775-.775m0-3.876a.775.775,0,1,1,.775.775.773.773,0,0,1-.775-.775m0-3.876a.775.775,0,1,1,.775.775.778.778,0,0,1-.775-.775m0-3.876a.775.775,0,1,1,.775.775.778.778,0,0,1-.775-.775m0-3.876a.775.775,0,1,1,.775.775.773.773,0,0,1-.775-.775m0-3.876a.775.775,0,1,1,.775.775.773.773,0,0,1-.775-.775m0-3.876a.775.775,0,1,1,.775.775.778.778,0,0,1-.775-.775m0-3.876a.775.775,0,1,1,.775.775.778.778,0,0,1-.775-.775m0-3.876a.775.775,0,1,1,.775.775.773.773,0,0,1-.775-.775m0-3.876a.775.775,0,1,1,.775.775.773.773,0,0,1-.775-.775m0-3.876a.775.775,0,1,1,.775.775.778.778,0,0,1-.775-.775m0-3.876a.775.775,0,1,1,.775.775.778.778,0,0,1-.775-.775m0-3.876a.775.775,0,1,1,.775.775.773.773,0,0,1-.775-.775m0-3.876a.775.775,0,1,1,.775.775.773.773,0,0,1-.775-.775m0-3.876a.775.775,0,1,1,.775.775.773.773,0,0,1-.775-.775m0-3.876a.775.775,0,1,1,.775.775.778.778,0,0,1-.775-.775m0-3.876a.775.775,0,1,1,.775.775.778.778,0,0,1-.775-.775m0-3.876a.775.775,0,1,1,.775.775.773.773,0,0,1-.775-.775m0-3.876a.775.775,0,1,1,.775.775.773.773,0,0,1-.775-.775m0-3.876a.775.775,0,1,1,.775.775.778.778,0,0,1-.775-.775m0-3.876a.775.775,0,1,1,.775.775.778.778,0,0,1-.775-.775m0-3.876a.775.775,0,1,1,.775.775.773.773,0,0,1-.775-.775" transform="translate(-8178.159 2919.143)" fill="#5c5c63"/>
    <path id="Path_21120" data-name="Path 21120" d="M2184.4,776.247a.775.775,0,0,1,1.551,0,.775.775,0,1,1-1.551,0m-3.876,0a.775.775,0,0,1,1.55,0,.775.775,0,1,1-1.55,0m-3.876,0a.775.775,0,0,1,1.551,0,.775.775,0,1,1-1.551,0m-3.876,0a.775.775,0,0,1,1.551,0,.775.775,0,1,1-1.551,0m-3.876,0a.775.775,0,0,1,1.55,0,.775.775,0,1,1-1.55,0m-3.876,0a.775.775,0,0,1,1.551,0,.775.775,0,1,1-1.551,0m-3.876,0a.775.775,0,0,1,1.55,0,.775.775,0,1,1-1.55,0m-3.877,0a.775.775,0,1,1,.775.783.779.779,0,0,1-.775-.783m-3.876,0a.775.775,0,0,1,1.55,0,.775.775,0,1,1-1.55,0m-3.876,0a.775.775,0,0,1,1.551,0,.775.775,0,1,1-1.551,0m-3.876,0a.775.775,0,0,1,1.55,0,.775.775,0,1,1-1.55,0m-3.877,0a.775.775,0,0,1,1.551,0,.775.775,0,1,1-1.551,0m-3.876,0a.775.775,0,0,1,1.551,0,.775.775,0,1,1-1.551,0m-3.876,0a.775.775,0,0,1,1.55,0,.775.775,0,1,1-1.55,0m-3.876,0a.775.775,0,0,1,1.551,0,.775.775,0,1,1-1.551,0m-3.876,0a.775.775,0,0,1,1.55,0,.775.775,0,1,1-1.55,0m-3.876,0a.775.775,0,0,1,1.551,0,.775.775,0,1,1-1.551,0m-3.876,0a.775.775,0,0,1,1.55,0,.775.775,0,1,1-1.55,0m-3.876,0a.775.775,0,0,1,1.551,0,.775.775,0,1,1-1.551,0m-3.876,0a.775.775,0,1,1,.775.783.779.779,0,0,1-.775-.783m-3.876,0a.775.775,0,0,1,1.551,0,.775.775,0,1,1-1.551,0m-3.876,0a.775.775,0,1,1,.775.783.779.779,0,0,1-.775-.783m-3.876,0a.775.775,0,0,1,1.551,0,.775.775,0,1,1-1.551,0m-3.876,0a.775.775,0,0,1,1.551,0,.775.775,0,1,1-1.551,0m-3.876,0a.775.775,0,0,1,1.551,0,.775.775,0,1,1-1.551,0m-3.876,0a.775.775,0,0,1,1.551,0,.775.775,0,1,1-1.551,0m-3.876,0a.775.775,0,1,1,.775.783.779.779,0,0,1-.775-.783m-3.876,0a.775.775,0,0,1,1.551,0,.775.775,0,1,1-1.551,0m-3.876,0a.775.775,0,0,1,1.551,0,.775.775,0,1,1-1.551,0m-3.876,0a.775.775,0,0,1,1.551,0,.775.775,0,1,1-1.551,0m-3.876,0a.775.775,0,0,1,1.551,0,.775.775,0,1,1-1.551,0m-3.876,0a.775.775,0,0,1,1.551,0,.775.775,0,1,1-1.551,0m-3.256.674a.765.765,0,0,1-.6-.914.776.776,0,1,1,.76.937.561.561,0,0,1-.163-.023m-3.791-.806a.782.782,0,1,1,.162.016,1.163,1.163,0,0,1-.162-.016m-3.791-.814a.773.773,0,1,1,.923-.588.78.78,0,0,1-.76.612.591.591,0,0,1-.164-.024m-3.791-.806a.787.787,0,1,1,.163.016,1.161,1.161,0,0,1-.163-.016m-3.791-.813a.774.774,0,1,1,.326-1.513.766.766,0,0,1,.6.915.777.777,0,0,1-.76.613.606.606,0,0,1-.163-.015m-3.791-.807a.787.787,0,1,1,.163.015,1.17,1.17,0,0,1-.163-.015m-3.79-.813a.777.777,0,1,1,.922-.6.769.769,0,0,1-.752.612,1.37,1.37,0,0,1-.17-.015m-3.792-.815a.75.75,0,1,1,.171.023.651.651,0,0,1-.171-.023m-3.791-.806a.777.777,0,0,1,.326-1.519.776.776,0,0,1-.164,1.535,1.053,1.053,0,0,1-.163-.016m-3.791-.806a.787.787,0,1,1,.163.016,1.046,1.046,0,0,1-.163-.016m-3.791-.814a.783.783,0,1,1,.171.016,1.27,1.27,0,0,1-.171-.016m-3.783-.814a.772.772,0,0,1,.318-1.512.776.776,0,0,1-.154,1.536.569.569,0,0,1-.164-.024m-3.791-.806a.774.774,0,1,1,.155.016,1.171,1.171,0,0,1-.155-.016m-3.8-.814a.773.773,0,1,1,.922-.6.778.778,0,0,1-.76.621.581.581,0,0,1-.162-.024m-3.783-.806a.777.777,0,1,1,.154.016,1.146,1.146,0,0,1-.154-.016m-3.791-.813a.777.777,0,0,1,.325-1.519.776.776,0,0,1-.163,1.534.605.605,0,0,1-.162-.015m-3.792-.806a.776.776,0,1,1,.915-.6.769.769,0,0,1-.752.612,1.3,1.3,0,0,1-.163-.015m-3.791-.814a.773.773,0,1,1,.326-1.512.772.772,0,0,1-.164,1.527.609.609,0,0,1-.163-.015m-3.791-.806a.778.778,0,0,1-.6-.923.77.77,0,0,1,.923-.6.776.776,0,0,1-.164,1.534,1.287,1.287,0,0,1-.163-.015m-3.791-.815a.787.787,0,1,1,.163.016,1.062,1.062,0,0,1-.163-.016m-3.791-.814a.766.766,0,0,1-.6-.915.777.777,0,1,1,.76.938.565.565,0,0,1-.164-.023m-3.791-.806a.782.782,0,1,1,.163.016,1.056,1.056,0,0,1-.163-.016m-3.79-.806a.777.777,0,0,1,.325-1.52.777.777,0,0,1-.163,1.536,1.036,1.036,0,0,1-.162-.016" transform="translate(-8117.863 2925.749)" fill="#5c5c63"/>
    <path id="Path_21121" data-name="Path 21121" d="M2028.706,602.415a18.763,18.763,0,1,1-18.763-18.763,18.763,18.763,0,0,1,18.763,18.763" transform="translate(-8121.057 2964.832)"/>
    <path id="Path_21122" data-name="Path 21122" d="M2011.022,595.67a1.3,1.3,0,0,1-1.389-1.418,1.288,1.288,0,0,1,1.389-1.361,1.325,1.325,0,0,1,1.418,1.361,1.339,1.339,0,0,1-1.418,1.418m0,.85a2.281,2.281,0,1,0-2.524-2.268,2.326,2.326,0,0,0,2.524,2.268m1.588,6.551,1.078-1.049-.142-2.978a2.524,2.524,0,0,0-5.049,0l-.283,7.685h1.134l.312-7.685c.029-.908.369-1.5,1.362-1.5,1.021,0,1.333.6,1.389,1.5Zm3.545-4.282-9.075,9.075h-2.24a3.4,3.4,0,1,0,0,6.807h4.509l9.074-9.075h2.269a3.4,3.4,0,0,0,0-6.806Zm.482,1.134h4.055a2.269,2.269,0,0,1,0,4.538h-2.666l-9.131,9.075h-4.055a2.269,2.269,0,1,1,0-4.538h2.694Z" transform="translate(-8123.355 2962.96)" fill="#fff"/>
    <path id="Path_21123" data-name="Path 21123" d="M2226.865,535.367A18.762,18.762,0,1,1,2208.1,516.6a18.763,18.763,0,0,1,18.762,18.763" transform="translate(-8165.59 2979.9)"/>
    <path id="Path_21124" data-name="Path 21124" d="M2227.808,540.175l-2.065,1.549-2.065-1.549v1.291l2.065,1.549,2.065-1.549Zm0-1.033v-1.291l-2.065-1.549-2.065,1.549v1.291l2.065-1.549Z" transform="translate(-8173.307 2975.473)" fill="#fff"/>
    <path id="Path_21125" data-name="Path 21125" d="M2210.626,526.646h-8.26V547.3h15.489V526.646Zm-7.228,1.033h6.2v18.587h-6.2Zm7.228,0h6.2v18.587h-6.2Z" transform="translate(-8168.517 2977.643)" fill="#fff"/>
    <path id="Path_21126" data-name="Path 21126" d="M2342.364,856.222a18.762,18.762,0,1,1-18.763-18.763,18.764,18.764,0,0,1,18.763,18.763" transform="translate(-8191.546 2907.793)"/>
    <path id="Path_21127" data-name="Path 21127" d="M2329.391,855.164h-.985l-.492-4.183c-.148-1.158-.763-1.846-1.723-1.846s-1.576.688-1.723,1.846l-.493,4.183h-.91l.492-4.183c.2-1.7,1.132-2.707,2.634-2.707a2.7,2.7,0,0,1,2.707,2.707Zm-10.091-3.938-2.9,13.511c-.418,1.994.738,3.224,2.732,3.224h14.1c1.993,0,3.15-1.23,2.732-3.224l-2.879-13.511h-.984l2.879,13.659c.32,1.477-.271,2.092-1.748,2.092h-14.1c-1.477,0-2.068-.615-1.748-2.092l2.9-13.659Z" transform="translate(-8194.124 2905.363)" fill="#fff"/>
    <path id="Path_21128" data-name="Path 21128" d="M2089.686,856.477a18.763,18.763,0,1,1-18.762-18.763,18.763,18.763,0,0,1,18.762,18.763" transform="translate(-8134.761 2907.736)"/>
    <path id="Path_21129" data-name="Path 21129" d="M2075.891,847.79a7.763,7.763,0,0,1,7.46,6.439,6.611,6.611,0,0,1-1.817,5.826c-.8.84-1.627,1.65-2.477,2.434a4.655,4.655,0,0,1-2.365,1.228,3.606,3.606,0,0,1-.9.026.745.745,0,0,1-.429-.207q-3.832-3.812-7.644-7.643a.778.778,0,0,1-.2-.433,4.061,4.061,0,0,1,.821-2.736,3.644,3.644,0,0,1,.416-.548c.914-.931,1.8-1.89,2.766-2.768a6.384,6.384,0,0,1,4.37-1.618m6.842,7.564c0-.193,0-.386,0-.578a1.8,1.8,0,0,0-.023-.192,6.972,6.972,0,0,0-3.114-4.925,6.114,6.114,0,0,0-7.733.385c-.861.772-1.661,1.616-2.451,2.461a4.3,4.3,0,0,0-1.212,2.425.752.752,0,0,0,.228.692q3.617,3.6,7.215,7.213a.739.739,0,0,0,.663.229,3.181,3.181,0,0,0,1.83-.764c1.046-.937,2.076-1.9,3.045-2.912a5.608,5.608,0,0,0,1.553-4.034" transform="translate(-8138.208 2905.471)" fill="#fff"/>
    <path id="Path_21130" data-name="Path 21130" d="M2076.107,863.9c-.124,0-.254-.005-.391-.017a.93.93,0,0,1-.549-.263q-3.832-3.812-7.645-7.643a.964.964,0,0,1-.253-.549,4.18,4.18,0,0,1,.852-2.865,3.924,3.924,0,0,1,.44-.577c.231-.234.46-.472.69-.709.669-.691,1.36-1.4,2.084-2.065a6.6,6.6,0,0,1,4.48-1.668h.02a7.936,7.936,0,0,1,7.651,6.6,6.8,6.8,0,0,1-1.867,5.989c-.765.808-1.578,1.607-2.487,2.443a4.846,4.846,0,0,1-2.463,1.278,3.283,3.283,0,0,1-.562.045m-.292-15.969a6.223,6.223,0,0,0-4.219,1.567c-.714.652-1.4,1.362-2.066,2.049q-.345.357-.693.712a3.508,3.508,0,0,0-.393.52,3.811,3.811,0,0,0-.79,2.607.588.588,0,0,0,.142.318q3.812,3.83,7.643,7.643a.564.564,0,0,0,.309.15,3.327,3.327,0,0,0,.855-.023,4.475,4.475,0,0,0,2.266-1.181c.9-.83,1.709-1.624,2.468-2.425a6.434,6.434,0,0,0,1.765-5.663,7.54,7.54,0,0,0-7.269-6.274Zm.317,15.281a.91.91,0,0,1-.684-.291q-3.6-3.618-7.214-7.213a.943.943,0,0,1-.284-.854,4.459,4.459,0,0,1,1.263-2.534c.813-.868,1.613-1.71,2.463-2.473a6.285,6.285,0,0,1,7.973-.4,7.178,7.178,0,0,1,3.2,5.058,1.5,1.5,0,0,1,.024.216c0,.138,0,.275,0,.412v.17a5.778,5.778,0,0,1-1.607,4.168c-.846.887-1.788,1.789-3.055,2.922a3.39,3.39,0,0,1-1.939.813c-.047,0-.093.007-.137.007m-.285-14.608a5.811,5.811,0,0,0-3.911,1.534c-.84.752-1.6,1.554-2.439,2.448a4.068,4.068,0,0,0-1.161,2.316.562.562,0,0,0,.172.53q3.619,3.6,7.215,7.214a.543.543,0,0,0,.506.173,2.993,2.993,0,0,0,1.72-.716c1.259-1.126,2.194-2.02,3.033-2.9a5.4,5.4,0,0,0,1.5-3.9v-.173c0-.135,0-.27,0-.4a.942.942,0,0,0-.014-.121,6.829,6.829,0,0,0-3.038-4.839,6.319,6.319,0,0,0-3.583-1.162" transform="translate(-8138.151 2905.527)" fill="#fff"/>
    <path id="Path_21131" data-name="Path 21131" d="M2064.749,870.687a1.77,1.77,0,0,1-.3-.189q-.854-.842-1.7-1.694c-.223-.226-.214-.388.032-.635q1.44-1.444,2.883-2.886c.429-.429.864-.85,1.281-1.291a.823.823,0,0,0,.206-.422c.067-.472.1-.95.15-1.424.021-.2.024-.417.262-.5s.358.076.5.213q1.665,1.667,3.333,3.332c.142.141.279.28.2.5s-.263.224-.453.242c-.521.05-1.043.1-1.561.17a.665.665,0,0,0-.341.195q-2.072,2.059-4.135,4.127a3.114,3.114,0,0,1-.353.264m.041-.9a2.356,2.356,0,0,1,.18-.228c1.3-1.3,2.6-2.6,3.905-3.9a1,1,0,0,1,.494-.243c.347-.068.7-.086,1.01-.12l-2.43-2.431c-.029.255-.083.556-.092.857a.958.958,0,0,1-.32.7c-1.294,1.281-2.577,2.571-3.864,3.858-.07.069-.135.143-.188.2l1.306,1.306" transform="translate(-8137.105 2902.363)" fill="#fff"/>
    <path id="Path_21132" data-name="Path 21132" d="M2064.7,870.865l-.112-.069c-.037-.023-.073-.043-.106-.061a.94.94,0,0,1-.228-.156q-.855-.841-1.7-1.695a.563.563,0,0,1,.033-.909l3.238-3.238c.31-.308.621-.616.922-.934a.629.629,0,0,0,.154-.316c.044-.312.074-.624.1-.937.015-.161.029-.32.046-.481.023-.243.053-.545.39-.664a.6.6,0,0,1,.67.232l.812.812q1.273,1.275,2.548,2.547a.634.634,0,0,1,.242.705.621.621,0,0,1-.61.368l-.1.009c-.479.045-.975.092-1.458.16a.482.482,0,0,0-.231.14q-1.2,1.2-2.4,2.395l-1.734,1.731a1.817,1.817,0,0,1-.259.2l-.115.081Zm2.925-9.105a.167.167,0,0,0-.052.011c-.093.033-.109.089-.129.295s-.036.363-.051.522c-.029.319-.06.638-.1.954a1.016,1.016,0,0,1-.256.529c-.3.321-.617.632-.931.943l-3.237,3.237c-.188.189-.165.228-.032.362q.843.851,1.7,1.692a.652.652,0,0,0,.142.091l.012.006.022-.015a1.388,1.388,0,0,0,.2-.157l1.733-1.73q1.2-1.2,2.4-2.4a.886.886,0,0,1,.452-.25c.49-.067.99-.115,1.474-.16l.095-.009c.216-.021.26-.04.289-.117s.008-.138-.151-.3q-1.277-1.272-2.55-2.547l-.784-.784c-.133-.136-.187-.18-.242-.18m-2.875,8.263-1.593-1.594.182-.194c.043-.047.091-.1.14-.147l.806-.807q1.525-1.528,3.058-3.051a.764.764,0,0,0,.263-.566,6.071,6.071,0,0,1,.063-.643c.011-.08.021-.157.029-.231l.045-.4,3,3-.4.043c-.089.011-.184.019-.281.029a6.863,6.863,0,0,0-.713.089.824.824,0,0,0-.4.192q-1.721,1.7-3.424,3.413l-.48.481a1.138,1.138,0,0,0-.108.136Zm-1.053-1.6,1.015,1.016a.828.828,0,0,1,.063-.071l.481-.481q1.707-1.712,3.425-3.415a1.19,1.19,0,0,1,.593-.3c.21-.041.417-.064.619-.084l-1.861-1.861a4.437,4.437,0,0,0-.039.447,1.148,1.148,0,0,1-.377.83q-1.536,1.519-3.057,3.05l-.807.808-.056.057" transform="translate(-8137.048 2902.419)" fill="#fff"/>
    <path id="Path_21133" data-name="Path 21133" d="M2085.053,872.244a1.916,1.916,0,1,1,1.91-1.913,1.926,1.926,0,0,1-1.91,1.913m1.2-1.9a1.208,1.208,0,1,0-1.218,1.193,1.209,1.209,0,0,0,1.218-1.193" transform="translate(-8141.721 2900.836)" fill="#fff"/>
    <path id="Path_21134" data-name="Path 21134" d="M2084.991,872.383a2.11,2.11,0,0,1-.019-4.219,2.107,2.107,0,0,1,2.128,2.112,2.115,2.115,0,0,1-2.1,2.107Zm.01-3.831h-.023a1.722,1.722,0,0,0,.013,3.444h0a1.728,1.728,0,0,0,1.717-1.721,1.718,1.718,0,0,0-1.712-1.723m-.015,3.12h-.009a1.4,1.4,0,0,1-1.391-1.415,1.4,1.4,0,0,1,.431-.992,1.383,1.383,0,0,1,.968-.4h.021a1.41,1.41,0,0,1,1.384,1.419,1.386,1.386,0,0,1-1.4,1.385m0-2.417a1,1,0,0,0-.7.287,1.02,1.02,0,0,0-.314.72,1.014,1.014,0,0,0,1.005,1.022h.007a1.014,1.014,0,0,0,.015-2.029Z" transform="translate(-8141.665 2900.893)" fill="#fff"/>
    <path id="Path_21135" data-name="Path 21135" d="M2292.28,466.9a.772.772,0,0,1,0-1.093.781.781,0,0,1,1.1,0,.776.776,0,1,1-1.1,1.093m-2.737-1.721a.775.775,0,1,1,.542.226.779.779,0,0,1-.542-.226m5.48-1.016a.782.782,0,0,1,0-1.1.773.773,0,0,1,1.094,0,.776.776,0,0,1-1.094,1.1m-8.225-1.721a.778.778,0,1,1,1.1,0,.805.805,0,0,1-.55.225.794.794,0,0,1-.55-.225m10.962-1.016a.778.778,0,1,1,1.1,0,.786.786,0,0,1-1.1,0m-13.7-1.729a.773.773,0,0,1,1.093-1.093.771.771,0,0,1,0,1.093.793.793,0,0,1-.551.225.775.775,0,0,1-.542-.225m16.443-1.016a.782.782,0,0,1,0-1.1.772.772,0,0,1,1.093,0,.776.776,0,0,1-1.093,1.1m-19.188-1.729a.773.773,0,1,1,1.093,0,.751.751,0,0,1-.542.232.768.768,0,0,1-.551-.232m21.932-1.015a.76.76,0,0,1,0-1.094.773.773,0,1,1,.542,1.326.753.753,0,0,1-.542-.232m-24.677-1.722a.8.8,0,0,1,0-1.1.778.778,0,0,1,1.1,1.1.786.786,0,0,1-1.1,0m27.413-1.016a.778.778,0,1,1,1.1-1.1.794.794,0,0,1,0,1.1.8.8,0,0,1-.55.225.778.778,0,0,1-.55-.225m-30.151-1.729a.773.773,0,1,1,1.094,0,.751.751,0,0,1-.542.233.759.759,0,0,1-.551-.233m32.887-1.016a.776.776,0,0,1,1.1-1.093.773.773,0,0,1,0,1.093.756.756,0,0,1-.55.233.783.783,0,0,1-.551-.233m-35.631-1.72a.779.779,0,1,1,1.1,0,.8.8,0,0,1-.551.225.812.812,0,0,1-.55-.225m38.375-1.016a.782.782,0,0,1,0-1.1.776.776,0,1,1,.551,1.326.8.8,0,0,1-.551-.225m-41.112-1.729a.773.773,0,1,1,1.093,0,.775.775,0,0,1-1.093,0m43.856-1.016a.773.773,0,1,1,1.094,0,.777.777,0,0,1-1.094,0m-46.6-1.721a.778.778,0,1,1,1.1,0,.786.786,0,0,1-1.1,0m49.338-1.016a.778.778,0,1,1,1.1,0,.809.809,0,0,1-.55.225.794.794,0,0,1-.551-.225m-52.075-1.729a.773.773,0,1,1,1.093,0,.776.776,0,0,1-1.093,0m54.819-1.016a.782.782,0,0,1,0-1.1.772.772,0,0,1,1.093,0,.776.776,0,0,1-1.093,1.1m2.737-2.744a.771.771,0,0,1,0-1.094.781.781,0,0,1,1.1,0,.776.776,0,1,1-1.1,1.094m2.744-2.737a.776.776,0,1,1,.542.225.772.772,0,0,1-.542-.225m2.736-2.745a.774.774,0,0,1,0-1.093.782.782,0,0,1,1.1,0,.771.771,0,0,1,0,1.093.759.759,0,0,1-.55.225.776.776,0,0,1-.551-.225m2.744-2.737a.783.783,0,0,1,0-1.1.773.773,0,0,1,1.094,0,.776.776,0,0,1-1.094,1.1m2.745-2.744a.773.773,0,1,1,1.094,0,.764.764,0,0,1-.55.225.747.747,0,0,1-.543-.225m2.737-2.737a.779.779,0,0,1,1.1-1.1.8.8,0,0,1,0,1.1.81.81,0,0,1-.551.225.78.78,0,0,1-.551-.225m2.737-2.744a.771.771,0,0,1,0-1.093.781.781,0,0,1,1.1,0,.772.772,0,0,1,0,1.093.794.794,0,0,1-.551.225.807.807,0,0,1-.55-.225m2.744-2.737a.78.78,0,0,1,0-1.1.771.771,0,0,1,1.093,0,.775.775,0,0,1-.542,1.326.79.79,0,0,1-.551-.225m2.744-2.744a.773.773,0,1,1,1.092,0,.776.776,0,0,1-1.092,0m2.736-2.744a.768.768,0,1,1,.551.233.774.774,0,0,1-.551-.233m2.745-2.737a.782.782,0,0,1,0-1.1.773.773,0,0,1,1.094,0,.776.776,0,0,1-1.094,1.1m2.737-2.744a.772.772,0,0,1,0-1.093.776.776,0,0,1,1.1,1.093.768.768,0,0,1-1.1,0m2.745-2.737a.781.781,0,0,1,0-1.1.772.772,0,0,1,1.093,0,.776.776,0,0,1-1.093,1.1m2.737-2.744a.772.772,0,0,1,0-1.094.781.781,0,0,1,1.1,0,.773.773,0,0,1,0,1.094.763.763,0,0,1-.55.224.775.775,0,0,1-.551-.224m2.744-2.737a.779.779,0,1,1,1.1,0,.809.809,0,0,1-.551.225.791.791,0,0,1-.551-.225m2.736-2.744a.776.776,0,0,1,1.1-1.093.771.771,0,0,1,0,1.093.759.759,0,0,1-.551.225.774.774,0,0,1-.551-.225m2.745-2.744a.773.773,0,0,1,0-1.093.776.776,0,1,1,.55,1.326.772.772,0,0,1-.55-.233m2.737-2.737a.772.772,0,0,1,0-1.093.782.782,0,0,1,1.1,0,.773.773,0,0,1,0,1.093.8.8,0,0,1-.551.225.809.809,0,0,1-.551-.225m2.745-2.737a.778.778,0,1,1,1.1,0,.786.786,0,0,1-1.1,0m2.745-2.744a.781.781,0,0,1,0-1.1.772.772,0,0,1,1.093,0,.775.775,0,0,1-.55,1.326.774.774,0,0,1-.542-.225m2.736-2.744a.771.771,0,0,1,0-1.094.782.782,0,0,1,1.1,0,.776.776,0,1,1-1.1,1.094m2.744-2.737a.78.78,0,0,1,0-1.1.771.771,0,0,1,1.093,0,.776.776,0,0,1-1.093,1.1m2.736-2.744a.773.773,0,0,1,0-1.093.781.781,0,0,1,1.1,0,.771.771,0,0,1,0,1.093.759.759,0,0,1-.551.225.774.774,0,0,1-.55-.225m2.745-2.737a.783.783,0,0,1,0-1.1.772.772,0,0,1,1.093,0,.776.776,0,0,1-1.093,1.1m2.744-2.744a.773.773,0,1,1,1.094,0,.764.764,0,0,1-.551.225.747.747,0,0,1-.543-.225m2.738-2.737a.778.778,0,1,1,1.1,0,.809.809,0,0,1-.55.225.793.793,0,0,1-.55-.225m2.744-2.744a.781.781,0,0,1,0-1.1.772.772,0,0,1,1.093,0,.775.775,0,0,1-.55,1.326.774.774,0,0,1-.543-.225m2.736-2.737a.78.78,0,0,1,0-1.1.771.771,0,0,1,1.093,0,.775.775,0,0,1-.542,1.326.793.793,0,0,1-.551-.225m2.744-2.744a.776.776,0,1,1,1.093,0,.776.776,0,0,1-1.093,0m2.736-2.744a.773.773,0,0,1,0-1.093.781.781,0,0,1,1.1,0,.771.771,0,0,1,0,1.093.786.786,0,0,1-1.1,0m2.744-2.737a.783.783,0,0,1,0-1.1.772.772,0,0,1,1.093,0,.776.776,0,0,1-1.093,1.1m2.738-2.744a.771.771,0,0,1,0-1.093.781.781,0,0,1,1.1,0,.776.776,0,1,1-1.1,1.093m2.744-2.737a.782.782,0,0,1,0-1.1.772.772,0,0,1,1.093,0,.776.776,0,0,1-1.093,1.1m2.737-2.744a.77.77,0,0,1,0-1.093.781.781,0,0,1,1.1,0,.774.774,0,0,1,0,1.093.786.786,0,0,1-1.1,0m2.744-2.737a.779.779,0,1,1,1.1,0,.807.807,0,0,1-.55.225.794.794,0,0,1-.551-.225m2.745-2.744a.773.773,0,1,1,1.093,0,.757.757,0,0,1-.551.225.738.738,0,0,1-.542-.225m-2.682-2.744a.771.771,0,0,1,0-1.093.776.776,0,1,1,.551,1.326.766.766,0,0,1-.551-.233m-2.744-2.737a.779.779,0,1,1,1.1,0,.786.786,0,0,1-1.1,0m-2.737-2.737a.782.782,0,0,1,0-1.1.772.772,0,0,1,1.093,0,.776.776,0,0,1-1.093,1.1m-2.744-2.744a.771.771,0,0,1,0-1.092.775.775,0,1,1,1.1,1.092.786.786,0,0,1-1.1,0m-2.738-2.744a.773.773,0,1,1,1.094,0,.778.778,0,0,1-1.094,0m-2.744-2.737a.778.778,0,1,1,1.1,0,.786.786,0,0,1-1.1,0m-2.736-2.744a.775.775,0,1,1,1.093,0,.792.792,0,0,1-.551.225.774.774,0,0,1-.542-.225M2396.5,318.9a.778.778,0,1,1,1.1,0,.807.807,0,0,1-.55.225.791.791,0,0,1-.55-.225m-2.745-2.744a.771.771,0,0,1,0-1.093.782.782,0,0,1,1.1,0,.772.772,0,0,1,0,1.093.762.762,0,0,1-.551.225.773.773,0,0,1-.55-.225" transform="translate(-8182.514 3025.245)" fill="#5c5c63"/>
    <path id="Path_21136" data-name="Path 21136" d="M2372.025,411.1a18.763,18.763,0,1,1-18.762-18.763,18.762,18.762,0,0,1,18.762,18.763" transform="translate(-8198.212 3007.828)"/>
    <path id="Path_21137" data-name="Path 21137" d="M2362.581,404.807l-5.461-1.456v1.274l5.461,1.456Zm-1.82,2.84a1.621,1.621,0,1,1,0-3.241,1.621,1.621,0,1,1,0,3.241m0,.982a2.636,2.636,0,1,0,0-5.243,2.956,2.956,0,0,0-2.913,2.623,2.709,2.709,0,0,0,2.913,2.62m-13.836-1.456c.073-.909.365-1.492,1.275-1.492v-1.056a2.555,2.555,0,0,0-2.549,2.548Zm13.836,11.215a2.921,2.921,0,0,0,2.913-2.913l.728-6.846h-1.457l-.728,6.846c-.109,1.019-.437,1.711-1.456,1.711s-1.347-.692-1.457-1.711l-.728-6.846h-1.457l.728,6.846a2.921,2.921,0,0,0,2.913,2.913m-6.554-11.215h1.275a2.556,2.556,0,0,0-2.549-2.548v1.056c.91,0,1.2.583,1.275,1.492m-3.641.474a1.621,1.621,0,1,1,0-3.241,1.621,1.621,0,1,1,0,3.241m0,.982a2.636,2.636,0,1,0-2.913-2.62,2.709,2.709,0,0,0,2.913,2.62m10.923,14.564h2.913v-1.456h-1.457v-4.369h-1.456Zm-4.369,0h2.913v-5.825h-1.456v4.369h-1.457Zm-5.826,0h2.913v-1.456h-1.457V418.1h-1.456Zm-1.457-5.1v5.1m-2.913,0h2.913v-5.1h-1.457v3.641h-1.456Zm-.983-5.1h.474c1.347,0,2.33-2.439,2.512-6.335.073-1.237.546-1.929,1.638-1.929.91,0,1.347.473,1.6,1.711l1.311,6.553h1.456l-1.456-6.553c-.364-1.675-1.2-2.913-2.913-2.913a2.833,2.833,0,0,0-2.913,2.913c-.109,3.423-.764,5.1-1.492,5.1h-.219Z" transform="translate(-8200.718 3005.352)" fill="#fff"/>
    <g id="Group_467" data-name="Group 467" transform="translate(-5797.419 3587.546)" opacity="0.69">
      <g id="Group_466" data-name="Group 466" transform="translate(0 0)">
        <g id="Group_465" data-name="Group 465" clip-path="url(#clip-path-3)">
          <path id="Path_21138" data-name="Path 21138" d="M2423.717,789.856l-3.688,3.71-.015,76.776h229.474v-236.3h-70.842" transform="translate(-2420.011 -634.037)" fill="#e4e8ed"/>
        </g>
      </g>
    </g>
    <path id="Path_21139" data-name="Path 21139" d="M2616.083,813.526a18.763,18.763,0,1,1-18.762-18.763,18.763,18.763,0,0,1,18.762,18.763" transform="translate(-8253.061 2917.388)"/>
    <path id="Path_21140" data-name="Path 21140" d="M2605.854,821.559v1h1.523a2.277,2.277,0,0,0,2.47-2.5V809.082a2.284,2.284,0,0,0-2.5-2.5h-14.973a2.284,2.284,0,0,0-2.5,2.5v10.981a2.284,2.284,0,0,0,2.5,2.5h1.472v-1h-1.472c-1.1,0-1.5-.4-1.5-1.5V809.082c0-1.1.4-1.5,1.5-1.5h14.973c1.1,0,1.5.4,1.5,1.5v10.981c0,1.1-.4,1.5-1.472,1.5Z" transform="translate(-8255.605 2914.731)" fill="#fff"/>
    <path id="Path_21141" data-name="Path 21141" d="M2602.035,810.447a2.259,2.259,0,1,0,2.5,2.247,2.319,2.319,0,0,0-2.5-2.247m0,3.744a1.5,1.5,0,1,1,1.5-1.5,1.4,1.4,0,0,1-1.5,1.5" transform="translate(-8257.775 2913.864)" fill="#fff"/>
    <path id="Path_21142" data-name="Path 21142" d="M2605.3,819.736h-1.74l-.082-.75a2.745,2.745,0,1,0-5.49,0l-.082.75h-1.74a2.2,2.2,0,0,0-2.4,2.671l.574,4.017a2.424,2.424,0,0,0,2.6,2.3h7.587a2.423,2.423,0,0,0,2.6-2.3l.574-4.017a2.2,2.2,0,0,0-2.4-2.671m-6.314-.75c.125-1.173.773-1.872,1.747-1.872s1.623.7,1.747,1.872l.082.75H2598.9Zm4.683,1.748h1.631c1.148,0,1.548.449,1.4,1.523l-.574,4.017c-.15,1.048-.549,1.447-1.6,1.447h-7.587c-1.048,0-1.447-.4-1.6-1.447l-.574-4.017c-.15-1.074.249-1.523,1.4-1.523h1.631m1,0h3.875" transform="translate(-8256.471 2912.562)" fill="#fff"/>
    <path id="Path_21143" data-name="Path 21143" d="M2606.242,551.936h-.775V353.005l-40.5-40.495V295.437l-23.855-23.854,2.869-2.869,25.044,25.043V310.83l36.437,36.437V316.851h.775v32.287l-37.987-37.987V294.079l-24.269-24.269-1.773,1.773,23.534,23.533V312.19l40.5,40.494Z" transform="translate(-8244.646 3035.61)" fill="#5c5c63"/>
    <rect id="Rectangle_2422" data-name="Rectangle 2422" width="0.775" height="23.635" transform="translate(-5639.18 3317.383)" fill="#5c5c63"/>
    <path id="Path_21144" data-name="Path 21144" d="M2695.745,517.492h-.775V116.226H2624.9V235.9h-.775V115.451h71.625Z" transform="translate(-8263.3 3070.053)" fill="#5c5c63"/>
    <path id="Path_21145" data-name="Path 21145" d="M2127.644,643.224l-16.685-16.8,4.661-4.67L2127.3,633.59l20.866-20.867,4.987,4.987Zm-15.591-16.8,15.592,15.7,24.416-24.415-3.89-3.891-20.87,20.87-11.684-11.833Z" transform="translate(-8147.975 2958.299)" fill="#5c5c63"/>
    <path id="Path_21146" data-name="Path 21146" d="M2151.877,645.538a18.763,18.763,0,1,1-18.762-18.763,18.763,18.763,0,0,1,18.762,18.763" transform="translate(-8148.737 2955.141)"/>
    <path id="Path_21147" data-name="Path 21147" d="M2141.221,656.266a3.081,3.081,0,0,1-3.34-3.365,3.135,3.135,0,0,1,3.34-3.289,3.331,3.331,0,1,1,0,6.654m-11.34,0a3.331,3.331,0,1,1,0-6.654,3.135,3.135,0,0,1,3.34,3.289,3.081,3.081,0,0,1-3.34,3.365m-.026,1.036a4.3,4.3,0,0,0,4.66-4.35,4.209,4.209,0,0,0-4.35-4.375,4.353,4.353,0,0,0-3.935,1.993v-2.952c0-5.9,2.1-9.994,9.32-9.994s9.321,4.091,9.321,9.994v2.952a4.353,4.353,0,0,0-3.935-1.993,4.209,4.209,0,0,0-4.35,4.375,4.3,4.3,0,0,0,4.66,4.35c2.926,0,4.661-1.89,4.661-5.178v-4.505c0-7.431-3.392-11.03-10.357-11.03s-10.356,3.6-10.356,11.03v4.505c0,3.288,1.734,5.178,4.661,5.178" transform="translate(-8151.174 2952.935)" fill="#fff"/>
    <path id="Path_21148" data-name="Path 21148" d="M2604.317,563.892a.777.777,0,0,1,.775-.775.775.775,0,1,1,0,1.55.778.778,0,0,1-.775-.775m-3.876-.016a.781.781,0,0,1,.782-.768.775.775,0,0,1-.007,1.55.779.779,0,0,1-.775-.783m-3.1.767a.777.777,0,0,1-.776-.775.775.775,0,1,1,.782.775Zm-3.876-.007a.775.775,0,1,1,.775-.775.766.766,0,0,1-.768.775Zm-3.876-.016a.777.777,0,0,1-.775-.775.775.775,0,1,1,.782.775Zm-3.876-.008a.777.777,0,0,1-.775-.775.788.788,0,0,1,.782-.775.775.775,0,0,1,0,1.551Zm-4.651-.79a.775.775,0,0,1,1.55.008.779.779,0,0,1-.775.775.789.789,0,0,1-.775-.783m-3.876-.008a.775.775,0,1,1,1.551.008.775.775,0,0,1-1.551-.008m-3.1.767a.775.775,0,0,1,0-1.551.775.775,0,0,1,.007,1.551Zm-3.876-.015a.771.771,0,1,1,.007-1.543.771.771,0,0,1,0,1.543Zm-3.876-.008a.775.775,0,0,1,0-1.551.775.775,0,0,1,.007,1.551Zm-3.876-.016a.771.771,0,1,1,.007-1.543.771.771,0,0,1,0,1.543Zm-4.652-.782a.778.778,0,0,1,.775-.775.775.775,0,0,1,0,1.551.778.778,0,0,1-.775-.775m-.295-3.575a.775.775,0,1,1,.775.768.773.773,0,0,1-.775-.768m0-3.876a.775.775,0,1,1,.775.775.773.773,0,0,1-.775-.775m0-3.876a.775.775,0,1,1,.775.768.773.773,0,0,1-.775-.768m0-3.876a.775.775,0,1,1,.775.775.773.773,0,0,1-.775-.775m0-3.876a.775.775,0,1,1,.775.768.773.773,0,0,1-.775-.768m0-3.876a.775.775,0,1,1,.775.775.773.773,0,0,1-.775-.775m0-3.876a.775.775,0,1,1,.775.768.773.773,0,0,1-.775-.768m0-3.876a.775.775,0,1,1,.775.775.773.773,0,0,1-.775-.775m-1.481-3.147a.779.779,0,1,1,1.047.333.726.726,0,0,1-.357.086.787.787,0,0,1-.69-.419m-1.767-3.45a.782.782,0,0,1,.341-1.047.775.775,0,0,1,.706,1.379.7.7,0,0,1-.349.086.788.788,0,0,1-.7-.419M2552.5,523a.775.775,0,1,1,1.039.334.705.705,0,0,1-.35.084.775.775,0,0,1-.689-.419m-1.769-3.449a.772.772,0,0,1,.334-1.047.775.775,0,1,1,.7,1.38.793.793,0,0,1-.348.085.768.768,0,0,1-.691-.418m-1.767-3.45a.776.776,0,1,1,1.039.333.8.8,0,0,1-.349.085.784.784,0,0,1-.69-.419m-1.768-3.458a.775.775,0,0,1,1.38-.705.779.779,0,0,1-.334,1.046.817.817,0,0,1-.357.086.777.777,0,0,1-.689-.426m-1.768-3.45a.775.775,0,1,1,1.046.34.824.824,0,0,1-.356.086.778.778,0,0,1-.69-.426m-1.768-3.45a.778.778,0,1,1,1.047.341.843.843,0,0,1-.356.085.78.78,0,0,1-.691-.426m-.62-4.1a.775.775,0,1,1,.775.775.778.778,0,0,1-.775-.775m0-3.869a.775.775,0,1,1,.775.768.774.774,0,0,1-.775-.768m0-3.883a.775.775,0,1,1,.775.775.778.778,0,0,1-.775-.775m0-3.869a.775.775,0,1,1,.775.768.774.774,0,0,1-.775-.768m0-3.883a.775.775,0,1,1,.775.775.778.778,0,0,1-.775-.775m0-3.869a.775.775,0,1,1,.775.768.774.774,0,0,1-.775-.768m0-3.883a.775.775,0,1,1,.775.775.778.778,0,0,1-.775-.775m0-3.869a.775.775,0,1,1,.775.768.774.774,0,0,1-.775-.768m0-3.883a.775.775,0,1,1,.775.775.778.778,0,0,1-.775-.775m0-3.869a.775.775,0,1,1,.775.768.774.774,0,0,1-.775-.768m0-3.883a.775.775,0,1,1,.775.775.778.778,0,0,1-.775-.775m0-3.869a.775.775,0,1,1,.775.768.774.774,0,0,1-.775-.768m0-3.883a.775.775,0,1,1,.775.775.778.778,0,0,1-.775-.775m0-3.869a.775.775,0,1,1,.775.768.774.774,0,0,1-.775-.768m0-3.883a.775.775,0,1,1,.775.775.778.778,0,0,1-.775-.775m0-3.869a.775.775,0,1,1,.775.768.774.774,0,0,1-.775-.768m0-3.883a.775.775,0,1,1,.775.775.778.778,0,0,1-.775-.775m0-3.869a.775.775,0,1,1,.775.768.774.774,0,0,1-.775-.768m0-3.883a.775.775,0,1,1,.775.775.778.778,0,0,1-.775-.775m0-3.869a.775.775,0,1,1,.775.768.774.774,0,0,1-.775-.768m0-3.883a.775.775,0,1,1,.775.775.778.778,0,0,1-.775-.775m0-3.876a.775.775,0,1,1,.775.775.772.772,0,0,1-.775-.775m0-3.876a.775.775,0,1,1,.775.775.778.778,0,0,1-.775-.775m0-3.876a.775.775,0,1,1,.775.775.772.772,0,0,1-.775-.775m0-3.876a.775.775,0,1,1,.775.775.778.778,0,0,1-.775-.775m2.311-2.5a.774.774,0,1,1,1.047-1.14.781.781,0,0,1,.047,1.094.8.8,0,0,1-.574.248.743.743,0,0,1-.52-.2m2.613-2.861a.776.776,0,0,1,1.046-1.147.783.783,0,0,1,.055,1.1.8.8,0,0,1-.582.247.748.748,0,0,1-.52-.2m2.612-2.861a.776.776,0,1,1,1.1-.047.8.8,0,0,1-.574.248.776.776,0,0,1-.527-.2m2.621-2.861a.777.777,0,0,1,1.047-1.148.776.776,0,0,1-.527,1.35.749.749,0,0,1-.52-.2m2.613-2.862a.776.776,0,1,1,1.1-.046.794.794,0,0,1-.573.248.772.772,0,0,1-.527-.2m1.333-3.829a.775.775,0,1,1,.775.767.772.772,0,0,1-.775-.767m0-3.884a.775.775,0,1,1,.775.783.777.777,0,0,1-.775-.783m0-3.869a.775.775,0,1,1,.775.767.772.772,0,0,1-.775-.767m0-3.884a.775.775,0,1,1,.775.783.777.777,0,0,1-.775-.783m0-3.869a.775.775,0,1,1,.775.768.772.772,0,0,1-.775-.768m0-3.884a.775.775,0,1,1,.775.783.777.777,0,0,1-.775-.783m0-3.869a.775.775,0,1,1,.775.768.772.772,0,0,1-.775-.768m0-3.884a.775.775,0,1,1,.775.783.777.777,0,0,1-.775-.783m0-3.869a.775.775,0,1,1,.775.768.772.772,0,0,1-.775-.768m0-3.884a.775.775,0,1,1,.775.783.777.777,0,0,1-.775-.783m0-3.869a.775.775,0,1,1,.775.768.772.772,0,0,1-.775-.768m0-3.884a.775.775,0,1,1,.775.783.777.777,0,0,1-.775-.783m0-3.869a.775.775,0,1,1,.775.768.772.772,0,0,1-.775-.768m0-3.884a.775.775,0,1,1,.775.783.777.777,0,0,1-.775-.783m0-3.869a.775.775,0,1,1,.775.767.772.772,0,0,1-.775-.767m0-3.884a.775.775,0,1,1,.775.783.777.777,0,0,1-.775-.783m0-3.869a.775.775,0,1,1,.775.767.772.772,0,0,1-.775-.767m0-3.884a.775.775,0,1,1,.775.783.777.777,0,0,1-.775-.783m7.233-.512a.775.775,0,1,1,.775.768.772.772,0,0,1-.775-.768m-3.876,0a.775.775,0,1,1,.775.768.772.772,0,0,1-.775-.768" transform="translate(-8245.078 3023.265)" fill="#5c5c63"/>
    <path id="Path_21149" data-name="Path 21149" d="M2599.946,472.9a18.763,18.763,0,1,1-18.762-18.763,18.762,18.762,0,0,1,18.762,18.763" transform="translate(-8249.434 2993.938)"/>
    <path id="Path_21150" data-name="Path 21150" d="M2591.824,463.359a3.5,3.5,0,0,0-3.484,3.485v11.614h3.484v8.13h1.162V463.359ZM2589.5,477.3V466.844a2.225,2.225,0,0,1,2.323-2.323V477.3Z" transform="translate(-8255.259 2991.866)" fill="#fff"/>
    <rect id="Rectangle_2423" data-name="Rectangle 2423" width="1.161" height="5.808" transform="translate(-5671.564 3455.225)" fill="#fff"/>
    <rect id="Rectangle_2424" data-name="Rectangle 2424" width="1.161" height="5.808" transform="translate(-5673.887 3455.225)" fill="#fff"/>
    <rect id="Rectangle_2425" data-name="Rectangle 2425" width="1.161" height="5.808" transform="translate(-5676.21 3455.225)" fill="#fff"/>
    <path id="Path_21151" data-name="Path 21151" d="M2582.162,472.349H2581a1.742,1.742,0,1,1-3.484,0h-1.163a2.915,2.915,0,0,0,2.324,2.845v13.415h1.161V475.194a2.916,2.916,0,0,0,2.323-2.845" transform="translate(-8252.565 2989.846)" fill="#fff"/>
    <path id="Path_21152" data-name="Path 21152" d="M2190.383,594.473l.687-15.536-15.533.754,1,1,12.653-.6-13.236,13.293.741.737,13.236-13.294-.547,12.656Z" transform="translate(-8162.487 2965.892)" fill="#241e20"/>
    <rect id="Rectangle_2426" data-name="Rectangle 2426" width="1.086" height="21.499" transform="translate(-5986.715 3559.45) rotate(-45)" fill="#241e20"/>
    <path id="Path_21153" data-name="Path 21153" d="M2243.606,473.373l-25.087-25,4.609-4.745-24.175-23.407-22.089,22.106,24.281,23.558,4.811-4.59,24.5,25.294" transform="translate(-8162.786 3001.56)" fill="#edf2f7"/>
    <path id="Path_21154" data-name="Path 21154" d="M2226.52,482.752l-20.49-21.274-4.8,4.579L2176.4,441.967l22.636-22.654,24.728,23.942L2219.149,448l21.075,20.984-.547.55-21.617-21.525,4.6-4.741L2199.042,420.4,2177.5,441.958l23.731,23.025,4.821-4.6,21.025,21.831Z" transform="translate(-8162.681 3001.765)" fill="#5c5c63"/>
    <path id="Path_21155" data-name="Path 21155" d="M2239.336,425.762A18.763,18.763,0,1,1,2220.573,407a18.764,18.764,0,0,1,18.764,18.762" transform="translate(-8168.393 3004.532)"/>
    <path id="Path_21156" data-name="Path 21156" d="M2228.795,418.252a3.2,3.2,0,1,0-3.179,2.861,2.954,2.954,0,0,0,3.179-2.861m-3.179,1.907a1.908,1.908,0,1,1,1.907-1.907,1.786,1.786,0,0,1-1.907,1.907" transform="translate(-8173.027 3002.646)" fill="#fff"/>
    <path id="Path_21157" data-name="Path 21157" d="M2227.8,428.7l-.256-2.437c-.223-2.193-1.558-3.5-3.5-3.5s-3.275,1.3-3.5,3.5h1.271c.159-1.494.986-2.384,2.226-2.384s2.066.89,2.225,2.384l.235,2.23q-.116,0-.235,0a5.011,5.011,0,0,0-4.045,1.907h-2.949l-1.624,4.767-1.714-.634-.477,1.209,2.956,1.081,0-.01.028.01,1.781-5.15h1.29a5.408,5.408,0,0,0-.337,1.907,5.087,5.087,0,1,0,6.615-4.876m-1.528,8.691a3.815,3.815,0,1,1,0-7.63c.125,0,.249.005.37.016l.266,2.528h1.271l-.231-2.2a3.84,3.84,0,0,1-1.676,7.283" transform="translate(-8171.461 3000.988)" fill="#fff"/>
    <path id="Path_21158" data-name="Path 21158" d="M2202.426,459.7a18.763,18.763,0,1,1-18.762-18.763,18.762,18.762,0,0,1,18.762,18.763" transform="translate(-8160.098 2996.905)"/>
    <path id="Path_21159" data-name="Path 21159" d="M2203.369,464.51l-2.065,1.548-2.065-1.548v1.29l2.065,1.55,2.065-1.55Zm0-1.033v-1.291l-2.065-1.548-2.065,1.548v1.291l2.065-1.549Z" transform="translate(-8167.814 2992.478)" fill="#fff"/>
    <path id="Path_21160" data-name="Path 21160" d="M2186.188,450.981h-8.261v20.652h15.489V450.981Zm-7.229,1.033h6.2V470.6h-6.2Zm7.229,0h6.2V470.6h-6.2Z" transform="translate(-8163.025 2994.648)" fill="#fff"/>
    <path id="Path_21161" data-name="Path 21161" d="M1919.97,226.673h-5.491v11.393h-1.857V225.051h7.348Z" transform="translate(-8103.401 3045.422)" fill="#fff"/>
    <path id="Path_21162" data-name="Path 21162" d="M1926.951,232.347h-3.381v1.486c0,3.967-.9,5.746-2.951,5.746h-.508V238h.234c1.173,0,1.6-1.309,1.6-4.359v-2.813h6.762v8.54h-1.759Z" transform="translate(-8105.085 3044.125)" fill="#fff"/>
    <path id="Path_21163" data-name="Path 21163" d="M1935.2,231.132a8.225,8.225,0,0,1,3.244-.586c2.111,0,3.459.918,3.459,2.619V239.3h-1.681v-.626a4.753,4.753,0,0,1-2.912.84c-1.935,0-3.283-1.016-3.283-2.755,0-1.661,1.427-2.755,3.616-2.755a5.143,5.143,0,0,1,2.579.605v-.468c0-1.388-.43-2.151-2.091-2.151a7.086,7.086,0,0,0-2.619.488Zm2.6,6.938c1.329,0,2.443-.508,2.443-1.368,0-.8-.938-1.368-2.286-1.368-1.231,0-2.052.488-2.052,1.368,0,.919.625,1.368,1.9,1.368" transform="translate(-8108.212 3044.187)" fill="#fff"/>
    <path id="Path_21164" data-name="Path 21164" d="M1947.969,230.823h3.734c2.091,0,3.127.9,3.127,2.15a1.721,1.721,0,0,1-1.564,1.758v.04c1.309.254,2.012,1.016,2.012,2.033,0,1.5-1.113,2.56-3.36,2.56h-3.949Zm1.761,3.5h1.758c1,0,1.485-.371,1.485-1.094s-.469-1.075-1.387-1.075h-1.856Zm0,3.714h1.973c1.016,0,1.72-.43,1.72-1.231,0-.938-.879-1.271-1.681-1.271h-2.012Z" transform="translate(-8111.345 3044.125)" fill="#fff"/>
    <path id="Path_21165" data-name="Path 21165" d="M1960.438,231.132a8.226,8.226,0,0,1,3.245-.586c2.111,0,3.459.918,3.459,2.619V239.3h-1.681v-.626a4.754,4.754,0,0,1-2.912.84c-1.935,0-3.283-1.016-3.283-2.755,0-1.661,1.427-2.755,3.616-2.755a5.144,5.144,0,0,1,2.579.605v-.468c0-1.388-.43-2.151-2.091-2.151a7.086,7.086,0,0,0-2.619.488Zm2.6,6.938c1.329,0,2.443-.508,2.443-1.368,0-.8-.938-1.368-2.286-1.368-1.231,0-2.052.488-2.052,1.368,0,.919.625,1.368,1.9,1.368" transform="translate(-8113.884 3044.187)" fill="#fff"/>
    <path id="Path_21166" data-name="Path 21166" d="M1986.08,236.424l-.782,1.564h-7.777l2.051-2.462,1.72-2.013c.411-.45.821-.957,1.251-1.5a12.756,12.756,0,0,0,.937-1.309,4.481,4.481,0,0,0,.684-2.13,2.049,2.049,0,0,0-2.032-2.306,4.534,4.534,0,0,0-2.561.9l-.743-1.31a5.714,5.714,0,0,1,3.459-1.152,3.609,3.609,0,0,1,2.795,1.054,3.412,3.412,0,0,1,1,2.463,6.541,6.541,0,0,1-1.25,3.576,37.614,37.614,0,0,1-3.85,4.632Z" transform="translate(-8117.986 3045.501)" fill="#fff"/>
    <rect id="Rectangle_2427" data-name="Rectangle 2427" width="2.462" height="2.462" transform="translate(-6129.306 3281.027)" fill="#fff"/>
    <path id="Path_21167" data-name="Path 21167" d="M1912.435,271.921V257.132h4.6c3.109,0,4.6,1.4,4.6,3.62a3.381,3.381,0,0,1-2.442,3.131v.09a3.628,3.628,0,0,1,3.175,3.686c0,2.6-1.665,4.263-5.062,4.263Zm3.152-9.038h1.022c1.132,0,1.732-.6,1.732-1.509s-.51-1.354-1.532-1.354h-1.222Zm0,6.151h1.644c1.154,0,1.843-.6,1.843-1.643,0-1.088-.733-1.843-2.087-1.843h-1.4Z" transform="translate(-8103.36 3038.212)" fill="#fff"/>
    <path id="Path_21168" data-name="Path 21168" d="M1931.433,262.332v1.421a4.8,4.8,0,0,1,3.641-1.665,4.671,4.671,0,0,1,3.8,1.621,5.967,5.967,0,0,1,1.377,3.975,5.826,5.826,0,0,1-1.421,3.93,4.7,4.7,0,0,1-3.753,1.665,4.54,4.54,0,0,1-3.641-1.665v5.463H1928.5V262.332Zm.866,7.438a2.877,2.877,0,0,0,2.109.844,2.761,2.761,0,0,0,2.775-2.93,3.221,3.221,0,0,0-.71-2.043,2.448,2.448,0,0,0-2.065-.888,2.952,2.952,0,0,0-2.109.844,2.864,2.864,0,0,0-.844,2.088,2.9,2.9,0,0,0,.844,2.086" transform="translate(-8106.97 3037.099)" fill="#fff"/>
    <path id="Path_21169" data-name="Path 21169" d="M1956.317,271.258a6.078,6.078,0,0,1-4.8,2.021,5.717,5.717,0,0,1-4.174-1.554,5.472,5.472,0,0,1-1.576-4.02,5.559,5.559,0,0,1,1.6-3.93,5.314,5.314,0,0,1,4.041-1.688c3.931,0,5.373,3.109,5.373,5.529a9.146,9.146,0,0,1-.067,1.154h-7.86a2.817,2.817,0,0,0,2.887,1.954,3.379,3.379,0,0,0,2.554-1Zm-2.73-4.707a2.139,2.139,0,0,0-2.2-1.909,2.481,2.481,0,0,0-2.6,1.909Z" transform="translate(-8110.852 3037.099)" fill="#fff"/>
    <path id="Path_21170" data-name="Path 21170" d="M1968.774,273.279l-2.842-4.841-1.332,4.6h-3.02l3.352-10.948h.378l3.708,6.284,3.685-6.284h.422l3.331,10.948h-3.042l-1.332-4.618-2.842,4.862Z" transform="translate(-8114.404 3037.099)" fill="#fff"/>
    <path id="Path_21171" data-name="Path 21171" d="M1988.615,269.6h-1.2l-2.243,3.508H1981.8l2.62-3.863a3.3,3.3,0,0,1-1.931-3.175,3.225,3.225,0,0,1,1.2-2.775,4.436,4.436,0,0,1,2.686-.888h5.174v10.7h-2.931Zm0-4.53h-1.776c-.777,0-1.288.333-1.288,1.021,0,.711.555,1.066,1.643,1.066h1.421Z" transform="translate(-8118.948 3037.028)" fill="#fff"/>
    <path id="Path_21172" data-name="Path 21172" d="M2007.871,265.067V273.1h-2.93V262.4h9.7v10.7h-2.931v-8.038Z" transform="translate(-8124.149 3037.028)" fill="#fff"/>
    <path id="Path_21173" data-name="Path 21173" d="M2030.866,271.258a6.078,6.078,0,0,1-4.8,2.021,5.717,5.717,0,0,1-4.174-1.554,5.472,5.472,0,0,1-1.576-4.02,5.559,5.559,0,0,1,1.6-3.93,5.315,5.315,0,0,1,4.042-1.688c3.93,0,5.373,3.109,5.373,5.529a9.146,9.146,0,0,1-.067,1.154h-7.861a2.817,2.817,0,0,0,2.887,1.954,3.38,3.38,0,0,0,2.554-1Zm-2.73-4.707a2.138,2.138,0,0,0-2.2-1.909,2.481,2.481,0,0,0-2.6,1.909Z" transform="translate(-8127.605 3037.099)" fill="#fff"/>
    <path id="Path_21174" data-name="Path 21174" d="M2040.377,262.332v1.421a4.8,4.8,0,0,1,3.641-1.665,4.672,4.672,0,0,1,3.8,1.621,5.967,5.967,0,0,1,1.377,3.975,5.826,5.826,0,0,1-1.421,3.93,4.7,4.7,0,0,1-3.753,1.665,4.54,4.54,0,0,1-3.641-1.665v5.463h-2.931V262.332Zm.866,7.438a2.877,2.877,0,0,0,2.109.844,2.761,2.761,0,0,0,2.775-2.93,3.22,3.22,0,0,0-.71-2.043,2.448,2.448,0,0,0-2.065-.888,2.952,2.952,0,0,0-2.109.844,2.864,2.864,0,0,0-.844,2.088,2.9,2.9,0,0,0,.844,2.086" transform="translate(-8131.454 3037.099)" fill="#fff"/>
    <path id="Path_21175" data-name="Path 21175" d="M2055.459,262.4h5c2.6,0,3.908.888,3.908,2.686a2.29,2.29,0,0,1-1.954,2.243v.067c1.643.333,2.464,1.176,2.464,2.486,0,1.888-1.4,3.22-4.218,3.22h-5.2Zm2.931,4.085h1.532c.91,0,1.376-.333,1.376-1,0-.532-.422-.865-1.132-.865h-1.776Zm0,4.4h1.62c1.2,0,1.8-.377,1.8-1.11q0-1.066-1.532-1.066h-1.887Z" transform="translate(-8135.502 3037.028)" fill="#fff"/>
    <path id="Path_21176" data-name="Path 21176" d="M2070.38,273.1V262.4h2.931v3.264h1.933c2.73,0,4.13,1.309,4.13,3.641,0,2.465-1.6,3.8-4.418,3.8Zm2.931-2.664h1.4c1.066,0,1.6-.378,1.6-1.111q0-1-1.4-1h-1.6Zm7.017-8.038h2.93v10.7h-2.93Z" transform="translate(-8138.855 3037.028)" fill="#fff"/>
    <path id="Path_21177" data-name="Path 21177" d="M2094.227,270.174l-1.755,2.931h-3.42l3.309-5.4-3.087-5.306h3.575l1.465,2.842,1.643-2.842h3.331l-3.153,5.329,3.375,5.373h-3.553Z" transform="translate(-8143.052 3037.028)" fill="#fff"/>
    <path id="Path_21178" data-name="Path 21178" d="M1921.495,749.734l22.965-22.965,25.216,24.747L1932.7,788.488" transform="translate(-8105.396 2932.669)" fill="#bcc2ce"/>
    <path id="Path_21179" data-name="Path 21179" d="M1932.9,788.6l-.548-.548,36.695-36.7-24.663-24.2-22.693,22.693-.549-.548,23.237-23.236,25.769,25.29Z" transform="translate(-8105.316 2932.827)" fill="#5c5c63"/>
    <rect id="Rectangle_2428" data-name="Rectangle 2428" width="34.006" height="15.518" transform="translate(-6238.383 3631.496) rotate(-45)" fill="#bcc2ce"/>
    <path id="Path_21180" data-name="Path 21180" d="M1879.249,658.987l11.373,11.372-23.063,23.325" transform="translate(-8093.274 2947.902)" fill="#bcc2ce"/>
    <path id="Path_21181" data-name="Path 21181" d="M1867.754,693.878l-.551-.545,22.792-23.052-11.1-11.1.548-.548,11.646,11.645Z" transform="translate(-8093.194 2947.981)" fill="#5c5c63"/>
    <line id="Line_2104" data-name="Line 2104" x1="56.731" y2="56.764" transform="translate(-6291.299 3627.559)" fill="#888b99"/>
    <rect id="Rectangle_2429" data-name="Rectangle 2429" width="80.253" height="0.775" transform="translate(-6291.58 3684.042) rotate(-45.002)" fill="#5c5c63"/>
    <line id="Line_2105" data-name="Line 2105" y1="24.905" x2="24.731" transform="translate(-6238.756 3606.889)" fill="#bcc2ce"/>
    <rect id="Rectangle_2430" data-name="Rectangle 2430" width="35.098" height="0.776" transform="matrix(0.705, -0.71, 0.71, 0.705, -6239.031, 3631.522)" fill="#5c5c63"/>
    <path id="Path_21182" data-name="Path 21182" d="M2683.371,341.133a18.763,18.763,0,1,1-18.762-18.762,18.763,18.763,0,0,1,18.762,18.762" transform="translate(-8268.183 3023.551)"/>
    <path id="Path_21183" data-name="Path 21183" d="M2673.126,335.492a3.2,3.2,0,1,0-3.18,2.861,2.953,2.953,0,0,0,3.18-2.861m-3.18,1.907a1.908,1.908,0,1,1,1.907-1.907,1.786,1.786,0,0,1-1.907,1.907" transform="translate(-8272.884 3021.245)" fill="#fff"/>
    <path id="Path_21184" data-name="Path 21184" d="M2672.133,345.944l-.257-2.437c-.222-2.193-1.558-3.5-3.5-3.5s-3.274,1.3-3.5,3.5h1.271c.159-1.494.985-2.384,2.225-2.384s2.067.89,2.226,2.384l.235,2.23c-.078,0-.156,0-.235,0a5.01,5.01,0,0,0-4.045,1.907h-2.949l-1.623,4.767-1.715-.634-.478,1.209,2.957,1.081,0-.01.028.01,1.78-5.15h1.291a5.413,5.413,0,0,0-.336,1.907,5.086,5.086,0,1,0,6.615-4.876m-1.528,8.691a3.815,3.815,0,0,1,0-7.63c.125,0,.249.005.37.016l.266,2.528h1.271l-.231-2.2a3.84,3.84,0,0,1-1.676,7.283" transform="translate(-8271.317 3019.587)" fill="#fff"/>
    <path id="Path_21185" data-name="Path 21185" d="M2683.456,394.071a18.763,18.763,0,1,1-18.763-18.762,18.763,18.763,0,0,1,18.763,18.762" transform="translate(-8268.201 3011.654)"/>
    <path id="Path_21186" data-name="Path 21186" d="M2659.84,392.582a2.912,2.912,0,0,1,3.006-3.006,2.975,2.975,0,0,1,3.006,3.006l.82,7.925h-1.094l-.82-7.925c-.137-1.284-.847-2.049-1.913-2.049a1.9,1.9,0,0,0-1.913,2.049c-.109,4.564-.356,6.394-1.093,7.269a1.711,1.711,0,0,1-1.394.656,1.364,1.364,0,0,1-.41-.081v-1.093l.219.054c.6,0,.984-.464,1.2-1.339a38.113,38.113,0,0,0,.383-5.466m3.552,7.925h1.093v4.919h1.64v1.093h-2.733Zm-1.093,0v6.012h-2.733v-1.093h1.64v-4.919Zm.547-11.75a1.64,1.64,0,1,1,1.64-1.64,1.535,1.535,0,0,1-1.64,1.64m0,.819a2.473,2.473,0,1,0-2.733-2.459,2.538,2.538,0,0,0,2.733,2.459" transform="translate(-8270.922 3009.553)" fill="#fff"/>
    <path id="Path_21187" data-name="Path 21187" d="M2676.063,401.474a3.3,3.3,0,0,0,1.366-2.548l.82-7.925h-1.093l-.82,7.925c-.136,1.284-.846,2.049-1.912,2.049s-1.776-.765-1.913-2.049L2671.69,391H2670.6l.82,7.925a3.3,3.3,0,0,0,1.366,2.548v5.377h-1.64v1.093h2.733V401.89a3.523,3.523,0,0,0,1.093,0v6.055h2.732v-1.093h-1.64Z" transform="translate(-8273.745 3008.127)" fill="#fff"/>
    <path id="Path_21188" data-name="Path 21188" d="M2674.74,384.657a2.473,2.473,0,1,0,2.733,2.459,2.538,2.538,0,0,0-2.733-2.459m0,4.1a1.64,1.64,0,1,1,1.64-1.64,1.535,1.535,0,0,1-1.64,1.64" transform="translate(-8274.062 3009.553)" fill="#fff"/>
    <path id="Path_21189" data-name="Path 21189" d="M2249.57,781.565a.775.775,0,1,1,.775.775.777.777,0,0,1-.775-.775m7.752,0a.775.775,0,0,1,1.551,0,.775.775,0,0,1-1.551,0m-3.876,0a.775.775,0,1,1,.775.775.778.778,0,0,1-.775-.775m11.629-.008a.775.775,0,1,1,.776.775.778.778,0,0,1-.776-.775m-3.876.008a.775.775,0,1,1,.775.768.768.768,0,0,1-.775-.768m7.753-.008a.775.775,0,1,1,.775.775.778.778,0,0,1-.775-.775m7.753,0a.775.775,0,1,1,.775.775.779.779,0,0,1-.775-.775m-3.876,0a.775.775,0,1,1,.775.775.773.773,0,0,1-.775-.775m11.629-.008a.775.775,0,1,1,.775.775.777.777,0,0,1-.775-.775m-3.876,0a.775.775,0,1,1,.775.775.778.778,0,0,1-.775-.775m11.629,0a.775.775,0,0,1,1.551,0,.775.775,0,1,1-1.551,0m-3.876,0a.775.775,0,1,1,.775.775.773.773,0,0,1-.775-.775m11.629-.008a.775.775,0,1,1,.775.775.778.778,0,0,1-.775-.775m-3.876.008a.775.775,0,1,1,.775.768.771.771,0,0,1-.775-.768m7.753-.008a.775.775,0,1,1,.775.775.778.778,0,0,1-.775-.775m7.753-.008a.775.775,0,0,1,1.551,0,.775.775,0,1,1-1.551,0m-3.876.008a.775.775,0,1,1,.776.775.778.778,0,0,1-.776-.775m11.629-.008a.775.775,0,1,1,.775.775.777.777,0,0,1-.775-.775m-3.876,0a.775.775,0,0,1,1.551,0,.775.775,0,0,1-1.551,0m7.753,0a.775.775,0,1,1,.775.775.777.777,0,0,1-.775-.775m7.753,0a.775.775,0,1,1,.775.775.779.779,0,0,1-.775-.775m-3.876,0a.775.775,0,1,1,.775.775.772.772,0,0,1-.775-.775m11.629-.008a.775.775,0,1,1,.775.775.778.778,0,0,1-.775-.775m-3.876,0a.775.775,0,1,1,.776.775.773.773,0,0,1-.776-.775m11.629,0a.775.775,0,1,1,1.55,0,.775.775,0,1,1-1.55,0m-3.876,0a.775.775,0,1,1,.775.775.778.778,0,0,1-.775-.775m11.629-.008a.775.775,0,1,1,.775.775.777.777,0,0,1-.775-.775m-3.876.008a.775.775,0,1,1,.775.768.773.773,0,0,1-.775-.768m7.753-.008a.775.775,0,1,1,.775.775.778.778,0,0,1-.775-.775m7.753,0a.775.775,0,1,1,.775.775.773.773,0,0,1-.775-.775m-3.876,0a.775.775,0,1,1,1.55,0,.775.775,0,1,1-1.55,0m11.629-.008a.775.775,0,1,1,.775.775.778.778,0,0,1-.775-.775m-3.876,0a.775.775,0,1,1,.775.775.771.771,0,0,1-.775-.775m7.753,0a.775.775,0,1,1,.775.775.778.778,0,0,1-.775-.775" transform="translate(-8179.125 2920.541)" fill="#5c5c63"/>
    <path id="Path_21190" data-name="Path 21190" d="M2419.18,824.15a.775.775,0,1,1,.775.775.777.777,0,0,1-.775-.775m0-3.876a.775.775,0,1,1,.775.775.777.777,0,0,1-.775-.775m0-3.876a.775.775,0,1,1,.775.775.777.777,0,0,1-.775-.775m0-3.876a.775.775,0,1,1,.775.775.777.777,0,0,1-.775-.775m0-3.876a.775.775,0,1,1,.775.775.771.771,0,0,1-.775-.775m0-3.876a.775.775,0,1,1,.775.775.777.777,0,0,1-.775-.775m0-3.876a.775.775,0,1,1,.775.775.777.777,0,0,1-.775-.775m0-3.876a.775.775,0,1,1,.775.775.777.777,0,0,1-.775-.775m0-3.876a.775.775,0,1,1,.775.775.777.777,0,0,1-.775-.775m0-3.876a.775.775,0,1,1,.775.775.777.777,0,0,1-.775-.775m0-3.876a.775.775,0,1,1,.775.775.771.771,0,0,1-.775-.775m0-3.876a.775.775,0,1,1,.775.775.771.771,0,0,1-.775-.775" transform="translate(-8217.242 2920.541)" fill="#5c5c63"/>
    <line id="Line_2106" data-name="Line 2106" x1="127.893" y2="128.549" transform="translate(-5782.831 3603.87)" fill="#c3c5c9"/>
    <rect id="Rectangle_2431" data-name="Rectangle 2431" width="181.333" height="0.775" transform="matrix(0.705, -0.709, 0.709, 0.705, -5783.077, 3732.175)" fill="#5c5c63"/>
    <line id="Line_2107" data-name="Line 2107" x1="5.654" y2="5.613" transform="translate(-5644.245 3587.251)" fill="#c3c5c9"/>
    <rect id="Rectangle_2432" data-name="Rectangle 2432" width="7.967" height="0.775" transform="translate(-5644.515 3592.592) rotate(-44.842)" fill="#5c5c63"/>
    <path id="Path_21191" data-name="Path 21191" d="M1835.735,594.989v4.517h-1.341v-9.4h1.341v3.713h5.222v-3.713h1.34v9.4h-1.34v-4.517Z" transform="translate(-8085.821 2963.382)" fill="#fff"/>
    <path id="Path_21192" data-name="Path 21192" d="M1847.733,594.5a5.925,5.925,0,0,1,2.343-.424c1.523,0,2.5.664,2.5,1.892V600.4h-1.213v-.451a3.436,3.436,0,0,1-2.1.606c-1.4,0-2.371-.733-2.371-1.99,0-1.2,1.03-1.989,2.611-1.989a3.714,3.714,0,0,1,1.863.437v-.339c0-1-.311-1.552-1.51-1.552a5.116,5.116,0,0,0-1.892.353Zm1.877,5.011c.959,0,1.764-.368,1.764-.989,0-.578-.678-.988-1.651-.988-.889,0-1.482.353-1.482.988,0,.663.451.989,1.369.989" transform="translate(-8088.628 2962.49)" fill="#fff"/>
    <path id="Path_21193" data-name="Path 21193" d="M1860.558,594.276h1.27v6.167h-1.27v-2.5a4.545,4.545,0,0,1-1.891.4,1.946,1.946,0,0,1-2.2-2.2v-1.862h1.269v1.552c0,1.058.481,1.411,1.271,1.411a2.777,2.777,0,0,0,1.553-.381Z" transform="translate(-8090.781 2962.445)" fill="#fff"/>
    <path id="Path_21194" data-name="Path 21194" d="M1866.271,594.5a5.924,5.924,0,0,1,2.343-.424c1.523,0,2.5.664,2.5,1.892V600.4H1869.9v-.451a3.436,3.436,0,0,1-2.1.606c-1.4,0-2.372-.733-2.372-1.99,0-1.2,1.03-1.989,2.611-1.989a3.715,3.715,0,0,1,1.863.437v-.339c0-1-.311-1.552-1.51-1.552a5.116,5.116,0,0,0-1.892.353Zm1.877,5.011c.959,0,1.764-.368,1.764-.989,0-.578-.678-.988-1.651-.988-.889,0-1.482.353-1.482.988,0,.663.451.989,1.369.989" transform="translate(-8092.794 2962.49)" fill="#fff"/>
    <path id="Path_21195" data-name="Path 21195" d="M1879.485,595.377h-2.441v1.072c0,2.865-.649,4.148-2.131,4.148h-.367v-1.143h.169c.846,0,1.157-.945,1.157-3.147v-2.032h4.883v6.167h-1.271Z" transform="translate(-8094.845 2962.445)" fill="#fff"/>
    <path id="Path_21196" data-name="Path 21196" d="M1885.748,595.048a3.407,3.407,0,0,1,2.554-.974,3.5,3.5,0,0,1,2.512.918,3.3,3.3,0,0,1,0,4.685,3.623,3.623,0,0,1-2.512.875,3.4,3.4,0,0,1-2.554-.945,3.256,3.256,0,0,1,0-4.559m2.554,4.4a2.138,2.138,0,1,0-2.131-2.13,2.007,2.007,0,0,0,2.131,2.13" transform="translate(-8097.153 2962.49)" fill="#fff"/>
    <path id="Path_21197" data-name="Path 21197" d="M1888.195,617.371l-15.536-.687.754,15.533,1-1-.6-12.653L1887.1,631.8l.737-.74-13.293-13.236,12.656.547Z" transform="translate(-8094.42 2957.409)" fill="#fff"/>
    <path id="Path_21198" data-name="Path 21198" d="M2322.616,119.429v-9.4h2.583c2.187,0,3.273.79,3.273,2.385a2.017,2.017,0,0,1-.437,1.241,1.978,1.978,0,0,1-1.1.764v.041a2.231,2.231,0,0,1,2,2.2c0,1.681-1.116,2.767-3.247,2.767Zm1.34-5.433h1.4q1.693,0,1.693-1.44c0-.833-.564-1.354-1.764-1.354h-1.327Zm0,4.262h1.538c1.341,0,2.019-.523,2.019-1.581,0-.947-.635-1.509-1.976-1.509h-1.581Z" transform="translate(-8195.541 3071.271)" fill="#fff"/>
    <path id="Path_21199" data-name="Path 21199" d="M2334.448,114.2v2.2h1.651a2.473,2.473,0,0,1,1.778.578,1.814,1.814,0,0,1,.592,1.341,2.071,2.071,0,0,1-.451,1.3,2.515,2.515,0,0,1-2.074.748h-2.766V114.2Zm0,5.124h1.481c.9,0,1.2-.466,1.2-.988a.719.719,0,0,0-.254-.578,1.268,1.268,0,0,0-.946-.311h-1.481Zm5.235-5.124h1.271v6.167h-1.271Z" transform="translate(-8197.915 3070.335)" fill="#fff"/>
    <path id="Path_21200" data-name="Path 21200" d="M2347.8,118.094l-1.637,2.272h-1.383l2.272-3.12-2.188-3.048h1.5l1.51,2.145,1.552-2.145h1.426l-2.244,2.978,2.344,3.189h-1.525Z" transform="translate(-8200.521 3070.335)" fill="#fff"/>
    <path id="Path_21201" data-name="Path 21201" d="M2354.466,114.972a3.4,3.4,0,0,1,2.554-.974,3.5,3.5,0,0,1,2.512.918,3.3,3.3,0,0,1,0,4.685,3.63,3.63,0,0,1-2.512.875,3.393,3.393,0,0,1-2.554-.947,3.254,3.254,0,0,1,0-4.558m2.554,4.4a2.138,2.138,0,1,0-2.131-2.132,2.008,2.008,0,0,0,2.131,2.132" transform="translate(-8202.49 3070.38)" fill="#fff"/>
    <path id="Path_21202" data-name="Path 21202" d="M2364.93,122.229h-1.271v-2.965h.875c.579-.691.733-1.706.791-3.358V114.2h4.812v5.066h1.072v2.965h-1.27v-1.864h-5.01Zm3.938-2.965V115.3H2366.5v1a7.676,7.676,0,0,1-.578,2.963Z" transform="translate(-8204.766 3070.335)" fill="#fff"/>
    <path id="Path_21203" data-name="Path 21203" d="M2352.748,149.622l15.536.687-.754-15.533-1,1,.6,12.653-13.293-13.235-.737.74L2366.4,149.17l-12.656-.547Z" transform="translate(-8202.313 3065.71)" fill="#fff"/>
    <path id="Path_21204" data-name="Path 21204" d="M2199.791,627.27a11.768,11.768,0,1,1,.585,4.651,11.737,11.737,0,0,1-.585-4.651m-1.308-.1a13.118,13.118,0,1,0,14.053-12.11,13.118,13.118,0,0,0-14.053,12.11" transform="translate(-8167.636 2957.781)"/>
    <path id="Path_21205" data-name="Path 21205" d="M2219.08,630.814a5.247,5.247,0,1,1-4.844-5.621,5.14,5.14,0,0,1,4.844,5.621" transform="translate(-8169.918 2955.5)"/>
    <path id="Path_21206" data-name="Path 21206" d="M1851.075,243.313a16.8,16.8,0,1,1,.834,6.644,16.753,16.753,0,0,1-.834-6.644m-1.868-.139a18.739,18.739,0,1,0,20.075-17.3,18.739,18.739,0,0,0-20.075,17.3" transform="translate(-8089.139 3045.249)" fill="#fff"/>
    <path id="Path_21207" data-name="Path 21207" d="M1878.63,248.375a7.5,7.5,0,1,1-6.92-8.03,7.343,7.343,0,0,1,6.92,8.03" transform="translate(-8092.397 3041.99)" fill="#fff"/>
    <path id="Path_21208" data-name="Path 21208" d="M2207.222,566.366l-.548-.548,31.377-31.378-42.219-41.908-30.948,30.948,16.878,16.878-.548.548-17.427-17.426,32.042-32.043.274.272,43.046,42.729Z" transform="translate(-8159.847 2985.556)" fill="#5c5c63"/>
  </g>
</svg>
