<svg id="Atom_Logo" data-name="Atom Logo" xmlns="http://www.w3.org/2000/svg" width="195" height="50.473" viewBox="0 0 195 50.473">
  <path id="Path_2087" data-name="Path 2087" d="M218.816,0a25.236,25.236,0,1,0,25.236,25.236A25.236,25.236,0,0,0,218.816,0m0,41.015A15.779,15.779,0,1,1,234.6,25.237a15.779,15.779,0,0,1-15.779,15.779" transform="translate(-113.999 -0.001)" fill="#fff"/>
  <path id="Path_2088" data-name="Path 2088" d="M13.746,42.911l-2.982,6.546H0L22.474,0h1.018L46.475,49.457H34.91l-2.836-6.546H13.746Zm4.073-9.455H28L22.982,21.6,17.819,33.456Z" transform="translate(0 0)" fill="#fff"/>
  <path id="Path_2089" data-name="Path 2089" d="M117.553,50.916V11.933H107.007V2.478h31.419v9.455H127.881V50.916Z" transform="translate(-63.017 -1.459)" fill="#fff"/>
  <path id="Path_2090" data-name="Path 2090" d="M355.432,31.711,371.8,0h1.527L386.2,49.456H375.434l-6.546-24.51L355.8,49.456h-1.454L341.468,24.873l-6.546,24.583H324.667L337.541,0h1.527Z" transform="translate(-191.197)" fill="#fff"/>
  <path id="Path_2091" data-name="Path 2091" d="M250.414,56.835a6.277,6.277,0,1,1,0-8.878,6.278,6.278,0,0,1,0,8.878" transform="translate(-141.159 -27.16)" fill="#fff"/>
</svg>
