<svg id="Maps" xmlns="http://www.w3.org/2000/svg" width="66.479" height="58.479" viewBox="0 0 66.479 58.479">
  <g id="Group_164" data-name="Group 164">
    <path id="Path_2127" data-name="Path 2127" d="M0,584.973l30.748,17.738v-3.035l-25.487-14.7,1.626-.938-2.63-1.518Z" transform="translate(0 -544.232)" fill="#fff"/>
    <path id="Path_2128" data-name="Path 2128" d="M567.52,584.035l1.626.938-25.487,14.7v3.035l30.748-17.738-4.256-2.455Z" transform="translate(-507.928 -544.233)" fill="#fff"/>
    <path id="Path_2129" data-name="Path 2129" d="M0,468.311l2.389,1.378,28.359,16.36v-3.035l-25.487-14.7,1.626-.938-2.63-1.518Z" transform="translate(0 -435.238)" fill="#fff"/>
    <path id="Path_2130" data-name="Path 2130" d="M567.52,467.373l1.626.938-25.487,14.7v3.035l28.359-16.36,2.389-1.378-4.256-2.456Z" transform="translate(-507.928 -435.238)" fill="#fff"/>
    <path id="Path_2131" data-name="Path 2131" d="M0,351.649l2.389,1.378,28.359,16.36v-3.035l-25.487-14.7,1.626-.938-2.63-1.518Z" transform="translate(0 -326.244)" fill="#fff"/>
    <path id="Path_2132" data-name="Path 2132" d="M567.52,350.712l1.626.938-25.487,14.7v3.035l28.359-16.36,2.389-1.378-4.256-2.455Z" transform="translate(-507.928 -326.244)" fill="#fff"/>
    <path id="Path_2133" data-name="Path 2133" d="M30.747,0,17.511,7.636,0,17.738l2.389,1.378,28.359,16.36V32.441L5.261,17.738,18.825,9.913,30.747,3.035Z" transform="translate(0 0)" fill="#fff"/>
    <path id="Path_2134" data-name="Path 2134" d="M543.659,0V3.035l25.487,14.7-25.487,14.7v3.035l28.359-16.36,2.389-1.378Z" transform="translate(-507.928 0)" fill="#fff"/>
  </g>
</svg>
