<svg id="Media_Guide" data-name="Media Guide" xmlns="http://www.w3.org/2000/svg" width="55.326" height="51.952" viewBox="0 0 55.326 51.952">
  <path id="Path_286" data-name="Path 286" d="M18.6,17.974H1.646V.957H18.6ZM6.551,13.069H13.7V5.862H6.551Z" transform="translate(-1.125 -0.654)" fill="#fff"/>
  <path id="Path_287" data-name="Path 287" d="M18.6,123.682H1.646V106.665H18.6ZM6.551,118.777H13.7V111.57H6.551Z" transform="translate(-1.125 -72.9)" fill="#fff"/>
  <path id="Path_288" data-name="Path 288" d="M126.11,5.862h7.148v7.206H126.11Zm-4.905,12.112h16.958V.957H121.205Z" transform="translate(-82.838 -0.654)" fill="#fff"/>
  <path id="Path_289" data-name="Path 289" d="M60.588,0V8.978H54.28v13.8H46.906v4.905h12.28V13.884h6.308V0Z" transform="translate(-32.058 0)" fill="#fff"/>
  <path id="Path_290" data-name="Path 290" d="M120.3,79.879H109.179V74.361h-8.19V69.456h13.1v5.518H120.3Z" transform="translate(-69.021 -47.47)" fill="#fff"/>
  <path id="Path_291" data-name="Path 291" d="M82.332,111.2v5.036H73.07v11.716h4.905v-6.811h9.262V111.2Z" transform="translate(-49.94 -76)" fill="#fff"/>
  <path id="Path_292" data-name="Path 292" d="M148.995,137.194H137.476v-4.905h6.614v-6.022h4.905Z" transform="translate(-93.958 -86.297)" fill="#fff"/>
  <rect id="Rectangle_1457" data-name="Rectangle 1457" width="5.703" height="4.905" transform="translate(0 22.663)" fill="#fff"/>
</svg>
