<svg xmlns="http://www.w3.org/2000/svg" xmlns:xlink="http://www.w3.org/1999/xlink" width="61" height="61" viewBox="0 0 61 61">
  <defs>
    <clipPath id="clip-path">
      <rect id="Rectangle_2380" data-name="Rectangle 2380" width="61" height="61" transform="translate(0.226)" fill="#000"/>
    </clipPath>
  </defs>
  <g id="Group_396" data-name="Group 396" transform="translate(0.136 -0.145)">
    <g id="Group_395" data-name="Group 395" transform="translate(-0.362 0.145)" clip-path="url(#clip-path)">
      <path id="Path_20780" data-name="Path 20780" d="M21.324,21.324H39.6V12.185H21.324Zm3.046-6.093H36.556v3.046H24.371Zm36.556,3.046H42.648v3.046H60.926Zm-42.648,0H0v3.046H18.278ZM30.463,30.463A9.166,9.166,0,0,0,21.324,39.6V57.88H18.278V30.463H6.093V57.88H3.046V27.417H57.88V57.88H54.834V30.463H42.648V57.88H39.6V39.6a9.166,9.166,0,0,0-9.139-9.139m0,3.046A5.838,5.838,0,0,1,36.556,39.6V60.926h9.139V33.51h6.093V60.926h9.139V24.371H0V60.926H9.139V33.51h6.093V60.926h9.139V39.6a5.838,5.838,0,0,1,6.093-6.093M33.51,0H27.417V3.046H33.51Zm3.046,6.093H24.371V9.139H36.556Z" transform="translate(0.363 -0.064)" fill="#000"/>
    </g>
  </g>
</svg>
