<svg xmlns="http://www.w3.org/2000/svg" xmlns:xlink="http://www.w3.org/1999/xlink" width="412.836" height="613.426" viewBox="0 0 644.836 958.426">
  <defs>
    <clipPath id="clip-path">
      <rect id="Rectangle_2472" data-name="Rectangle 2472" width="644.836" height="750.62" fill="none"/>
    </clipPath>
    <clipPath id="clip-path-2">
      <rect id="Rectangle_2461" data-name="Rectangle 2461" width="644.836" height="750.619" fill="none"/>
    </clipPath>
    <clipPath id="clip-path-3">
      <rect id="Rectangle_2459" data-name="Rectangle 2459" width="54.695" height="13.597" fill="none"/>
    </clipPath>
    <clipPath id="clip-path-4">
      <rect id="Rectangle_2460" data-name="Rectangle 2460" width="62.184" height="13.604" fill="none"/>
    </clipPath>
    <clipPath id="clip-path-6">
      <rect id="Rectangle_2463" data-name="Rectangle 2463" width="37.189" height="10.739" fill="none"/>
    </clipPath>
    <clipPath id="clip-path-7">
      <rect id="Rectangle_2466" data-name="Rectangle 2466" width="111.974" height="24.608" fill="none"/>
    </clipPath>
    <clipPath id="clip-path-8">
      <rect id="Rectangle_2469" data-name="Rectangle 2469" width="109.296" height="70.127" fill="none"/>
    </clipPath>
    <clipPath id="clip-path-9">
      <rect id="Rectangle_2476" data-name="Rectangle 2476" width="495.386" height="231.472" fill="none"/>
    </clipPath>
    <clipPath id="clip-path-11">
      <rect id="Rectangle_2474" data-name="Rectangle 2474" width="63.791" height="53.922" fill="none"/>
    </clipPath>
    <clipPath id="clip-path-12">
      <rect id="Rectangle_2480" data-name="Rectangle 2480" width="495.386" height="230.667" fill="none"/>
    </clipPath>
    <clipPath id="clip-path-14">
      <rect id="Rectangle_2478" data-name="Rectangle 2478" width="62.702" height="52.834" fill="none"/>
    </clipPath>
    <clipPath id="clip-path-15">
      <rect id="Rectangle_2487" data-name="Rectangle 2487" width="495.386" height="231.454" fill="none"/>
    </clipPath>
    <clipPath id="clip-path-17">
      <rect id="Rectangle_2481" data-name="Rectangle 2481" width="259.478" height="222.297" fill="none"/>
    </clipPath>
    <clipPath id="clip-path-18">
      <rect id="Rectangle_2482" data-name="Rectangle 2482" width="253.638" height="125.688" fill="none"/>
    </clipPath>
    <clipPath id="clip-path-20">
      <rect id="Rectangle_2485" data-name="Rectangle 2485" width="48.716" height="51.747" fill="none"/>
    </clipPath>
    <clipPath id="clip-path-21">
      <rect id="Rectangle_2492" data-name="Rectangle 2492" width="495.386" height="231.417" fill="none"/>
    </clipPath>
    <clipPath id="clip-path-23">
      <rect id="Rectangle_2488" data-name="Rectangle 2488" width="495.386" height="222.236" fill="none"/>
    </clipPath>
    <clipPath id="clip-path-24">
      <rect id="Rectangle_2489" data-name="Rectangle 2489" width="495.386" height="125.754" fill="none"/>
    </clipPath>
    <clipPath id="clip-path-26">
      <rect id="Rectangle_2498" data-name="Rectangle 2498" width="495.386" height="230.998" fill="none"/>
    </clipPath>
    <clipPath id="clip-path-28">
      <rect id="Rectangle_2493" data-name="Rectangle 2493" width="241.811" height="222.236" fill="none"/>
    </clipPath>
    <clipPath id="clip-path-29">
      <rect id="Rectangle_2494" data-name="Rectangle 2494" width="31.855" height="53.922" fill="none"/>
    </clipPath>
    <clipPath id="clip-path-31">
      <rect id="Rectangle_2496" data-name="Rectangle 2496" width="241.811" height="121.779" fill="none"/>
    </clipPath>
  </defs>
  <g id="Group_578" data-name="Group 578" transform="translate(-37.582 -210.555)">
    <g id="text" transform="translate(37.582 278.873)">
      <g id="Group_515" data-name="Group 515" transform="translate(0 0)" clip-path="url(#clip-path)">
        <g id="Group_503" data-name="Group 503" transform="translate(0 0.001)">
          <g id="Group_502" data-name="Group 502" clip-path="url(#clip-path-2)">
            <g id="Group_498" data-name="Group 498" transform="translate(535.224 0.523)" opacity="0.62">
              <g id="Group_497" data-name="Group 497">
                <g id="Group_496" data-name="Group 496" clip-path="url(#clip-path-3)">
                  <path id="Path_21212" data-name="Path 21212" d="M809.536,11.092V2.07h-2.6V.786h6.671V2.07h-2.6v9.022Z" transform="translate(-806.936 -0.789)"/>
                  <path id="Path_21213" data-name="Path 21213" d="M823.653,11.567a3.843,3.843,0,0,1-3.22,1.408,3.774,3.774,0,0,1-2.816-1.053,3.627,3.627,0,0,1-1.021-2.6,3.165,3.165,0,0,1,1.1-2.46,3.762,3.762,0,0,1,2.6-.99,3.43,3.43,0,0,1,2.585.974,3.19,3.19,0,0,1,.943,2.306,2.531,2.531,0,0,1-.046.526h-5.819a2.154,2.154,0,0,0,.744,1.485,2.577,2.577,0,0,0,1.748.6,2.91,2.91,0,0,0,2.275-.944Zm-1.3-2.941a1.914,1.914,0,0,0-2-1.547,2.227,2.227,0,0,0-2.306,1.547Z" transform="translate(-810.189 -2.501)"/>
                  <path id="Path_21214" data-name="Path 21214" d="M831.5,16.1h-1.393V6.042H831.5V7.079a3.106,3.106,0,0,1,2.477-1.207,3.625,3.625,0,0,1,2.692,6.066,3.292,3.292,0,0,1-2.569,1.037,3.36,3.36,0,0,1-2.6-1.208Zm.635-5.014a2.344,2.344,0,0,0,1.733.681,2.157,2.157,0,0,0,2.26-2.336,2.508,2.508,0,0,0-.6-1.61,2.074,2.074,0,0,0-1.733-.743,2.3,2.3,0,0,0-2.321,2.353,2.255,2.255,0,0,0,.666,1.656" transform="translate(-814.738 -2.501)"/>
                  <path id="Path_21215" data-name="Path 21215" d="M845.407,16.1h-1.393V6.042h1.393V7.079a3.106,3.106,0,0,1,2.475-1.207,3.552,3.552,0,0,1,3.637,3.559,3.589,3.589,0,0,1-.943,2.507,3.292,3.292,0,0,1-2.569,1.037,3.358,3.358,0,0,1-2.6-1.208Zm.635-5.014a2.341,2.341,0,0,0,1.733.681,2.157,2.157,0,0,0,2.26-2.336,2.515,2.515,0,0,0-.6-1.61,2.077,2.077,0,0,0-1.733-.743,2.3,2.3,0,0,0-2.321,2.353,2.25,2.25,0,0,0,.666,1.656" transform="translate(-819.421 -2.501)"/>
                  <path id="Path_21216" data-name="Path 21216" d="M857.869,6.336a6.515,6.515,0,0,1,2.57-.464c1.671,0,2.738.727,2.738,2.073V12.8h-1.33v-.5a3.774,3.774,0,0,1-2.306.666c-1.533,0-2.6-.805-2.6-2.182,0-1.316,1.13-2.183,2.863-2.183a4.073,4.073,0,0,1,2.043.48V8.719c0-1.1-.341-1.7-1.656-1.7a5.607,5.607,0,0,0-2.073.387Zm2.059,5.494c1.052,0,1.934-.4,1.934-1.084,0-.634-.743-1.083-1.811-1.083-.974,0-1.625.387-1.625,1.083,0,.728.495,1.084,1.5,1.084" transform="translate(-823.773 -2.501)"/>
                  <path id="Path_21217" data-name="Path 21217" d="M869.861,11.922a3.452,3.452,0,0,1-1.021-2.491,3.571,3.571,0,0,1,3.806-3.559,3.89,3.89,0,0,1,2.662.99l-.789.959a2.823,2.823,0,0,0-1.873-.743,2.225,2.225,0,0,0-2.32,2.353,2.276,2.276,0,0,0,.68,1.7,2.484,2.484,0,0,0,1.717.634,2.921,2.921,0,0,0,1.919-.712l.744.913a3.845,3.845,0,0,1-2.724,1.006,3.736,3.736,0,0,1-2.8-1.053" transform="translate(-827.78 -2.501)"/>
                  <path id="Path_21218" data-name="Path 21218" d="M880.922,6.336a6.525,6.525,0,0,1,2.57-.464c1.671,0,2.739.727,2.739,2.073V12.8H884.9v-.5a3.774,3.774,0,0,1-2.306.666c-1.532,0-2.6-.805-2.6-2.182,0-1.316,1.13-2.183,2.862-2.183a4.07,4.07,0,0,1,2.043.48V8.719c0-1.1-.341-1.7-1.656-1.7a5.612,5.612,0,0,0-2.073.387Zm2.059,5.494c1.052,0,1.934-.4,1.934-1.084,0-.634-.742-1.083-1.81-1.083-.975,0-1.626.387-1.626,1.083,0,.728.5,1.084,1.5,1.084" transform="translate(-831.537 -2.501)"/>
                </g>
              </g>
            </g>
            <g id="Group_501" data-name="Group 501" transform="translate(0.979 0.828)" opacity="0.62">
              <g id="Group_500" data-name="Group 500">
                <g id="Group_499" data-name="Group 499" clip-path="url(#clip-path-4)">
                  <path id="Path_21219" data-name="Path 21219" d="M2.946,7.609v3.946H1.476V1.249H4.71a3.7,3.7,0,0,1,2.631.881,2.872,2.872,0,0,1,.959,2.2c0,2.027-1.222,3.281-3.76,3.281Zm0-1.285H4.385c1.563,0,2.352-.619,2.352-1.872,0-1.284-.758-1.919-2.274-1.919H2.946Z" transform="translate(-1.476 -1.25)"/>
                  <path id="Path_21220" data-name="Path 21220" d="M19.569,12.029a3.843,3.843,0,0,1-3.22,1.408,3.769,3.769,0,0,1-2.816-1.053,3.622,3.622,0,0,1-1.021-2.6,3.166,3.166,0,0,1,1.1-2.461,3.764,3.764,0,0,1,2.6-.99,3.43,3.43,0,0,1,2.585.975,3.19,3.19,0,0,1,.944,2.306,2.476,2.476,0,0,1-.046.526H13.874a2.154,2.154,0,0,0,.743,1.486,2.581,2.581,0,0,0,1.748.6,2.911,2.911,0,0,0,2.275-.944Zm-1.3-2.94a1.914,1.914,0,0,0-2-1.547,2.227,2.227,0,0,0-2.306,1.547Z" transform="translate(-5.192 -2.962)"/>
                  <path id="Path_21221" data-name="Path 21221" d="M26.414,12.384a3.45,3.45,0,0,1-1.021-2.491A3.572,3.572,0,0,1,29.2,6.334a3.893,3.893,0,0,1,2.662.991l-.79.958A2.824,2.824,0,0,0,29.2,7.542a2.225,2.225,0,0,0-2.321,2.351,2.272,2.272,0,0,0,.681,1.7,2.482,2.482,0,0,0,1.717.635,2.925,2.925,0,0,0,1.919-.712l.743.912a3.841,3.841,0,0,1-2.723,1.006,3.734,3.734,0,0,1-2.8-1.053" transform="translate(-9.53 -2.962)"/>
                  <path id="Path_21222" data-name="Path 21222" d="M38.426,13.354V7.8H36.384V6.592h5.478V7.8H39.82v5.555Z" transform="translate(-13.231 -3.049)"/>
                  <path id="Path_21223" data-name="Path 21223" d="M46.691,7.4a3.731,3.731,0,0,1,2.8-1.068,3.843,3.843,0,0,1,2.755,1.006,3.339,3.339,0,0,1,1.068,2.554,3.337,3.337,0,0,1-1.068,2.584,3.979,3.979,0,0,1-2.755.96,3.726,3.726,0,0,1-2.8-1.037,3.567,3.567,0,0,1,0-5m2.8,4.828a2.2,2.2,0,0,0,2.337-2.337,2.336,2.336,0,1,0-4.673,0,2.217,2.217,0,0,0,2.336,2.337" transform="translate(-16.357 -2.962)"/>
                  <path id="Path_21224" data-name="Path 21224" d="M61.249,16.563H59.856V6.505h1.393V7.542a3.1,3.1,0,0,1,2.476-1.207A3.625,3.625,0,0,1,66.418,12.4a3.292,3.292,0,0,1-2.569,1.037,3.361,3.361,0,0,1-2.6-1.207Zm.635-5.014a2.343,2.343,0,0,0,1.733.681,2.157,2.157,0,0,0,2.26-2.337,2.513,2.513,0,0,0-.6-1.61,2.077,2.077,0,0,0-1.733-.742,2.3,2.3,0,0,0-2.321,2.352,2.25,2.25,0,0,0,.666,1.656" transform="translate(-21.134 -2.962)"/>
                  <path id="Path_21225" data-name="Path 21225" d="M73.782,6.8a6.52,6.52,0,0,1,2.57-.464c1.671,0,2.739.727,2.739,2.073v4.859H77.76v-.5a3.77,3.77,0,0,1-2.306.666c-1.532,0-2.6-.805-2.6-2.182,0-1.315,1.13-2.182,2.863-2.182a4.065,4.065,0,0,1,2.043.48V9.182c0-1.1-.341-1.7-1.656-1.7a5.61,5.61,0,0,0-2.073.387Zm2.059,5.494c1.052,0,1.934-.4,1.934-1.083,0-.635-.743-1.084-1.81-1.084-.975,0-1.626.387-1.626,1.084,0,.727.5,1.083,1.5,1.083" transform="translate(-25.511 -2.962)"/>
                  <path id="Path_21226" data-name="Path 21226" d="M86.916,10.367v2.987H85.523V6.592h1.393V9.16h3.652V6.592h1.393v6.762H90.568V10.367Z" transform="translate(-29.777 -3.049)"/>
                </g>
              </g>
            </g>
          </g>
        </g>
        <path id="Path_21227" data-name="Path 21227" d="M778.072.786l-1.319,11.056,11.131.29-.661-.764-9.067-.245,10.159-8.785-.489-.566-10.159,8.786,1.066-9.007Z" transform="translate(-261.549 -0.265)"/>
        <path id="Path_21228" data-name="Path 21228" d="M118.329,0l-.661.764,1.065,9.007L108.575.988l-.49.566,10.159,8.785-9.066.245-.661.764,11.13-.29Z" transform="translate(-36.395 0)"/>
        <path id="Path_21229" data-name="Path 21229" d="M6.26,154.818l1.774,3.631H4.519Zm-5.4,7.975H2.563l1.425-2.968H8.581l1.425,2.968h1.709L6.276,151.52Z" transform="translate(-0.288 -51.02)"/>
        <path id="Path_21230" data-name="Path 21230" d="M19.218,164.838v-5.952H17.03v-1.293H22.9v1.293H20.711v5.952Z" transform="translate(-5.734 -53.065)"/>
        <g id="Group_514" data-name="Group 514" transform="translate(0 0.001)">
          <g id="Group_513" data-name="Group 513" clip-path="url(#clip-path-2)">
            <path id="Path_21231" data-name="Path 21231" d="M27.974,158.462a4,4,0,0,1,3-1.143,4.114,4.114,0,0,1,2.95,1.077,3.881,3.881,0,0,1,0,5.5,4.258,4.258,0,0,1-2.95,1.028,3.991,3.991,0,0,1-3-1.11,3.822,3.822,0,0,1,0-5.355m3,5.172a2.512,2.512,0,1,0-2.5-2.5,2.358,2.358,0,0,0,2.5,2.5" transform="translate(-9.051 -52.973)"/>
            <path id="Path_21232" data-name="Path 21232" d="M46.076,164.927l-2.669-4.26-1.16,4.078H40.7l2.222-7.427,3.15,5.123,3.133-5.123,2.172,7.427H49.888l-1.16-4.1Z" transform="translate(-13.706 -52.973)"/>
            <path id="Path_21233" data-name="Path 21233" d="M59.074,157.816a6.974,6.974,0,0,1,2.752-.5c1.79,0,2.934.779,2.934,2.221v5.205H63.335v-.531a4.037,4.037,0,0,1-2.47.713c-1.642,0-2.785-.862-2.785-2.337,0-1.409,1.21-2.337,3.067-2.337a4.367,4.367,0,0,1,2.188.513v-.4c0-1.177-.365-1.823-1.774-1.823a5.985,5.985,0,0,0-2.222.415Zm2.2,5.885c1.128,0,2.073-.43,2.073-1.16,0-.68-.8-1.161-1.94-1.161-1.044,0-1.74.415-1.74,1.161,0,.779.531,1.16,1.608,1.16" transform="translate(-19.557 -52.973)"/>
            <path id="Path_21234" data-name="Path 21234" d="M73.047,168.277H71.555V157.5h1.492v1.11a3.326,3.326,0,0,1,2.652-1.293,3.883,3.883,0,0,1,2.884,6.5,3.525,3.525,0,0,1-2.751,1.11,3.6,3.6,0,0,1-2.785-1.293Zm.68-5.371a2.509,2.509,0,0,0,1.857.73,2.311,2.311,0,0,0,2.42-2.5,2.69,2.69,0,0,0-.646-1.723,2.227,2.227,0,0,0-1.857-.8,2.533,2.533,0,0,0-1.774,4.294" transform="translate(-24.094 -52.973)"/>
            <path id="Path_21235" data-name="Path 21235" d="M91.4,160.253l-4.973,4.675V157.5h1.492v4.426l4.973-4.608v7.427H91.4Z" transform="translate(-29.103 -52.973)"/>
            <path id="Path_21236" data-name="Path 21236" d="M104.113,157.593h1.575l-4.89,10.76H99.306l1.79-3.962-3.117-6.8h1.658l1.674,3.813a6.41,6.41,0,0,1,.3.862l.265.8c.133-.448.332-1.011.6-1.674Z" transform="translate(-32.992 -53.066)"/>
            <path id="Path_21237" data-name="Path 21237" d="M115.5,164.927l-2.669-4.26-1.16,4.078h-1.543l2.222-7.427,3.15,5.123,3.133-5.123,2.172,7.427h-1.492l-1.16-4.1Z" transform="translate(-37.083 -52.973)"/>
            <path id="Path_21238" data-name="Path 21238" d="M9.56,177.246H5.234V178.9c0,3.663-.5,6.1-1.509,7.311a2.44,2.44,0,0,1-1.956.929,1.763,1.763,0,0,1-.564-.1v-1.525l.349.066c.812,0,1.409-.679,1.723-1.923a18.421,18.421,0,0,0,.432-4.559V175.87h7.427v11.041H9.56Z" transform="translate(-0.406 -59.22)"/>
            <path id="Path_21239" data-name="Path 21239" d="M19.975,181.816a6.974,6.974,0,0,1,2.752-.5c1.79,0,2.934.779,2.934,2.221v5.205H24.236v-.531a4.037,4.037,0,0,1-2.47.713c-1.642,0-2.785-.862-2.785-2.337,0-1.409,1.21-2.337,3.067-2.337a4.367,4.367,0,0,1,2.188.513v-.4c0-1.177-.365-1.823-1.774-1.823a5.985,5.985,0,0,0-2.222.415Zm2.2,5.885c1.128,0,2.073-.43,2.073-1.16,0-.68-.8-1.161-1.94-1.161-1.044,0-1.74.415-1.74,1.161,0,.779.531,1.16,1.608,1.16" transform="translate(-6.391 -61.055)"/>
            <path id="Path_21240" data-name="Path 21240" d="M38.693,176.345a2.779,2.779,0,0,1-1.923.762c-2.271.249-3.4,1.542-3.465,4a3.637,3.637,0,0,1,3.017-1.74,3.424,3.424,0,0,1,2.67,1.044,3.782,3.782,0,0,1,.945,2.636,3.575,3.575,0,0,1-1.078,2.619,3.863,3.863,0,0,1-2.851,1.061,3.735,3.735,0,0,1-3.084-1.309A5.346,5.346,0,0,1,31.88,182c0-4.045,1.591-5.951,4.792-6.332a2.957,2.957,0,0,0,2.006-.9Zm-4.658,8.206a2.257,2.257,0,0,0,1.89.878,2.36,2.36,0,0,0,1.74-.679,2.406,2.406,0,0,0,.68-1.725,2.343,2.343,0,0,0-.647-1.658,2.2,2.2,0,0,0-1.757-.713,2.546,2.546,0,0,0-2.471,1.857,2.87,2.87,0,0,0,.564,2.04" transform="translate(-10.735 -58.849)"/>
            <path id="Path_21241" data-name="Path 21241" d="M47.123,182.462a4,4,0,0,1,3-1.143,4.114,4.114,0,0,1,2.95,1.077,3.881,3.881,0,0,1,0,5.5,4.258,4.258,0,0,1-2.95,1.028,3.991,3.991,0,0,1-3-1.11,3.822,3.822,0,0,1,0-5.355m3,5.172a2.512,2.512,0,1,0-2.5-2.5,2.358,2.358,0,0,0,2.5,2.5" transform="translate(-15.499 -61.055)"/>
            <path id="Path_21242" data-name="Path 21242" d="M62.622,192.277H61.13V181.5h1.492v1.11a3.327,3.327,0,0,1,2.652-1.293,3.884,3.884,0,0,1,2.885,6.5,3.528,3.528,0,0,1-2.752,1.11,3.6,3.6,0,0,1-2.785-1.293Zm.68-5.371a2.51,2.51,0,0,0,1.857.73,2.311,2.311,0,0,0,2.42-2.5,2.69,2.69,0,0,0-.646-1.723,2.227,2.227,0,0,0-1.857-.8,2.533,2.533,0,0,0-1.774,4.294" transform="translate(-20.584 -61.055)"/>
            <path id="Path_21243" data-name="Path 21243" d="M75.949,181.816a6.974,6.974,0,0,1,2.752-.5c1.79,0,2.934.779,2.934,2.221v5.205H80.21v-.531a4.037,4.037,0,0,1-2.47.713c-1.642,0-2.785-.862-2.785-2.337,0-1.409,1.21-2.337,3.067-2.337a4.367,4.367,0,0,1,2.188.513v-.4c0-1.177-.365-1.823-1.774-1.823a5.985,5.985,0,0,0-2.222.415Zm2.2,5.885c1.128,0,2.073-.43,2.073-1.16,0-.68-.8-1.161-1.94-1.161-1.044,0-1.74.415-1.74,1.161,0,.779.531,1.16,1.608,1.16" transform="translate(-25.239 -61.055)"/>
            <path id="Path_21244" data-name="Path 21244" d="M89.318,188.838v-5.952H87.13v-1.293H93v1.293H90.81v5.952Z" transform="translate(-29.338 -61.147)"/>
            <path id="Path_21245" data-name="Path 21245" d="M98.073,182.462a4,4,0,0,1,3-1.143,4.114,4.114,0,0,1,2.95,1.077,3.881,3.881,0,0,1,0,5.5,4.258,4.258,0,0,1-2.95,1.028,3.991,3.991,0,0,1-3-1.11,3.822,3.822,0,0,1,0-5.355m3,5.172a2.512,2.512,0,1,0-2.5-2.5,2.358,2.358,0,0,0,2.5,2.5" transform="translate(-32.655 -61.055)"/>
            <path id="Path_21246" data-name="Path 21246" d="M113.571,192.277h-1.492V181.5h1.492v1.11a3.327,3.327,0,0,1,2.652-1.293,3.884,3.884,0,0,1,2.885,6.5,3.528,3.528,0,0,1-2.752,1.11,3.6,3.6,0,0,1-2.785-1.293Zm.681-5.371a2.507,2.507,0,0,0,1.856.73,2.311,2.311,0,0,0,2.42-2.5,2.69,2.69,0,0,0-.646-1.723,2.227,2.227,0,0,0-1.857-.8,2.532,2.532,0,0,0-1.773,4.294" transform="translate(-37.739 -61.055)"/>
            <path id="Path_21247" data-name="Path 21247" d="M131.927,184.253l-4.973,4.675V181.5h1.492v4.426l4.973-4.608v7.427h-1.492Z" transform="translate(-42.748 -61.054)"/>
            <path id="Path_21248" data-name="Path 21248" d="M145.312,181.593v7.245H143.82v-2.785h-1.094l-1.857,2.785h-1.841l2.089-2.918a2.175,2.175,0,0,1-.945-3.664,3.008,3.008,0,0,1,2.188-.663Zm-1.492,1.227h-1.475q-1.244,0-1.244,1.045c0,.746.481,1.11,1.443,1.11h1.276Z" transform="translate(-46.814 -61.147)"/>
            <path id="Path_21249" data-name="Path 21249" d="M166.813,176.009l1.319,11.056-11.131.29.661-.764,9.067-.245-10.159-8.785.489-.566,10.159,8.786-1.066-9.007Z" transform="translate(-52.72 -59.267)"/>
            <path id="Path_21250" data-name="Path 21250" d="M8.747,448.843H5.134v8.885H2.779v-11.04H8.747Z" transform="translate(-0.936 -150.41)"/>
            <path id="Path_21251" data-name="Path 21251" d="M15.5,453.275H13.378v1.112c0,3.381-.978,5.071-2.951,5.071a1.894,1.894,0,0,1-.647-.1V457.42a1.958,1.958,0,0,0,.564-.05c.746-.282.962-1.443.962-3.5v-2.586h6.382v7.991H15.5Z" transform="translate(-3.293 -151.958)"/>
            <path id="Path_21252" data-name="Path 21252" d="M24.848,451.442a6.528,6.528,0,0,1,2.3-.43c2.4,0,3.614,1.093,3.614,3.265v4.908H28.677v-.7a2.985,2.985,0,0,1-2.254.878,2.674,2.674,0,0,1-2.918-2.751,2.761,2.761,0,0,1,.8-2.039,2.85,2.85,0,0,1,2.122-.812,3.5,3.5,0,0,1,2.254.762c.017-1.144-.73-1.774-1.94-1.774a5.293,5.293,0,0,0-1.889.348Zm3.829,5.14c0-.647-.63-1.078-1.559-1.078-.862,0-1.425.365-1.425,1.045,0,.647.513,1.061,1.36,1.061.978,0,1.624-.381,1.624-1.028" transform="translate(-7.915 -151.866)"/>
            <path id="Path_21253" data-name="Path 21253" d="M37.2,451.286h3.73c1.94,0,2.918.663,2.918,2.006a1.709,1.709,0,0,1-1.46,1.673v.05c1.227.249,1.841.878,1.841,1.857,0,1.409-1.044,2.4-3.15,2.4H37.2Zm2.189,3.05h1.144c.679,0,1.027-.249,1.027-.746,0-.4-.315-.647-.846-.647H39.393Zm0,3.283H40.6c.9,0,1.343-.283,1.343-.829q0-.8-1.144-.8H39.393Z" transform="translate(-12.527 -151.958)"/>
            <path id="Path_21254" data-name="Path 21254" d="M50.223,451.442a6.528,6.528,0,0,1,2.3-.43c2.4,0,3.614,1.093,3.614,3.265v4.908H54.052v-.7a2.985,2.985,0,0,1-2.254.878,2.674,2.674,0,0,1-2.918-2.751,2.761,2.761,0,0,1,.8-2.039,2.85,2.85,0,0,1,2.122-.812,3.5,3.5,0,0,1,2.254.762c.017-1.144-.73-1.774-1.94-1.774a5.293,5.293,0,0,0-1.889.348Zm3.829,5.14c0-.647-.63-1.078-1.559-1.078-.862,0-1.425.365-1.425,1.045,0,.647.513,1.061,1.36,1.061.978,0,1.624-.381,1.624-1.028" transform="translate(-16.459 -151.866)"/>
            <path id="Path_21255" data-name="Path 21255" d="M69.1,452.968v-2.122h.448c.216,0,1.84.165,1.84-1.177,0-.729-.646-1.144-1.624-1.144a4.26,4.26,0,0,0-1.807.314v-2.122a5.547,5.547,0,0,1,2.106-.381,3.744,3.744,0,0,1,2.9.995,2.6,2.6,0,0,1,.712,1.774,2.652,2.652,0,0,1-1.707,2.42v.05a2.559,2.559,0,0,1,1.906,2.686,3.413,3.413,0,0,1-1.094,2.5,4.249,4.249,0,0,1-3.1,1.078,7.113,7.113,0,0,1-2.4-.366l.348-2.155a5.819,5.819,0,0,0,1.807.332c1.443,0,2.155-.448,2.155-1.326,0-1.012-.712-1.36-1.956-1.36Z" transform="translate(-22.654 -150.292)"/>
            <rect id="Rectangle_2462" data-name="Rectangle 2462" width="2.354" height="2.355" transform="translate(52.617 304.964)"/>
            <path id="Path_21256" data-name="Path 21256" d="M11.7,480.45a5.521,5.521,0,0,1-3.846,1.393A5.812,5.812,0,0,1,3.381,480a6.048,6.048,0,0,1-1.475-3.929,5.454,5.454,0,0,1,1.69-4.078,5.9,5.9,0,0,1,4.294-1.658,5.143,5.143,0,0,1,3.631,1.21l-.862,1.094a4.29,4.29,0,0,0-2.8-.929A4.147,4.147,0,0,0,4.79,472.94a4.235,4.235,0,0,0-1.21,3.132,4.355,4.355,0,0,0,1.193,3.183,4.233,4.233,0,0,0,3.133,1.211,4.905,4.905,0,0,0,2.918-.978Z" transform="translate(-0.642 -158.373)"/>
            <path id="Path_21257" data-name="Path 21257" d="M19.549,477.28a4,4,0,0,1,3-1.143,4.114,4.114,0,0,1,2.95,1.077,3.881,3.881,0,0,1,0,5.5,4.261,4.261,0,0,1-2.95,1.027,3.989,3.989,0,0,1-3-1.11,3.822,3.822,0,0,1,0-5.355m3,5.172a2.511,2.511,0,0,0,0-5.022,2.511,2.511,0,0,0,0,5.022" transform="translate(-6.214 -160.326)"/>
            <path id="Path_21258" data-name="Path 21258" d="M33.555,476.41h3.166c1.774,0,2.652.763,2.652,1.824a1.46,1.46,0,0,1-1.326,1.492v.033c1.11.216,1.708.863,1.708,1.724,0,1.277-.945,2.172-2.851,2.172H33.555Zm1.492,2.968h1.492c.845,0,1.26-.315,1.26-.929s-.4-.911-1.177-.911H35.047Zm0,3.149h1.674c.862,0,1.459-.364,1.459-1.044,0-.8-.746-1.078-1.426-1.078H35.047Z" transform="translate(-11.299 -160.418)"/>
            <path id="Path_21259" data-name="Path 21259" d="M46.946,487.094H45.454V476.318h1.492v1.111a3.325,3.325,0,0,1,2.652-1.293,3.884,3.884,0,0,1,2.885,6.5,3.525,3.525,0,0,1-2.751,1.11,3.6,3.6,0,0,1-2.786-1.293Zm.681-5.371a2.508,2.508,0,0,0,1.857.73,2.31,2.31,0,0,0,2.42-2.5,2.69,2.69,0,0,0-.646-1.724,2.226,2.226,0,0,0-1.857-.8,2.532,2.532,0,0,0-1.774,4.293" transform="translate(-15.305 -160.326)"/>
            <path id="Path_21260" data-name="Path 21260" d="M67.139,482.237a4.119,4.119,0,0,1-3.449,1.508,4.037,4.037,0,0,1-3.017-1.127,3.878,3.878,0,0,1-1.094-2.785,3.39,3.39,0,0,1,1.177-2.636,4.034,4.034,0,0,1,2.785-1.061,3.672,3.672,0,0,1,2.769,1.045,3.419,3.419,0,0,1,1.011,2.47,2.581,2.581,0,0,1-.05.563H61.038a2.316,2.316,0,0,0,.8,1.592,2.765,2.765,0,0,0,1.873.646,3.12,3.12,0,0,0,2.437-1.011Zm-1.393-3.151a2.049,2.049,0,0,0-2.139-1.657,2.386,2.386,0,0,0-2.469,1.657Z" transform="translate(-20.061 -160.326)"/>
            <path id="Path_21261" data-name="Path 21261" d="M78.125,483.745l-2.669-4.26-1.16,4.078H72.753l2.222-7.427,3.15,5.123,3.133-5.123,2.172,7.427H81.938l-1.16-4.094Z" transform="translate(-24.498 -160.326)"/>
            <path id="Path_21262" data-name="Path 21262" d="M97.989,482.237a4.119,4.119,0,0,1-3.449,1.508,4.037,4.037,0,0,1-3.017-1.127,3.878,3.878,0,0,1-1.094-2.785,3.39,3.39,0,0,1,1.177-2.636,4.034,4.034,0,0,1,2.785-1.061,3.672,3.672,0,0,1,2.769,1.045,3.419,3.419,0,0,1,1.011,2.47,2.581,2.581,0,0,1-.05.563H91.888a2.316,2.316,0,0,0,.8,1.592,2.765,2.765,0,0,0,1.873.646,3.12,3.12,0,0,0,2.437-1.011ZM96.6,479.086a2.049,2.049,0,0,0-2.139-1.657,2.386,2.386,0,0,0-2.469,1.657Z" transform="translate(-30.449 -160.326)"/>
            <path id="Path_21263" data-name="Path 21263" d="M106.371,480.456v3.2h-1.492V476.41h1.492v2.753h3.912V476.41h1.492v7.245h-1.492v-3.2Z" transform="translate(-35.315 -160.418)"/>
            <path id="Path_21264" data-name="Path 21264" d="M120.27,480.456v3.2h-1.492V476.41h1.492v2.753h3.912V476.41h1.492v7.245h-1.492v-3.2Z" transform="translate(-39.995 -160.418)"/>
            <path id="Path_21265" data-name="Path 21265" d="M132.623,476.633a6.974,6.974,0,0,1,2.752-.5c1.79,0,2.934.779,2.934,2.221v5.205h-1.425v-.531a4.038,4.038,0,0,1-2.47.713c-1.642,0-2.785-.862-2.785-2.337,0-1.41,1.21-2.337,3.067-2.337a4.367,4.367,0,0,1,2.188.513v-.4c0-1.177-.365-1.823-1.774-1.823a6,6,0,0,0-2.222.415Zm2.2,5.885c1.128,0,2.073-.43,2.073-1.16,0-.679-.8-1.16-1.94-1.16-1.044,0-1.74.415-1.74,1.16,0,.779.531,1.16,1.608,1.16" transform="translate(-44.322 -160.326)"/>
            <path id="Path_21266" data-name="Path 21266" d="M150.211,476.41v7.245h-1.492V480.87h-1.094l-1.857,2.785h-1.841l2.089-2.918a2.175,2.175,0,0,1-.945-3.664,3.008,3.008,0,0,1,2.188-.663Zm-1.492,1.227h-1.475q-1.244,0-1.244,1.045c0,.746.481,1.111,1.443,1.111h1.276Z" transform="translate(-48.464 -160.418)"/>
            <path id="Path_21267" data-name="Path 21267" d="M2.4,500.633a6.969,6.969,0,0,1,2.751-.5c1.79,0,2.934.779,2.934,2.221v5.205H6.66v-.531a4.038,4.038,0,0,1-2.47.713c-1.642,0-2.785-.862-2.785-2.337,0-1.41,1.21-2.337,3.067-2.337a4.368,4.368,0,0,1,2.188.513v-.4c0-1.177-.365-1.823-1.774-1.823a6,6,0,0,0-2.221.415Zm2.2,5.885c1.128,0,2.073-.43,2.073-1.16,0-.679-.8-1.16-1.94-1.16-1.044,0-1.74.415-1.74,1.16,0,.779.531,1.16,1.608,1.16" transform="translate(-0.473 -168.407)"/>
            <path id="Path_21268" data-name="Path 21268" d="M15.768,507.655V501.7H13.58V500.41h5.869V501.7H17.26v5.952Z" transform="translate(-4.573 -168.499)"/>
            <path id="Path_21269" data-name="Path 21269" d="M24.524,501.28a4,4,0,0,1,3-1.143,4.114,4.114,0,0,1,2.95,1.077,3.882,3.882,0,0,1,0,5.5,4.259,4.259,0,0,1-2.95,1.027,3.987,3.987,0,0,1-3-1.11,3.822,3.822,0,0,1,0-5.355m3,5.172a2.511,2.511,0,0,0,0-5.022,2.511,2.511,0,0,0,0,5.022" transform="translate(-7.889 -168.407)"/>
            <path id="Path_21270" data-name="Path 21270" d="M42.625,507.745l-2.669-4.26-1.16,4.079H37.254l2.222-7.427,3.15,5.123,3.133-5.123,2.172,7.427H46.438l-1.16-4.094Z" transform="translate(-12.544 -168.407)"/>
            <path id="Path_21271" data-name="Path 21271" d="M57.171,504.456v3.2H55.68V500.41h1.492v2.753h3.912V500.41h1.492v7.245H61.083v-3.2Z" transform="translate(-18.749 -168.499)"/>
            <path id="Path_21272" data-name="Path 21272" d="M69.523,500.633a6.974,6.974,0,0,1,2.752-.5c1.79,0,2.934.779,2.934,2.221v5.205H73.784v-.531a4.034,4.034,0,0,1-2.469.713c-1.642,0-2.786-.862-2.786-2.337,0-1.41,1.21-2.337,3.067-2.337a4.368,4.368,0,0,1,2.188.513v-.4c0-1.177-.365-1.823-1.774-1.823a6,6,0,0,0-2.222.415Zm2.205,5.885c1.127,0,2.073-.43,2.073-1.16,0-.679-.8-1.16-1.941-1.16-1.043,0-1.74.415-1.74,1.16,0,.779.531,1.16,1.608,1.16" transform="translate(-23.075 -168.407)"/>
            <path id="Path_21273" data-name="Path 21273" d="M87.112,500.41v7.245H85.62V504.87H84.526l-1.857,2.785H80.829l2.089-2.918a2.175,2.175,0,0,1-.945-3.664,3.008,3.008,0,0,1,2.188-.663Zm-1.492,1.227H84.145q-1.244,0-1.244,1.045c0,.746.481,1.111,1.443,1.111H85.62Z" transform="translate(-27.217 -168.499)"/>
            <path id="Path_21274" data-name="Path 21274" d="M7.776,531.655V525.7H3.947v5.952H2.455V524.41H9.269v7.245Z" transform="translate(-0.827 -176.581)"/>
            <path id="Path_21275" data-name="Path 21275" d="M17.722,535.094H16.23V524.318h1.492v1.111a3.325,3.325,0,0,1,2.652-1.293,3.884,3.884,0,0,1,2.885,6.5,3.525,3.525,0,0,1-2.752,1.11,3.6,3.6,0,0,1-2.785-1.293Zm.68-5.371a2.509,2.509,0,0,0,1.857.73,2.311,2.311,0,0,0,2.42-2.5,2.69,2.69,0,0,0-.646-1.724,2.227,2.227,0,0,0-1.857-.8,2.532,2.532,0,0,0-1.774,4.293" transform="translate(-5.465 -176.488)"/>
            <path id="Path_21276" data-name="Path 21276" d="M31.448,525.281a4,4,0,0,1,3-1.143,4.114,4.114,0,0,1,2.95,1.077,3.882,3.882,0,0,1,0,5.5,4.261,4.261,0,0,1-2.95,1.027,3.989,3.989,0,0,1-3-1.11,3.822,3.822,0,0,1,0-5.355m3,5.172a2.511,2.511,0,1,0-2.5-2.5,2.357,2.357,0,0,0,2.5,2.5" transform="translate(-10.221 -176.489)"/>
            <path id="Path_21277" data-name="Path 21277" d="M49.55,531.745l-2.669-4.26-1.16,4.078H44.178l2.222-7.427,3.15,5.123,3.133-5.123,2.172,7.427H53.363l-1.16-4.094Z" transform="translate(-14.876 -176.488)"/>
            <path id="Path_21278" data-name="Path 21278" d="M64.1,524.41V527h1.939a2.9,2.9,0,0,1,2.089.679,2.13,2.13,0,0,1,.7,1.575,2.434,2.434,0,0,1-.531,1.525,2.955,2.955,0,0,1-2.437.879H62.6V524.41Zm0,6.019h1.741c1.061,0,1.409-.548,1.409-1.16a.846.846,0,0,0-.3-.681,1.489,1.489,0,0,0-1.11-.365H64.1Zm6.15-6.019h1.492v7.245H70.246Z" transform="translate(-21.08 -176.58)"/>
            <path id="Path_21279" data-name="Path 21279" d="M79.879,531.655V524.41h1.492v5.952h2.984V524.41h1.492v5.952h2.984V524.41h1.492v7.245Z" transform="translate(-26.897 -176.581)"/>
            <path id="Path_21280" data-name="Path 21280" d="M103.631,525.7h-2.868v1.26c0,3.366-.763,4.874-2.5,4.874h-.43V530.5h.2c.995,0,1.36-1.112,1.36-3.7v-2.387h5.735v7.245h-1.492Z" transform="translate(-32.941 -176.581)"/>
            <path id="Path_21281" data-name="Path 21281" d="M119.139,530.237a4.119,4.119,0,0,1-3.449,1.508,4.036,4.036,0,0,1-3.017-1.127,3.878,3.878,0,0,1-1.094-2.785,3.39,3.39,0,0,1,1.177-2.636,4.035,4.035,0,0,1,2.785-1.061,3.672,3.672,0,0,1,2.769,1.045,3.419,3.419,0,0,1,1.011,2.47,2.581,2.581,0,0,1-.05.563h-6.233a2.316,2.316,0,0,0,.8,1.592,2.765,2.765,0,0,0,1.873.646,3.119,3.119,0,0,0,2.437-1.011Zm-1.393-3.151a2.049,2.049,0,0,0-2.139-1.657,2.386,2.386,0,0,0-2.469,1.657Z" transform="translate(-37.571 -176.488)"/>
            <path id="Path_21282" data-name="Path 21282" d="M127.52,528.456v3.2h-1.492V524.41h1.492v2.753h3.912V524.41h1.492v7.245h-1.492v-3.2Z" transform="translate(-42.436 -176.58)"/>
            <path id="Path_21283" data-name="Path 21283" d="M141.42,528.456v3.2h-1.492V524.41h1.492v2.753h3.912V524.41h1.492v7.245h-1.492v-3.2Z" transform="translate(-47.117 -176.58)"/>
            <path id="Path_21284" data-name="Path 21284" d="M154.172,525.281a4,4,0,0,1,3-1.143,4.114,4.114,0,0,1,2.95,1.077,3.881,3.881,0,0,1,0,5.5,4.261,4.261,0,0,1-2.95,1.027,3.989,3.989,0,0,1-3-1.11,3.822,3.822,0,0,1,0-5.355m3,5.172a2.511,2.511,0,1,0-2.5-2.5,2.357,2.357,0,0,0,2.5,2.5" transform="translate(-51.545 -176.489)"/>
            <path id="Path_21285" data-name="Path 21285" d="M168.522,530.619a3.694,3.694,0,0,1-1.094-2.668,3.826,3.826,0,0,1,4.078-3.813,4.169,4.169,0,0,1,2.851,1.061l-.846,1.028a3.023,3.023,0,0,0-2.006-.8,2.384,2.384,0,0,0-2.487,2.52,2.435,2.435,0,0,0,.73,1.823,2.658,2.658,0,0,0,1.84.679,3.136,3.136,0,0,0,2.056-.762l.8.978a4.117,4.117,0,0,1-2.918,1.077,4,4,0,0,1-3-1.127" transform="translate(-56.376 -176.489)"/>
            <path id="Path_21286" data-name="Path 21286" d="M181.291,531.655V525.7H179.1V524.41h5.869V525.7h-2.188v5.952Z" transform="translate(-60.307 -176.581)"/>
            <path id="Path_21287" data-name="Path 21287" d="M191.644,524.411V527h1.94a2.891,2.891,0,0,1,2.072.68,2.105,2.105,0,0,1,.7,1.575,2.438,2.438,0,0,1-.531,1.524,2.919,2.919,0,0,1-2.421.879h-3.249v-7.245Zm0,6.018h1.725a2.116,2.116,0,0,0,.8-.166,1,1,0,0,0,.614-.994c0-.7-.464-1.045-1.409-1.045h-1.725Z" transform="translate(-64.028 -176.581)"/>
            <g id="Group_506" data-name="Group 506" transform="translate(534.877 367.104)" opacity="0.62">
              <g id="Group_505" data-name="Group 505">
                <g id="Group_504" data-name="Group 504" clip-path="url(#clip-path-6)">
                  <path id="Path_21288" data-name="Path 21288" d="M811.488,553.47h1.47v1.067a5.6,5.6,0,0,1,3.73,1.146,3.67,3.67,0,0,1,1.346,2.956,3.777,3.777,0,0,1-1.408,3.126,5.754,5.754,0,0,1-3.667,1.114v1.331h-1.47v-1.331c-3.667,0-5.075-2.089-5.075-4.117a3.691,3.691,0,0,1,1.439-3.141,5.837,5.837,0,0,1,3.636-1.083Zm0,2.352a4.133,4.133,0,0,0-2.491.743,2.487,2.487,0,0,0-1.021,2.151c0,1.795,1.159,2.878,3.512,2.878Zm1.47,5.772a3.86,3.86,0,0,0,2.538-.789,2.614,2.614,0,0,0,.976-2.12c0-1.687-1.116-2.863-3.513-2.863Z" transform="translate(-806.413 -553.47)"/>
                  <path id="Path_21289" data-name="Path 21289" d="M826.8,559.951a3.734,3.734,0,0,1,2.8-1.069,3.846,3.846,0,0,1,2.755,1.006,3.624,3.624,0,0,1,0,5.138,3.985,3.985,0,0,1-2.755.959,3.728,3.728,0,0,1-2.8-1.037,3.569,3.569,0,0,1,0-5m2.8,4.828a2.344,2.344,0,1,0-2.336-2.337,2.2,2.2,0,0,0,2.336,2.337" transform="translate(-812.934 -555.292)"/>
                  <path id="Path_21290" data-name="Path 21290" d="M844.539,560.066,839.9,564.43V557.5h1.392v4.132l4.642-4.3v6.933h-1.392Zm.929-5.8c0,1.254-.882,2.058-2.383,2.058-1.563,0-2.43-.8-2.43-2.058h1.315c0,.6.434.944,1.1.944s1.1-.324,1.1-.944Z" transform="translate(-817.688 -553.737)"/>
                  <path id="Path_21291" data-name="Path 21291" d="M858.643,564.578a3.842,3.842,0,0,1-3.22,1.407,3.774,3.774,0,0,1-2.816-1.052,3.626,3.626,0,0,1-1.021-2.6,3.167,3.167,0,0,1,1.1-2.461,3.764,3.764,0,0,1,2.6-.99,3.43,3.43,0,0,1,2.585.974,3.19,3.19,0,0,1,.943,2.305,2.538,2.538,0,0,1-.046.527h-5.819a2.157,2.157,0,0,0,.743,1.486,2.579,2.579,0,0,0,1.748.6,2.911,2.911,0,0,0,2.275-.943Zm-1.3-2.941a1.914,1.914,0,0,0-2-1.547,2.227,2.227,0,0,0-2.306,1.547Z" transform="translate(-821.624 -555.293)"/>
                </g>
              </g>
            </g>
            <path id="Path_21292" data-name="Path 21292" d="M777.806,552.078l-1.319,11.056,11.131.29-.661-.764-9.067-.245,10.159-8.785-.489-.566-10.16,8.786,1.066-9.007Z" transform="translate(-261.459 -185.897)"/>
            <path id="Path_21293" data-name="Path 21293" d="M218.4,518.227l1.319,11.056-11.131.29.661-.764,9.067-.245-10.159-8.785.49-.566L218.807,528l-1.066-9.007Z" transform="translate(-70.091 -174.498)"/>
            <path id="Path_21294" data-name="Path 21294" d="M806.475,693.574l-1.425,2.968h-1.707l5.42-11.273,5.439,11.273h-1.709l-1.425-2.968Zm.531-1.376h3.515l-1.775-3.631Z" transform="translate(-270.502 -230.745)"/>
            <path id="Path_21295" data-name="Path 21295" d="M826.119,692.635h-2.868v1.26c0,3.366-.763,4.874-2.5,4.874h-.43v-1.342h.2c.995,0,1.36-1.111,1.36-3.7v-2.387h5.735v7.245h-1.491Z" transform="translate(-276.218 -232.79)"/>
            <path id="Path_21296" data-name="Path 21296" d="M839.318,692.635H836.45v1.26c0,3.366-.762,4.874-2.5,4.874h-.431v-1.342h.2c.995,0,1.359-1.111,1.359-3.7v-2.387h5.736v7.245h-1.492Z" transform="translate(-280.662 -232.79)"/>
            <path id="Path_21297" data-name="Path 21297" d="M854.825,697.168a4.116,4.116,0,0,1-3.449,1.508,4.037,4.037,0,0,1-3.017-1.127,3.879,3.879,0,0,1-1.094-2.785,3.392,3.392,0,0,1,1.177-2.636,4.036,4.036,0,0,1,2.785-1.061A3.672,3.672,0,0,1,854,692.112a3.419,3.419,0,0,1,1.011,2.471,2.576,2.576,0,0,1-.05.563h-6.233a2.316,2.316,0,0,0,.8,1.592,2.77,2.77,0,0,0,1.873.646,3.118,3.118,0,0,0,2.437-1.011Zm-1.393-3.15a2.049,2.049,0,0,0-2.139-1.658,2.386,2.386,0,0,0-2.469,1.658Z" transform="translate(-285.292 -232.698)"/>
            <path id="Path_21298" data-name="Path 21298" d="M866.824,691.342v7.245h-1.492V695.8h-1.094l-1.857,2.785h-1.84l2.089-2.918a2.175,2.175,0,0,1-.945-3.664,3.007,3.007,0,0,1,2.188-.663Zm-1.492,1.227h-1.476q-1.244,0-1.244,1.045c0,.745.481,1.11,1.443,1.11h1.276Z" transform="translate(-289.762 -232.79)"/>
            <path id="Path_21299" data-name="Path 21299" d="M878.239,692.1a3.907,3.907,0,0,1,2.751-1.028c1.775,0,2.885.629,2.885,1.906a1.569,1.569,0,0,1-1.227,1.541v.051c1.11.231,1.675.812,1.675,1.757,0,1.393-1.161,2.354-3.349,2.354a4.135,4.135,0,0,1-2.885-.978l.713-.961a3.793,3.793,0,0,0,2.255.7c1.127,0,1.691-.381,1.691-1.128s-.614-1.11-1.824-1.11h-.679v-1.128h.679c.912,0,1.376-.3,1.376-.879s-.464-.879-1.408-.879a3.2,3.2,0,0,0-2.024.681Z" transform="translate(-295.671 -232.697)"/>
            <path id="Path_21300" data-name="Path 21300" d="M891.532,695.387v3.2H890.04v-7.245h1.492v2.753h3.912v-2.753h1.492v7.245h-1.492v-3.2Z" transform="translate(-299.695 -232.79)"/>
            <path id="Path_21301" data-name="Path 21301" d="M903.885,691.565a6.979,6.979,0,0,1,2.753-.5c1.79,0,2.934.779,2.934,2.221v5.205h-1.426v-.531a4.037,4.037,0,0,1-2.469.713c-1.642,0-2.785-.862-2.785-2.337,0-1.409,1.21-2.337,3.066-2.337a4.364,4.364,0,0,1,2.188.513v-.4c0-1.177-.364-1.823-1.774-1.823a5.984,5.984,0,0,0-2.222.415Zm2.2,5.885c1.128,0,2.073-.43,2.073-1.16,0-.68-.8-1.161-1.939-1.161-1.044,0-1.741.415-1.741,1.161,0,.779.531,1.16,1.608,1.16" transform="translate(-304.022 -232.698)"/>
            <path id="Path_21302" data-name="Path 21302" d="M917.857,695.387v3.2h-1.491v-7.245h1.491v2.753h3.912v-2.753h1.492v7.245h-1.492v-3.2Z" transform="translate(-308.559 -232.79)"/>
            <path id="Path_21303" data-name="Path 21303" d="M935.238,694l-4.973,4.675V691.25h1.492v4.426l4.973-4.608v7.427h-1.492Z" transform="translate(-313.239 -232.697)"/>
            <path id="Path_21304" data-name="Path 21304" d="M948.487,692.335l-4.973,4.675v-7.427h1.492v4.426l4.973-4.608v7.427h-1.492Zm.995-6.217c0,1.343-.944,2.2-2.554,2.2-1.673,0-2.6-.862-2.6-2.2h1.409c0,.647.464,1.011,1.176,1.011s1.177-.348,1.177-1.011Z" transform="translate(-317.701 -231.031)"/>
            <g id="Group_509" data-name="Group 509" transform="translate(532.862 475.297)" opacity="0.62">
              <g id="Group_508" data-name="Group 508">
                <g id="Group_507" data-name="Group 507" clip-path="url(#clip-path-7)">
                  <path id="Path_21305" data-name="Path 21305" d="M803.376,726.894V716.588h1.469v4.8l4.3-4.8h1.811l-4.488,4.9,5,5.4h-2l-4.627-5.107v5.107Z" transform="translate(-803.375 -716.588)"/>
                  <path id="Path_21306" data-name="Path 21306" d="M816.646,722.743a3.733,3.733,0,0,1,2.8-1.068,3.846,3.846,0,0,1,2.755,1.006,3.624,3.624,0,0,1,0,5.138,3.984,3.984,0,0,1-2.755.959,3.728,3.728,0,0,1-2.8-1.037,3.569,3.569,0,0,1,0-5m2.8,4.828a2.344,2.344,0,1,0-2.335-2.337,2.2,2.2,0,0,0,2.335,2.337" transform="translate(-807.5 -718.301)"/>
                  <path id="Path_21307" data-name="Path 21307" d="M831.133,725.707v2.987H829.74v-6.762h1.393V724.5h3.652v-2.569h1.393v6.762h-1.393v-2.987Z" transform="translate(-812.253 -718.387)"/>
                  <path id="Path_21308" data-name="Path 21308" d="M847.7,720.158a4.528,4.528,0,0,1,3.188,1.006,3.266,3.266,0,0,1,1.082,2.538,3.215,3.215,0,0,1-1.145,2.6,4.746,4.746,0,0,1-3.126.959v3.126h-1.393v-3.126l-.665-.031a3.732,3.732,0,0,1-2.693-1.1,3.526,3.526,0,0,1-.913-2.414,3.3,3.3,0,0,1,1.084-2.554,4.575,4.575,0,0,1,3.186-1.006v-2.987H847.7Zm-1.393,1.208c-1.794,0-2.754.866-2.754,2.352a2.191,2.191,0,0,0,2.2,2.306c.17.016.356.031.557.031Zm1.393,4.689c1.626,0,2.755-.789,2.755-2.353,0-1.594-1.083-2.336-2.755-2.336Z" transform="translate(-816.394 -716.784)"/>
                  <path id="Path_21309" data-name="Path 21309" d="M865.686,727.369a3.842,3.842,0,0,1-3.22,1.408,3.771,3.771,0,0,1-2.816-1.053,3.624,3.624,0,0,1-1.021-2.6,3.167,3.167,0,0,1,1.1-2.461,3.764,3.764,0,0,1,2.6-.99,3.432,3.432,0,0,1,2.585.974,3.192,3.192,0,0,1,.943,2.306,2.53,2.53,0,0,1-.046.526h-5.819a2.155,2.155,0,0,0,.744,1.486,2.579,2.579,0,0,0,1.748.6,2.91,2.91,0,0,0,2.275-.944Zm-1.3-2.94a1.914,1.914,0,0,0-2-1.547,2.227,2.227,0,0,0-2.306,1.547Z" transform="translate(-821.98 -718.301)"/>
                  <path id="Path_21310" data-name="Path 21310" d="M873.532,731.9h-1.393V721.844h1.393v1.037a3.1,3.1,0,0,1,2.475-1.207,3.552,3.552,0,0,1,3.637,3.559,3.589,3.589,0,0,1-.943,2.507,3.292,3.292,0,0,1-2.569,1.037,3.36,3.36,0,0,1-2.6-1.207Zm.635-5.014a2.341,2.341,0,0,0,1.733.681,2.158,2.158,0,0,0,2.26-2.337,2.517,2.517,0,0,0-.6-1.61,2.079,2.079,0,0,0-1.733-.742,2.363,2.363,0,0,0-1.656,4.008" transform="translate(-826.529 -718.301)"/>
                  <path id="Path_21311" data-name="Path 21311" d="M892.4,727.369a3.843,3.843,0,0,1-3.22,1.408,3.771,3.771,0,0,1-2.816-1.053,3.624,3.624,0,0,1-1.021-2.6,3.167,3.167,0,0,1,1.1-2.461,3.764,3.764,0,0,1,2.6-.99,3.433,3.433,0,0,1,2.585.974,3.192,3.192,0,0,1,.943,2.306,2.526,2.526,0,0,1-.046.526h-5.819a2.155,2.155,0,0,0,.744,1.486,2.579,2.579,0,0,0,1.748.6,2.91,2.91,0,0,0,2.275-.944Zm-1.3-2.94a1.914,1.914,0,0,0-2-1.547,2.227,2.227,0,0,0-2.306,1.547Z" transform="translate(-830.976 -718.301)"/>
                  <path id="Path_21312" data-name="Path 21312" d="M900.249,725.707v2.987h-1.393v-6.762h1.393V724.5H903.9v-2.569h1.392v6.762H903.9v-2.987Z" transform="translate(-835.525 -718.387)"/>
                  <path id="Path_21313" data-name="Path 21313" d="M918.228,727.486h1.161v3.25H918v-2.043h-6.144v-6.762h1.392v5.556h3.591v-5.556h1.393Z" transform="translate(-839.902 -718.387)"/>
                  <rect id="Rectangle_2464" data-name="Rectangle 2464" width="4.549" height="1.285" transform="translate(80.835 5.896)"/>
                  <path id="Path_21314" data-name="Path 21314" d="M934.532,722.633a3.654,3.654,0,0,1,2.569-.959c1.656,0,2.694.588,2.694,1.779a1.466,1.466,0,0,1-1.146,1.439v.047c1.037.217,1.563.758,1.563,1.64,0,1.3-1.083,2.2-3.126,2.2a3.859,3.859,0,0,1-2.692-.913l.665-.9a3.535,3.535,0,0,0,2.105.65c1.052,0,1.578-.356,1.578-1.052s-.573-1.037-1.7-1.037H936.4v-1.053h.633c.851,0,1.286-.279,1.286-.82s-.435-.82-1.315-.82a2.989,2.989,0,0,0-1.888.635Z" transform="translate(-847.492 -718.301)"/>
                  <path id="Path_21315" data-name="Path 21315" d="M945.517,722.139a6.512,6.512,0,0,1,2.57-.464c1.671,0,2.739.727,2.739,2.074v4.858h-1.331v-.495a3.773,3.773,0,0,1-2.306.665c-1.531,0-2.6-.8-2.6-2.182,0-1.315,1.13-2.182,2.862-2.182a4.07,4.07,0,0,1,2.043.48v-.371c0-1.1-.341-1.7-1.656-1.7a5.612,5.612,0,0,0-2.073.387Zm2.059,5.493c1.052,0,1.934-.4,1.934-1.083,0-.635-.742-1.084-1.81-1.084-.975,0-1.626.387-1.626,1.084,0,.728.5,1.083,1.5,1.083" transform="translate(-850.925 -718.301)"/>
                  <path id="Path_21316" data-name="Path 21316" d="M961.393,723.138h-2.678v1.175c0,3.142-.712,4.55-2.337,4.55h-.4V727.61h.185c.929,0,1.27-1.037,1.27-3.451v-2.228h5.355v6.762h-1.393Z" transform="translate(-854.759 -718.387)"/>
                  <rect id="Rectangle_2465" data-name="Rectangle 2465" width="1.951" height="1.949" transform="translate(110.023 8.357)"/>
                  <path id="Path_21317" data-name="Path 21317" d="M809.255,739.177h-4.411v2.863h1.981c2.105,0,3.529,1.083,3.529,2.987,0,2.12-1.208,3.172-3.606,3.172h-3.373V737.892h5.88Zm-4.411,7.737h1.7c1.564,0,2.244-.541,2.244-1.795a1.479,1.479,0,0,0-.742-1.455,2.061,2.061,0,0,0-.913-.294,3.721,3.721,0,0,0-.8-.046h-1.486Z" transform="translate(-803.375 -723.762)"/>
                  <path id="Path_21318" data-name="Path 21318" d="M816.25,743.443a6.512,6.512,0,0,1,2.57-.464c1.671,0,2.739.727,2.739,2.074v4.859h-1.331v-.495a3.774,3.774,0,0,1-2.306.665c-1.532,0-2.6-.8-2.6-2.182,0-1.315,1.13-2.182,2.862-2.182a4.07,4.07,0,0,1,2.043.48v-.371c0-1.1-.341-1.7-1.656-1.7a5.613,5.613,0,0,0-2.073.387Zm2.059,5.493c1.052,0,1.934-.4,1.934-1.083,0-.635-.742-1.084-1.81-1.084-.975,0-1.626.387-1.626,1.084,0,.728.5,1.083,1.5,1.083" transform="translate(-807.398 -725.474)"/>
                  <path id="Path_21319" data-name="Path 21319" d="M832.125,744.443h-2.678v1.175c0,3.142-.712,4.55-2.337,4.55h-.4v-1.254h.185c.929,0,1.27-1.037,1.27-3.451v-2.228h5.355V750h-1.393Z" transform="translate(-811.232 -725.561)"/>
                  <path id="Path_21320" data-name="Path 21320" d="M840.264,750v-6.762h1.393v3.048l2.863-3.048h1.594l-2.94,3.033,3.5,3.729h-1.764l-3.25-3.482V750Z" transform="translate(-815.796 -725.561)"/>
                  <path id="Path_21321" data-name="Path 21321" d="M851.2,744.047a3.734,3.734,0,0,1,2.8-1.069,3.846,3.846,0,0,1,2.755,1.006,3.624,3.624,0,0,1,0,5.138,3.985,3.985,0,0,1-2.755.959,3.728,3.728,0,0,1-2.8-1.037,3.569,3.569,0,0,1,0-5m2.8,4.828a2.344,2.344,0,1,0-2.335-2.337A2.2,2.2,0,0,0,854,748.875" transform="translate(-819.136 -725.474)"/>
                  <path id="Path_21322" data-name="Path 21322" d="M865.692,747.011V750H864.3v-6.762h1.393V745.8h3.652v-2.569h1.392V750h-1.392v-2.987Z" transform="translate(-823.889 -725.561)"/>
                </g>
              </g>
            </g>
            <path id="Path_21323" data-name="Path 21323" d="M777.806,736.481l-1.319,11.056,11.131.29-.661-.764-9.067-.245,10.159-8.785-.489-.566-10.16,8.786,1.066-9.007Z" transform="translate(-261.459 -247.989)"/>
            <path id="Path_21324" data-name="Path 21324" d="M6.577,883.2H2.963v8.885H.608v-11.04H6.577Z" transform="translate(-0.205 -296.667)"/>
            <path id="Path_21325" data-name="Path 21325" d="M13.328,887.634H11.207v1.111c0,3.381-.978,5.073-2.951,5.073a1.894,1.894,0,0,1-.647-.1v-1.94a1.981,1.981,0,0,0,.564-.05c.746-.282.962-1.443.962-3.5v-2.586h6.382v7.991H13.328Z" transform="translate(-2.562 -298.216)"/>
            <path id="Path_21326" data-name="Path 21326" d="M22.677,885.8a6.515,6.515,0,0,1,2.3-.431c2.4,0,3.614,1.094,3.614,3.265v4.907H26.506v-.7a2.985,2.985,0,0,1-2.254.879,2.675,2.675,0,0,1-2.918-2.752,2.762,2.762,0,0,1,.8-2.039,2.85,2.85,0,0,1,2.122-.813,3.5,3.5,0,0,1,2.254.762c.017-1.144-.73-1.773-1.94-1.773a5.291,5.291,0,0,0-1.889.348Zm3.829,5.139c0-.647-.63-1.078-1.559-1.078-.862,0-1.425.365-1.425,1.045,0,.647.513,1.061,1.36,1.061.978,0,1.624-.381,1.624-1.028" transform="translate(-7.184 -298.123)"/>
            <path id="Path_21327" data-name="Path 21327" d="M35.033,885.645h3.73c1.939,0,2.918.663,2.918,2.006a1.711,1.711,0,0,1-1.46,1.674v.05c1.227.249,1.841.878,1.841,1.857,0,1.409-1.044,2.4-3.15,2.4h-3.88Zm2.189,3.05h1.144c.679,0,1.027-.249,1.027-.745,0-.4-.315-.647-.846-.647H37.222Zm0,3.283h1.21c.9,0,1.343-.282,1.343-.829q0-.8-1.144-.8H37.222Z" transform="translate(-11.796 -298.216)"/>
            <path id="Path_21328" data-name="Path 21328" d="M48.052,885.8a6.515,6.515,0,0,1,2.3-.431c2.4,0,3.614,1.094,3.614,3.265v4.907H51.881v-.7a2.985,2.985,0,0,1-2.254.879,2.675,2.675,0,0,1-2.918-2.752,2.762,2.762,0,0,1,.8-2.039,2.85,2.85,0,0,1,2.122-.813,3.5,3.5,0,0,1,2.254.762c.017-1.144-.73-1.773-1.94-1.773a5.291,5.291,0,0,0-1.889.348Zm3.829,5.139c0-.647-.63-1.078-1.559-1.078-.862,0-1.425.365-1.425,1.045,0,.647.513,1.061,1.36,1.061.978,0,1.624-.381,1.624-1.028" transform="translate(-15.728 -298.123)"/>
            <path id="Path_21329" data-name="Path 21329" d="M71.878,889.98l-1.061,1.989H64.634v-.448l2.321-2.984c1.243-1.591,1.873-2.769,1.873-4.012,0-1.045-.7-1.641-1.939-1.641a3.657,3.657,0,0,0-1.608.332v-2.139a6.237,6.237,0,0,1,2.072-.381c2.868,0,3.763,1.956,3.763,3.382,0,1.607-.945,3.58-2.851,5.9Z" transform="translate(-21.764 -296.55)"/>
            <rect id="Rectangle_2467" data-name="Rectangle 2467" width="2.354" height="2.354" transform="translate(51.045 593.066)"/>
            <path id="Path_21330" data-name="Path 21330" d="M1.084,916.086v-11.04H4.117c2.57,0,3.846.928,3.846,2.8a2.377,2.377,0,0,1-.513,1.459,2.312,2.312,0,0,1-1.294.895v.05a2.622,2.622,0,0,1,2.355,2.587c0,1.973-1.309,3.249-3.813,3.249ZM2.659,909.7H4.3q1.989,0,1.989-1.691c0-.978-.663-1.591-2.072-1.591H2.659Zm0,5.006H4.466c1.575,0,2.371-.614,2.371-1.857,0-1.11-.746-1.774-2.321-1.774H2.659Z" transform="translate(-0.365 -304.748)"/>
            <path id="Path_21331" data-name="Path 21331" d="M16.727,921.453H15.235V910.677h1.492v1.11a3.327,3.327,0,0,1,2.652-1.293,3.883,3.883,0,0,1,2.884,6.5,3.523,3.523,0,0,1-2.751,1.111,3.6,3.6,0,0,1-2.785-1.293Zm.68-5.372a2.507,2.507,0,0,0,1.857.73,2.311,2.311,0,0,0,2.42-2.5,2.691,2.691,0,0,0-.646-1.724,2.227,2.227,0,0,0-1.857-.8,2.532,2.532,0,0,0-1.774,4.293" transform="translate(-5.13 -306.583)"/>
            <path id="Path_21332" data-name="Path 21332" d="M36.919,916.6A4.117,4.117,0,0,1,33.47,918.1a4.037,4.037,0,0,1-3.017-1.128,3.878,3.878,0,0,1-1.094-2.784,3.392,3.392,0,0,1,1.177-2.637,4.037,4.037,0,0,1,2.785-1.061,3.674,3.674,0,0,1,2.769,1.045,3.42,3.42,0,0,1,1.011,2.47,2.577,2.577,0,0,1-.05.563H30.818a2.314,2.314,0,0,0,.8,1.592,2.767,2.767,0,0,0,1.873.646,3.117,3.117,0,0,0,2.437-1.011Zm-1.393-3.15a2.049,2.049,0,0,0-2.139-1.658,2.386,2.386,0,0,0-2.469,1.658Z" transform="translate(-9.886 -306.583)"/>
            <path id="Path_21333" data-name="Path 21333" d="M47.9,918.1l-2.669-4.261-1.16,4.079H42.533l2.222-7.427,3.15,5.123,3.133-5.123,2.172,7.427H51.717l-1.16-4.094Z" transform="translate(-14.322 -306.583)"/>
            <path id="Path_21334" data-name="Path 21334" d="M66.066,910.769v7.244H64.574v-2.784H63.48l-1.857,2.784H59.783l2.089-2.917a2.175,2.175,0,0,1-.945-3.664,3.008,3.008,0,0,1,2.188-.663ZM64.574,912H63.1q-1.244,0-1.244,1.044c0,.746.481,1.111,1.443,1.111h1.276Z" transform="translate(-20.13 -306.676)"/>
            <path id="Path_21335" data-name="Path 21335" d="M83.8,918.014v-5.952H79.975v5.952H78.483V910.77H85.3v7.244Z" transform="translate(-26.427 -306.676)"/>
            <path id="Path_21336" data-name="Path 21336" d="M99.068,916.6a4.117,4.117,0,0,1-3.449,1.508,4.037,4.037,0,0,1-3.017-1.128,3.878,3.878,0,0,1-1.094-2.784,3.392,3.392,0,0,1,1.177-2.637,4.037,4.037,0,0,1,2.785-1.061,3.674,3.674,0,0,1,2.769,1.045,3.42,3.42,0,0,1,1.011,2.47,2.577,2.577,0,0,1-.05.563H92.967a2.314,2.314,0,0,0,.8,1.592,2.767,2.767,0,0,0,1.873.646,3.117,3.117,0,0,0,2.437-1.011Zm-1.393-3.15a2.049,2.049,0,0,0-2.139-1.658,2.386,2.386,0,0,0-2.469,1.658Z" transform="translate(-30.813 -306.583)"/>
            <path id="Path_21337" data-name="Path 21337" d="M107.449,921.453h-1.492V910.677h1.492v1.11a3.327,3.327,0,0,1,2.652-1.293,3.883,3.883,0,0,1,2.884,6.5,3.523,3.523,0,0,1-2.751,1.111,3.6,3.6,0,0,1-2.785-1.293Zm.68-5.372a2.507,2.507,0,0,0,1.857.73,2.311,2.311,0,0,0,2.42-2.5,2.691,2.691,0,0,0-.646-1.724,2.227,2.227,0,0,0-1.857-.8,2.532,2.532,0,0,0-1.774,4.293" transform="translate(-35.678 -306.583)"/>
            <path id="Path_21338" data-name="Path 21338" d="M120.832,910.769H124c1.774,0,2.652.763,2.652,1.823a1.46,1.46,0,0,1-1.326,1.492v.033c1.11.215,1.708.862,1.708,1.724,0,1.277-.945,2.172-2.851,2.172h-3.349Zm1.492,2.967h1.492c.845,0,1.26-.315,1.26-.928s-.4-.912-1.177-.912h-1.575Zm0,3.15H124c.862,0,1.459-.365,1.459-1.045,0-.8-.746-1.077-1.426-1.077h-1.707Z" transform="translate(-40.687 -306.676)"/>
            <path id="Path_21339" data-name="Path 21339" d="M134.224,910.77v2.586h1.94a2.9,2.9,0,0,1,2.089.68,2.126,2.126,0,0,1,.7,1.575,2.438,2.438,0,0,1-.53,1.526,2.96,2.96,0,0,1-2.437.878h-3.249V910.77Zm0,6.017h1.741c1.061,0,1.409-.547,1.409-1.16a.845.845,0,0,0-.3-.68,1.489,1.489,0,0,0-1.11-.365h-1.741Zm6.151-6.017h1.492v7.244h-1.492Z" transform="translate(-44.694 -306.676)"/>
            <path id="Path_21340" data-name="Path 21340" d="M151.854,915.346l-1.922,2.668h-1.626l2.67-3.663-2.57-3.58h1.757l1.774,2.519,1.824-2.519h1.674l-2.636,3.5,2.752,3.746h-1.79Z" transform="translate(-49.938 -306.676)"/>
            <g id="Group_512" data-name="Group 512" transform="translate(534.598 555.555)" opacity="0.62">
              <g id="Group_511" data-name="Group 511">
                <g id="Group_510" data-name="Group 510" clip-path="url(#clip-path-8)">
                  <path id="Path_21341" data-name="Path 21341" d="M807.907,847.9V837.589h1.469v4.8l4.3-4.8h1.811l-4.488,4.9,5,5.4h-2l-4.627-5.107V847.9Z" transform="translate(-806.637 -837.589)"/>
                  <path id="Path_21342" data-name="Path 21342" d="M821.177,843.743a3.733,3.733,0,0,1,2.8-1.068,3.845,3.845,0,0,1,2.755,1.006,3.624,3.624,0,0,1,0,5.137,3.984,3.984,0,0,1-2.755.96,3.729,3.729,0,0,1-2.8-1.037,3.57,3.57,0,0,1,0-5m2.8,4.828a2.344,2.344,0,1,0-2.336-2.336,2.2,2.2,0,0,0,2.336,2.336" transform="translate(-810.762 -839.302)"/>
                  <path id="Path_21343" data-name="Path 21343" d="M835.665,846.708v2.987h-1.393v-6.762h1.393V845.5h3.652v-2.568h1.394v6.762h-1.394v-2.987Z" transform="translate(-815.515 -839.388)"/>
                  <path id="Path_21344" data-name="Path 21344" d="M852.233,841.159a4.525,4.525,0,0,1,3.188,1.006A3.265,3.265,0,0,1,856.5,844.7a3.213,3.213,0,0,1-1.145,2.6,4.743,4.743,0,0,1-3.126.96v3.125H850.84v-3.125l-.665-.031a3.735,3.735,0,0,1-2.693-1.1,3.528,3.528,0,0,1-.913-2.414,3.3,3.3,0,0,1,1.084-2.554,4.571,4.571,0,0,1,3.186-1.006v-2.987h1.393Zm-1.393,1.207c-1.794,0-2.754.866-2.754,2.353a2.19,2.19,0,0,0,2.2,2.3c.17.016.356.031.556.031Zm1.393,4.689c1.626,0,2.755-.789,2.755-2.352,0-1.594-1.083-2.337-2.755-2.337Z" transform="translate(-819.656 -837.785)"/>
                  <path id="Path_21345" data-name="Path 21345" d="M870.217,848.37a3.843,3.843,0,0,1-3.22,1.408,3.774,3.774,0,0,1-2.816-1.053,3.627,3.627,0,0,1-1.021-2.6,3.165,3.165,0,0,1,1.1-2.46,3.761,3.761,0,0,1,2.6-.99,3.43,3.43,0,0,1,2.585.974,3.191,3.191,0,0,1,.943,2.306,2.531,2.531,0,0,1-.046.526h-5.819a2.154,2.154,0,0,0,.744,1.485,2.577,2.577,0,0,0,1.748.6,2.91,2.91,0,0,0,2.275-.944Zm-1.3-2.941a1.915,1.915,0,0,0-2-1.547,2.227,2.227,0,0,0-2.306,1.547Z" transform="translate(-825.242 -839.302)"/>
                  <path id="Path_21346" data-name="Path 21346" d="M878.063,852.9H876.67V842.845h1.393v1.036a3.106,3.106,0,0,1,2.475-1.206,3.552,3.552,0,0,1,3.637,3.559,3.589,3.589,0,0,1-.943,2.506,3.292,3.292,0,0,1-2.569,1.037,3.358,3.358,0,0,1-2.6-1.208Zm.635-5.014a2.34,2.34,0,0,0,1.733.681,2.157,2.157,0,0,0,2.26-2.336,2.516,2.516,0,0,0-.6-1.61,2.078,2.078,0,0,0-1.733-.743,2.364,2.364,0,0,0-1.656,4.008" transform="translate(-829.791 -839.302)"/>
                  <path id="Path_21347" data-name="Path 21347" d="M896.934,848.37a3.843,3.843,0,0,1-3.22,1.408,3.774,3.774,0,0,1-2.816-1.053,3.626,3.626,0,0,1-1.021-2.6,3.165,3.165,0,0,1,1.1-2.46,3.761,3.761,0,0,1,2.6-.99,3.43,3.43,0,0,1,2.585.974,3.191,3.191,0,0,1,.943,2.306,2.53,2.53,0,0,1-.046.526h-5.819a2.154,2.154,0,0,0,.744,1.485,2.577,2.577,0,0,0,1.748.6,2.91,2.91,0,0,0,2.275-.944Zm-1.3-2.941a1.915,1.915,0,0,0-2-1.547,2.227,2.227,0,0,0-2.305,1.547Z" transform="translate(-834.239 -839.302)"/>
                  <path id="Path_21348" data-name="Path 21348" d="M904.78,846.708v2.987h-1.393v-6.762h1.393V845.5h3.652v-2.568h1.392v6.762h-1.392v-2.987Z" transform="translate(-838.787 -839.388)"/>
                  <path id="Path_21349" data-name="Path 21349" d="M922.76,848.487h1.161v3.249h-1.393v-2.042h-6.144v-6.762h1.392v5.555h3.591v-5.555h1.393Z" transform="translate(-843.164 -839.388)"/>
                  <rect id="Rectangle_2468" data-name="Rectangle 2468" width="4.549" height="1.285" transform="translate(82.104 5.896)"/>
                  <path id="Path_21350" data-name="Path 21350" d="M939.063,843.634a3.651,3.651,0,0,1,2.569-.959c1.656,0,2.694.588,2.694,1.779a1.465,1.465,0,0,1-1.145,1.439v.047c1.037.216,1.563.757,1.563,1.64,0,1.3-1.083,2.2-3.126,2.2a3.855,3.855,0,0,1-2.692-.913l.665-.9a3.536,3.536,0,0,0,2.105.651c1.052,0,1.578-.356,1.578-1.052s-.573-1.037-1.7-1.037h-.633v-1.053h.633c.851,0,1.285-.279,1.285-.82s-.434-.82-1.315-.82a2.989,2.989,0,0,0-1.888.634Z" transform="translate(-850.754 -839.302)"/>
                  <path id="Path_21351" data-name="Path 21351" d="M950.048,843.14a6.523,6.523,0,0,1,2.57-.464c1.671,0,2.739.727,2.739,2.073v4.859h-1.331v-.5a3.773,3.773,0,0,1-2.306.666c-1.531,0-2.6-.805-2.6-2.182,0-1.316,1.13-2.183,2.862-2.183a4.069,4.069,0,0,1,2.043.48v-.371c0-1.1-.341-1.7-1.656-1.7a5.613,5.613,0,0,0-2.073.387Zm2.059,5.494c1.052,0,1.934-.4,1.934-1.084,0-.634-.742-1.083-1.81-1.083-.975,0-1.626.387-1.626,1.083,0,.728.5,1.084,1.5,1.084" transform="translate(-854.187 -839.302)"/>
                  <path id="Path_21352" data-name="Path 21352" d="M965.924,844.138h-2.678v1.176c0,3.142-.712,4.55-2.337,4.55h-.4V848.61h.185c.929,0,1.27-1.036,1.27-3.45v-2.228h5.355v6.762h-1.393Z" transform="translate(-858.021 -839.388)"/>
                  <path id="Path_21353" data-name="Path 21353" d="M813.791,860.178h-4.038v1.547q0,5.129-1.408,6.824a2.282,2.282,0,0,1-1.827.867,1.645,1.645,0,0,1-.526-.093V867.9l.325.062c.758,0,1.315-.635,1.609-1.8a17.208,17.208,0,0,0,.4-4.256v-3.017h6.932V869.2h-1.47Z" transform="translate(-805.993 -844.763)"/>
                  <path id="Path_21354" data-name="Path 21354" d="M823.535,864.444a6.515,6.515,0,0,1,2.57-.464c1.671,0,2.738.727,2.738,2.073v4.859h-1.33v-.5a3.773,3.773,0,0,1-2.306.666c-1.533,0-2.6-.805-2.6-2.182,0-1.316,1.13-2.183,2.863-2.183a4.074,4.074,0,0,1,2.043.48v-.371c0-1.1-.341-1.7-1.656-1.7a5.607,5.607,0,0,0-2.073.387Zm2.059,5.494c1.052,0,1.934-.4,1.934-1.084,0-.634-.744-1.083-1.811-1.083-.974,0-1.625.387-1.625,1.083,0,.728.495,1.084,1.5,1.084" transform="translate(-811.587 -846.475)"/>
                  <path id="Path_21355" data-name="Path 21355" d="M839.345,864.237h1.471L836.25,874.28h-1.393l1.671-3.7-2.91-6.344h1.548l1.563,3.558a6.206,6.206,0,0,1,.279.805l.247.742c.124-.418.309-.944.557-1.562Z" transform="translate(-815.295 -846.562)"/>
                  <path id="Path_21356" data-name="Path 21356" d="M847.565,868.012V871h-1.393v-6.762h1.393v2.568h3.652v-2.568h1.394V871h-1.394v-2.987Z" transform="translate(-819.522 -846.562)"/>
                  <path id="Path_21357" data-name="Path 21357" d="M861.994,867.517,859.255,871h-1.764l3-3.714-2.6-3.048h1.6l2.507,3.048v-3.048h1.393v3.048l2.506-3.048h1.593l-2.583,3.033L867.89,871h-1.764l-2.739-3.482V871h-1.393Z" transform="translate(-823.333 -846.562)"/>
                  <path id="Path_21358" data-name="Path 21358" d="M815.792,889.312a5.143,5.143,0,0,1-3.59,1.3,5.424,5.424,0,0,1-4.178-1.718,5.648,5.648,0,0,1-1.377-3.667,5.09,5.09,0,0,1,1.578-3.807,5.5,5.5,0,0,1,4.008-1.548,4.793,4.793,0,0,1,3.389,1.13l-.8,1.021a4.005,4.005,0,0,0-2.615-.866,3.873,3.873,0,0,0-2.863,1.145,3.956,3.956,0,0,0-1.13,2.925,4.066,4.066,0,0,0,1.114,2.971,3.954,3.954,0,0,0,2.925,1.13,4.572,4.572,0,0,0,2.723-.913Z" transform="translate(-806.213 -851.827)"/>
                  <path id="Path_21359" data-name="Path 21359" d="M826.956,885.541h1.471l-4.565,10.043h-1.393l1.672-3.7-2.909-6.344h1.547l1.564,3.559a6.379,6.379,0,0,1,.279.8l.247.743c.123-.418.309-.944.557-1.563Z" transform="translate(-811.124 -853.735)"/>
                  <path id="Path_21360" data-name="Path 21360" d="M833.783,885.542h2.955c1.658,0,2.477.712,2.477,1.7a1.364,1.364,0,0,1-1.238,1.393v.031c1.036.2,1.593.8,1.593,1.609,0,1.191-.882,2.027-2.661,2.027h-3.126Zm1.393,2.769h1.393c.789,0,1.176-.293,1.176-.866s-.371-.851-1.1-.851h-1.471Zm0,2.941h1.562c.806,0,1.363-.341,1.363-.975,0-.743-.7-1.006-1.332-1.006h-1.593Z" transform="translate(-815.351 -853.736)"/>
                  <path id="Path_21361" data-name="Path 21361" d="M851.27,890.98a3.843,3.843,0,0,1-3.22,1.408,3.771,3.771,0,0,1-2.816-1.053,3.624,3.624,0,0,1-1.021-2.6,3.167,3.167,0,0,1,1.1-2.461,3.764,3.764,0,0,1,2.6-.99,3.433,3.433,0,0,1,2.585.974,3.191,3.191,0,0,1,.943,2.306,2.526,2.526,0,0,1-.046.526h-5.819a2.155,2.155,0,0,0,.744,1.486,2.579,2.579,0,0,0,1.748.6,2.91,2.91,0,0,0,2.275-.944Zm-1.3-2.94a1.914,1.914,0,0,0-2-1.547,2.227,2.227,0,0,0-2.306,1.547Z" transform="translate(-818.862 -853.649)"/>
                  <path id="Path_21362" data-name="Path 21362" d="M859.116,889.317V892.3h-1.393v-6.762h1.393v2.569h3.652v-2.569h1.392V892.3h-1.392v-2.987Z" transform="translate(-823.411 -853.736)"/>
                  <path id="Path_21363" data-name="Path 21363" d="M875.362,888.024l-4.643,4.364v-6.933h1.393v4.132l4.643-4.3v6.933h-1.393Z" transform="translate(-827.788 -853.649)"/>
                  <path id="Path_21364" data-name="Path 21364" d="M884.5,895.514h-1.393V885.455H884.5v1.037a3.106,3.106,0,0,1,2.477-1.207,3.625,3.625,0,0,1,2.693,6.066,3.294,3.294,0,0,1-2.57,1.037,3.362,3.362,0,0,1-2.6-1.207Zm.635-5.014a2.343,2.343,0,0,0,1.733.681,2.157,2.157,0,0,0,2.26-2.337,2.51,2.51,0,0,0-.6-1.61,2.076,2.076,0,0,0-1.733-.742,2.363,2.363,0,0,0-1.655,4.008" transform="translate(-831.96 -853.649)"/>
                  <path id="Path_21365" data-name="Path 21365" d="M898.411,885.541v2.414h1.809a2.713,2.713,0,0,1,1.951.635,1.988,1.988,0,0,1,.649,1.47,2.269,2.269,0,0,1-.495,1.423,2.762,2.762,0,0,1-2.275.82h-3.033v-6.763Zm0,5.617h1.624c.991,0,1.315-.511,1.315-1.083a.787.787,0,0,0-.279-.635,1.391,1.391,0,0,0-1.036-.34h-1.624Zm5.741-5.617h1.393V892.3h-1.393Z" transform="translate(-836.643 -853.735)"/>
                  <path id="Path_21366" data-name="Path 21366" d="M807.907,911.809V901.5h1.469v4.8l4.3-4.8h1.811l-4.488,4.9,5,5.4h-2l-4.627-5.107v5.107Z" transform="translate(-806.637 -859.11)"/>
                  <path id="Path_21367" data-name="Path 21367" d="M821.529,907.054a6.5,6.5,0,0,1,2.57-.464c1.671,0,2.738.727,2.738,2.074v4.859h-1.33v-.495a3.774,3.774,0,0,1-2.306.665c-1.533,0-2.6-.8-2.6-2.182,0-1.315,1.13-2.182,2.863-2.182a4.075,4.075,0,0,1,2.043.48v-.371c0-1.1-.341-1.7-1.656-1.7a5.607,5.607,0,0,0-2.073.387Zm2.059,5.493c1.052,0,1.934-.4,1.934-1.083,0-.635-.744-1.084-1.811-1.084-.974,0-1.625.387-1.625,1.084,0,.728.495,1.083,1.5,1.083" transform="translate(-810.911 -860.823)"/>
                  <path id="Path_21368" data-name="Path 21368" d="M838.163,905.073a4.528,4.528,0,0,1,3.188,1.006,3.266,3.266,0,0,1,1.083,2.538,3.215,3.215,0,0,1-1.145,2.6,4.746,4.746,0,0,1-3.126.959V915.3H836.77v-3.126l-.665-.031a3.733,3.733,0,0,1-2.693-1.1,3.525,3.525,0,0,1-.913-2.414,3.3,3.3,0,0,1,1.084-2.554,4.575,4.575,0,0,1,3.186-1.006v-2.987h1.393Zm-1.393,1.208c-1.794,0-2.754.866-2.754,2.352a2.19,2.19,0,0,0,2.2,2.306c.171.016.356.031.557.031Zm1.393,4.689c1.626,0,2.755-.789,2.755-2.353,0-1.594-1.083-2.336-2.755-2.336Z" transform="translate(-814.918 -859.307)"/>
                  <path id="Path_21369" data-name="Path 21369" d="M856.147,912.284a3.843,3.843,0,0,1-3.22,1.408,3.771,3.771,0,0,1-2.816-1.052,3.625,3.625,0,0,1-1.021-2.6,3.168,3.168,0,0,1,1.1-2.461,3.765,3.765,0,0,1,2.6-.99,3.433,3.433,0,0,1,2.585.974,3.191,3.191,0,0,1,.943,2.306,2.533,2.533,0,0,1-.046.526h-5.819a2.156,2.156,0,0,0,.744,1.486,2.581,2.581,0,0,0,1.748.6,2.909,2.909,0,0,0,2.275-.944Zm-1.3-2.94a1.914,1.914,0,0,0-2-1.547,2.227,2.227,0,0,0-2.306,1.547Z" transform="translate(-820.505 -860.823)"/>
                  <path id="Path_21370" data-name="Path 21370" d="M815.133,925.871l-7.226,7.35V922.7h1.469v7.118l7.228-7.335v10.523h-1.471Z" transform="translate(-806.637 -866.174)"/>
                  <path id="Path_21371" data-name="Path 21371" d="M829.729,928.152v1.207h-3.281v5.556h-1.393v-6.762Z" transform="translate(-812.412 -868.083)"/>
                  <path id="Path_21372" data-name="Path 21372" d="M835.245,938.123h-1.393V928.065h1.393V929.1a3.106,3.106,0,0,1,2.477-1.206,3.625,3.625,0,0,1,2.692,6.066A3.292,3.292,0,0,1,837.845,935a3.36,3.36,0,0,1-2.6-1.208Zm.635-5.014a2.345,2.345,0,0,0,1.733.68,2.157,2.157,0,0,0,2.26-2.336,2.509,2.509,0,0,0-.6-1.61,2.074,2.074,0,0,0-1.733-.743,2.364,2.364,0,0,0-1.656,4.008" transform="translate(-815.374 -867.997)"/>
                  <path id="Path_21373" data-name="Path 21373" d="M848.081,928.963a3.729,3.729,0,0,1,2.8-1.068,3.837,3.837,0,0,1,2.754,1.006,3.623,3.623,0,0,1,0,5.137,3.976,3.976,0,0,1-2.754.96,3.724,3.724,0,0,1-2.8-1.037,3.567,3.567,0,0,1,0-5m2.8,4.828a2.344,2.344,0,1,0-2.337-2.336,2.2,2.2,0,0,0,2.337,2.336" transform="translate(-819.821 -867.997)"/>
                  <path id="Path_21374" data-name="Path 21374" d="M861.176,928.152h2.956c1.656,0,2.476.712,2.476,1.7a1.363,1.363,0,0,1-1.238,1.393v.031c1.037.2,1.594.8,1.594,1.609,0,1.192-.882,2.028-2.662,2.028h-3.126Zm1.393,2.769h1.393c.79,0,1.176-.294,1.176-.866s-.371-.851-1.1-.851h-1.47Zm0,2.94h1.563c.8,0,1.362-.34,1.362-.975,0-.743-.7-1.006-1.331-1.006h-1.594Z" transform="translate(-824.574 -868.083)"/>
                  <path id="Path_21375" data-name="Path 21375" d="M872.256,928.359a6.516,6.516,0,0,1,2.57-.464c1.671,0,2.738.727,2.738,2.073v4.859h-1.33v-.5a3.774,3.774,0,0,1-2.306.666c-1.533,0-2.6-.805-2.6-2.182,0-1.316,1.13-2.183,2.863-2.183a4.075,4.075,0,0,1,2.043.48v-.371c0-1.1-.341-1.7-1.656-1.7a5.607,5.607,0,0,0-2.073.387Zm2.059,5.494c1.052,0,1.934-.4,1.934-1.084,0-.634-.744-1.083-1.811-1.083-.974,0-1.625.387-1.625,1.083,0,.728.495,1.084,1.5,1.084" transform="translate(-827.992 -867.997)"/>
                  <path id="Path_21376" data-name="Path 21376" d="M888.7,928.151v6.763H887.3v-2.6h-1.021l-1.733,2.6h-1.718l1.949-2.724a2.03,2.03,0,0,1-.882-3.42,2.807,2.807,0,0,1,2.043-.619ZM887.3,929.3h-1.377q-1.16,0-1.161.976c0,.7.448,1.036,1.346,1.036H887.3Z" transform="translate(-831.866 -868.083)"/>
                  <path id="Path_21377" data-name="Path 21377" d="M899.4,928.854a3.647,3.647,0,0,1,2.569-.959c1.656,0,2.692.588,2.692,1.779a1.464,1.464,0,0,1-1.146,1.439v.047c1.038.216,1.564.757,1.564,1.64,0,1.3-1.083,2.2-3.126,2.2a3.862,3.862,0,0,1-2.694-.913l.666-.9a3.533,3.533,0,0,0,2.105.651c1.052,0,1.578-.356,1.578-1.053s-.573-1.037-1.7-1.037h-.635V930.7h.635c.851,0,1.284-.279,1.284-.82s-.433-.82-1.315-.82a2.987,2.987,0,0,0-1.887.634Z" transform="translate(-837.397 -867.997)"/>
                  <path id="Path_21378" data-name="Path 21378" d="M910.755,928.963a3.729,3.729,0,0,1,2.8-1.068,3.837,3.837,0,0,1,2.754,1.006,3.623,3.623,0,0,1,0,5.137,3.976,3.976,0,0,1-2.754.96,3.724,3.724,0,0,1-2.8-1.037,3.566,3.566,0,0,1,0-5m2.8,4.828a2.344,2.344,0,1,0-2.337-2.336,2.2,2.2,0,0,0,2.337,2.336" transform="translate(-840.924 -867.997)"/>
                  <path id="Path_21379" data-name="Path 21379" d="M925.243,931.927v2.987H923.85v-6.762h1.393v2.568h3.652v-2.568h1.392v6.762h-1.392v-2.987Z" transform="translate(-845.678 -868.084)"/>
                  <path id="Path_21380" data-name="Path 21380" d="M936.8,928.359a6.525,6.525,0,0,1,2.57-.464c1.671,0,2.739.727,2.739,2.073v4.859h-1.331v-.5a3.774,3.774,0,0,1-2.306.666c-1.532,0-2.6-.805-2.6-2.182,0-1.316,1.13-2.183,2.862-2.183a4.071,4.071,0,0,1,2.043.48v-.371c0-1.1-.341-1.7-1.656-1.7a5.612,5.612,0,0,0-2.073.387Zm2.059,5.494c1.052,0,1.934-.4,1.934-1.084,0-.634-.742-1.083-1.81-1.083-.975,0-1.626.387-1.626,1.083,0,.728.5,1.084,1.5,1.084" transform="translate(-849.725 -867.997)"/>
                </g>
              </g>
            </g>
            <path id="Path_21381" data-name="Path 21381" d="M776.64,919.935l-1.319,11.056,11.131.29-.661-.764-9.067-.245,10.159-8.785-.489-.566-10.16,8.786L777.3,920.7Z" transform="translate(-261.067 -309.762)"/>
            <path id="Path_21382" data-name="Path 21382" d="M178.931,905.234l1.319,11.056-11.131.29.661-.764,9.067-.245-10.159-8.785.489-.566,10.159,8.786L178.271,906Z" transform="translate(-56.801 -304.812)"/>
            <path id="Path_21383" data-name="Path 21383" d="M1.649,1087.642V1076.6H4.682c2.57,0,3.846.929,3.846,2.8a2.38,2.38,0,0,1-.513,1.459,2.316,2.316,0,0,1-1.294.895v.05a2.622,2.622,0,0,1,2.355,2.586c0,1.973-1.309,3.249-3.813,3.249Zm1.575-6.383H4.865q1.989,0,1.989-1.691c0-.978-.663-1.591-2.072-1.591H3.224Zm0,5.006H5.031c1.575,0,2.371-.613,2.371-1.856,0-1.111-.746-1.774-2.321-1.774H3.224Z" transform="translate(-0.555 -362.515)"/>
            <path id="Path_21384" data-name="Path 21384" d="M17.292,1093.008H15.8v-10.776h1.492v1.11a3.327,3.327,0,0,1,2.652-1.293,3.884,3.884,0,0,1,2.885,6.5,3.528,3.528,0,0,1-2.752,1.11,3.6,3.6,0,0,1-2.785-1.293Zm.68-5.371a2.509,2.509,0,0,0,1.857.729,2.311,2.311,0,0,0,2.42-2.5,2.689,2.689,0,0,0-.646-1.723,2.227,2.227,0,0,0-1.857-.8,2.533,2.533,0,0,0-1.774,4.294" transform="translate(-5.32 -364.349)"/>
            <path id="Path_21385" data-name="Path 21385" d="M37.485,1088.15a4.117,4.117,0,0,1-3.449,1.508,4.036,4.036,0,0,1-3.017-1.127,3.879,3.879,0,0,1-1.094-2.785,3.39,3.39,0,0,1,1.177-2.636,4.034,4.034,0,0,1,2.785-1.061,3.673,3.673,0,0,1,2.769,1.044,3.421,3.421,0,0,1,1.011,2.471,2.583,2.583,0,0,1-.05.563H31.384a2.318,2.318,0,0,0,.8,1.592,2.769,2.769,0,0,0,1.873.646,3.12,3.12,0,0,0,2.437-1.011ZM36.092,1085a2.05,2.05,0,0,0-2.139-1.658A2.386,2.386,0,0,0,31.484,1085Z" transform="translate(-10.076 -364.349)"/>
            <path id="Path_21386" data-name="Path 21386" d="M48.47,1089.659,45.8,1085.4l-1.16,4.078H43.1l2.222-7.427,3.15,5.123,3.133-5.123,2.172,7.427H52.283l-1.16-4.1Z" transform="translate(-14.512 -364.349)"/>
            <path id="Path_21387" data-name="Path 21387" d="M68.333,1088.15a4.117,4.117,0,0,1-3.449,1.508,4.036,4.036,0,0,1-3.017-1.127,3.879,3.879,0,0,1-1.094-2.785,3.39,3.39,0,0,1,1.177-2.636,4.034,4.034,0,0,1,2.785-1.061,3.673,3.673,0,0,1,2.769,1.044,3.421,3.421,0,0,1,1.011,2.471,2.584,2.584,0,0,1-.05.563H62.232a2.318,2.318,0,0,0,.8,1.592,2.77,2.77,0,0,0,1.873.646,3.12,3.12,0,0,0,2.437-1.011ZM66.94,1085a2.05,2.05,0,0,0-2.139-1.658A2.386,2.386,0,0,0,62.332,1085Z" transform="translate(-20.464 -364.349)"/>
            <path id="Path_21388" data-name="Path 21388" d="M76.715,1086.37v3.2H75.224v-7.245h1.492v2.753h3.912v-2.753H82.12v7.245H80.627v-3.2Z" transform="translate(-25.329 -364.442)"/>
            <path id="Path_21389" data-name="Path 21389" d="M90.615,1086.37v3.2H89.123v-7.245h1.492v2.753h3.912v-2.753h1.492v7.245H94.527v-3.2Z" transform="translate(-30.01 -364.442)"/>
            <path id="Path_21390" data-name="Path 21390" d="M102.968,1082.547a6.973,6.973,0,0,1,2.752-.5c1.79,0,2.934.779,2.934,2.221v5.205h-1.425v-.531a4.037,4.037,0,0,1-2.47.713c-1.642,0-2.785-.862-2.785-2.337,0-1.409,1.21-2.337,3.067-2.337a4.368,4.368,0,0,1,2.188.513v-.4c0-1.177-.365-1.823-1.774-1.823a5.986,5.986,0,0,0-2.221.415Zm2.2,5.885c1.128,0,2.073-.43,2.073-1.16,0-.68-.8-1.161-1.94-1.161-1.044,0-1.74.414-1.74,1.161,0,.779.531,1.16,1.608,1.16" transform="translate(-34.337 -364.349)"/>
            <path id="Path_21391" data-name="Path 21391" d="M120.556,1082.324v7.245h-1.492v-2.785H117.97l-1.857,2.785h-1.841l2.089-2.918a2.175,2.175,0,0,1-.945-3.664,3.008,3.008,0,0,1,2.188-.663Zm-1.492,1.227h-1.475q-1.244,0-1.244,1.045c0,.745.481,1.11,1.443,1.11h1.276Z" transform="translate(-38.478 -364.442)"/>
            <path id="Path_21392" data-name="Path 21392" d="M1.939,1110.3v-1.128H5.47a2.414,2.414,0,0,0-2.5-1.807,3.748,3.748,0,0,0-2.122.68l-.564-1.078a4.3,4.3,0,0,1,2.686-.9,3.913,3.913,0,0,1,3.017,1.144A3.886,3.886,0,0,1,6,1112.574a3.994,3.994,0,0,1-3.034,1.111A4.612,4.612,0,0,1,0,1112.69l.8-1.028a3.244,3.244,0,0,0,2.172.73A2.438,2.438,0,0,0,5.52,1110.3Z" transform="translate(0 -372.439)"/>
            <path id="Path_21393" data-name="Path 21393" d="M13.4,1113.569v-7.245h1.492v3.266l3.067-3.266h1.707l-3.15,3.25,3.748,3.995h-1.89l-3.482-3.73v3.73Z" transform="translate(-4.512 -372.523)"/>
            <path id="Path_21394" data-name="Path 21394" d="M25.093,1112.533A3.694,3.694,0,0,1,24,1109.864a3.826,3.826,0,0,1,4.078-3.812,4.17,4.17,0,0,1,2.851,1.061l-.846,1.028a3.024,3.024,0,0,0-2.006-.8,2.384,2.384,0,0,0-2.487,2.52,2.436,2.436,0,0,0,.73,1.824,2.657,2.657,0,0,0,1.84.679,3.136,3.136,0,0,0,2.056-.762l.8.978a4.12,4.12,0,0,1-2.918,1.077,4,4,0,0,1-3-1.127" transform="translate(-8.081 -372.431)"/>
            <path id="Path_21395" data-name="Path 21395" d="M42.3,1113.569v-5.951H38.467v5.951H36.975v-7.245h6.813v7.245Z" transform="translate(-12.45 -372.523)"/>
            <path id="Path_21396" data-name="Path 21396" d="M51.093,1107.194a4,4,0,0,1,3-1.143,4.114,4.114,0,0,1,2.95,1.077,3.881,3.881,0,0,1,0,5.5,4.259,4.259,0,0,1-2.95,1.028,3.991,3.991,0,0,1-3-1.11,3.822,3.822,0,0,1,0-5.355m3,5.172a2.511,2.511,0,1,0-2.5-2.5,2.358,2.358,0,0,0,2.5,2.5" transform="translate(-16.836 -372.431)"/>
            <path id="Path_21397" data-name="Path 21397" d="M64.1,1107.078a3.906,3.906,0,0,1,2.751-1.028c1.774,0,2.885.629,2.885,1.906a1.569,1.569,0,0,1-1.227,1.541v.05c1.111.231,1.675.812,1.675,1.757,0,1.393-1.161,2.354-3.349,2.354a4.137,4.137,0,0,1-2.885-.978l.714-.961a3.791,3.791,0,0,0,2.254.7c1.127,0,1.691-.381,1.691-1.128s-.614-1.11-1.823-1.11H66.1v-1.128h.68c.912,0,1.376-.3,1.376-.879s-.464-.879-1.409-.879a3.2,3.2,0,0,0-2.023.68Z" transform="translate(-21.533 -372.431)"/>
            <path id="Path_21398" data-name="Path 21398" d="M80.872,1108.984l-4.973,4.675v-7.427H77.39v4.426l4.973-4.609v7.427H80.872Z" transform="translate(-25.557 -372.431)"/>
            <path id="Path_21399" data-name="Path 21399" d="M95.978,1112.276h1.244v3.482H95.729v-2.188H89.148v-7.245H90.64v5.952h3.846v-5.952h1.492Z" transform="translate(-30.018 -372.523)"/>
            <path id="Path_21400" data-name="Path 21400" d="M108.372,1108.984l-4.973,4.675v-7.427h1.492v4.426l4.973-4.609v7.427h-1.492Z" transform="translate(-34.816 -372.431)"/>
            <path id="Path_21401" data-name="Path 21401" d="M121.756,1106.324v7.245h-1.492v-2.785H119.17l-1.857,2.785h-1.841l2.089-2.918a2.175,2.175,0,0,1-.945-3.664,3.008,3.008,0,0,1,2.188-.663Zm-1.492,1.227h-1.475q-1.244,0-1.244,1.045c0,.745.481,1.11,1.443,1.11h1.276Z" transform="translate(-38.882 -372.523)"/>
            <path id="Path_21402" data-name="Path 21402" d="M817.086,1039.866h-3.614v8.885h-2.354V1037.71h5.968Z" transform="translate(-273.12 -349.419)"/>
            <path id="Path_21403" data-name="Path 21403" d="M823.837,1044.3h-2.122v1.111c0,3.381-.978,5.072-2.951,5.072a1.91,1.91,0,0,1-.647-.1v-1.94a1.959,1.959,0,0,0,.564-.05c.746-.282.962-1.442.962-3.5v-2.586h6.381v7.991h-2.188Z" transform="translate(-275.477 -350.968)"/>
            <path id="Path_21404" data-name="Path 21404" d="M833.186,1042.465a6.512,6.512,0,0,1,2.3-.43c2.4,0,3.614,1.094,3.614,3.265v4.907h-2.088v-.7a2.988,2.988,0,0,1-2.255.878,2.675,2.675,0,0,1-2.918-2.751,2.764,2.764,0,0,1,.8-2.039,2.849,2.849,0,0,1,2.122-.812,3.505,3.505,0,0,1,2.255.762c.017-1.143-.73-1.774-1.941-1.774a5.289,5.289,0,0,0-1.888.348Zm3.829,5.14c0-.647-.631-1.078-1.559-1.078-.862,0-1.426.365-1.426,1.044,0,.648.514,1.062,1.36,1.062.978,0,1.624-.381,1.624-1.027" transform="translate(-280.098 -350.875)"/>
            <path id="Path_21405" data-name="Path 21405" d="M845.541,1042.31h3.731c1.939,0,2.918.663,2.918,2.006a1.71,1.71,0,0,1-1.459,1.674v.05c1.227.249,1.84.879,1.84,1.857,0,1.409-1.044,2.4-3.149,2.4h-3.88Zm2.189,3.05h1.144c.679,0,1.027-.249,1.027-.746,0-.4-.314-.647-.846-.647h-1.325Zm0,3.282h1.21c.9,0,1.342-.282,1.342-.828q0-.8-1.144-.8h-1.408Z" transform="translate(-284.711 -350.968)"/>
            <path id="Path_21406" data-name="Path 21406" d="M858.561,1042.465a6.512,6.512,0,0,1,2.3-.43c2.4,0,3.614,1.094,3.614,3.265v4.907H862.39v-.7a2.988,2.988,0,0,1-2.255.878,2.674,2.674,0,0,1-2.918-2.751,2.764,2.764,0,0,1,.8-2.039,2.849,2.849,0,0,1,2.122-.812,3.505,3.505,0,0,1,2.255.762c.017-1.143-.73-1.774-1.941-1.774a5.289,5.289,0,0,0-1.888.348Zm3.829,5.14c0-.647-.631-1.078-1.559-1.078-.862,0-1.426.365-1.426,1.044,0,.648.514,1.062,1.36,1.062.978,0,1.624-.381,1.624-1.027" transform="translate(-288.643 -350.875)"/>
            <path id="Path_21407" data-name="Path 21407" d="M875.442,1043.38v-2.735l2.885-2.934h1.061v11.042H877.2v-7.1Z" transform="translate(-294.78 -349.419)"/>
            <rect id="Rectangle_2470" data-name="Rectangle 2470" width="2.354" height="2.355" transform="translate(586.632 696.978)"/>
            <path id="Path_21408" data-name="Path 21408" d="M820.04,1071.473a5.517,5.517,0,0,1-3.846,1.393,5.813,5.813,0,0,1-4.476-1.841,6.055,6.055,0,0,1-1.475-3.929,5.454,5.454,0,0,1,1.69-4.078,5.906,5.906,0,0,1,4.295-1.658,5.141,5.141,0,0,1,3.63,1.21l-.862,1.095a4.291,4.291,0,0,0-2.8-.929,4.146,4.146,0,0,0-3.066,1.227,4.236,4.236,0,0,0-1.21,3.133,4.355,4.355,0,0,0,1.193,3.183,4.231,4.231,0,0,0,3.133,1.21,4.9,4.9,0,0,0,2.918-.978Z" transform="translate(-272.826 -357.383)"/>
            <path id="Path_21409" data-name="Path 21409" d="M827.887,1068.3a4,4,0,0,1,3-1.144,4.112,4.112,0,0,1,2.95,1.077,3.881,3.881,0,0,1,0,5.5,4.256,4.256,0,0,1-2.95,1.028,3.991,3.991,0,0,1-3-1.11,3.823,3.823,0,0,1,0-5.354m3,5.172a2.511,2.511,0,1,0-2.5-2.5,2.358,2.358,0,0,0,2.5,2.5" transform="translate(-278.398 -359.336)"/>
            <path id="Path_21410" data-name="Path 21410" d="M841.893,1067.434h3.166c1.774,0,2.652.763,2.652,1.824a1.459,1.459,0,0,1-1.325,1.492v.033c1.11.215,1.708.862,1.708,1.724,0,1.277-.946,2.172-2.852,2.172h-3.349Zm1.491,2.968h1.492c.846,0,1.26-.316,1.26-.929s-.4-.911-1.177-.911h-1.575Zm0,3.149h1.675c.862,0,1.459-.365,1.459-1.044,0-.8-.746-1.078-1.427-1.078h-1.707Z" transform="translate(-283.483 -359.428)"/>
            <path id="Path_21411" data-name="Path 21411" d="M860.6,1073.26a4.12,4.12,0,0,1-3.449,1.508,4.035,4.035,0,0,1-3.017-1.127,3.879,3.879,0,0,1-1.1-2.785,3.388,3.388,0,0,1,1.178-2.636A4.033,4.033,0,0,1,857,1067.16a3.676,3.676,0,0,1,2.769,1.044,3.424,3.424,0,0,1,1.01,2.471,2.586,2.586,0,0,1-.049.563H854.5a2.318,2.318,0,0,0,.8,1.592,2.767,2.767,0,0,0,1.873.646,3.122,3.122,0,0,0,2.437-1.011Zm-1.393-3.15a2.05,2.05,0,0,0-2.139-1.657,2.386,2.386,0,0,0-2.47,1.657Z" transform="translate(-287.237 -359.336)"/>
            <path id="Path_21412" data-name="Path 21412" d="M867.931,1074.679v-5.952h-2.188v-1.293h5.869v1.293h-2.188v5.952Z" transform="translate(-291.513 -359.428)"/>
            <path id="Path_21413" data-name="Path 21413" d="M876.687,1073.641a3.7,3.7,0,0,1-1.094-2.669,3.826,3.826,0,0,1,4.078-3.812,4.168,4.168,0,0,1,2.851,1.061l-.845,1.028a3.025,3.025,0,0,0-2.006-.8,2.384,2.384,0,0,0-2.486,2.52,2.436,2.436,0,0,0,.73,1.824,2.656,2.656,0,0,0,1.839.679,3.136,3.136,0,0,0,2.056-.762l.8.978a4.117,4.117,0,0,1-2.918,1.077,4,4,0,0,1-3-1.127" transform="translate(-294.83 -359.336)"/>
            <path id="Path_21414" data-name="Path 21414" d="M888.567,1074.679v-7.245h1.492v3.266l3.066-3.266h1.707l-3.149,3.25,3.747,3.995h-1.89l-3.481-3.73v3.73Z" transform="translate(-299.199 -359.428)"/>
            <path id="Path_21415" data-name="Path 21415" d="M905.366,1070.094l-4.973,4.675v-7.427h1.491v4.426l4.973-4.609v7.427h-1.491Z" transform="translate(-303.181 -359.335)"/>
            <path id="Path_21416" data-name="Path 21416" d="M918.616,1068.427l-4.973,4.675v-7.427h1.491v4.426l4.973-4.608v7.427h-1.491Zm.994-6.217c0,1.342-.944,2.2-2.552,2.2-1.675,0-2.6-.862-2.6-2.2h1.408c0,.647.465,1.011,1.177,1.011s1.177-.348,1.177-1.011Z" transform="translate(-307.643 -357.669)"/>
            <path id="Path_21417" data-name="Path 21417" d="M810.738,1091.658a6.967,6.967,0,0,1,2.751-.5c1.79,0,2.934.779,2.934,2.221v5.205H815v-.531a4.038,4.038,0,0,1-2.471.713c-1.642,0-2.785-.862-2.785-2.337,0-1.41,1.21-2.338,3.068-2.338a4.37,4.37,0,0,1,2.188.513v-.4c0-1.177-.365-1.823-1.775-1.823a5.982,5.982,0,0,0-2.221.415Zm2.2,5.885c1.127,0,2.073-.43,2.073-1.16,0-.68-.8-1.161-1.941-1.161-1.044,0-1.74.415-1.74,1.161,0,.779.53,1.16,1.608,1.16" transform="translate(-272.657 -367.417)"/>
            <path id="Path_21418" data-name="Path 21418" d="M824.107,1098.679v-5.952h-2.188v-1.293h5.869v1.293H825.6v5.952Z" transform="translate(-276.757 -367.509)"/>
            <path id="Path_21419" data-name="Path 21419" d="M832.862,1092.3a4,4,0,0,1,3-1.144,4.112,4.112,0,0,1,2.95,1.077,3.881,3.881,0,0,1,0,5.5,4.255,4.255,0,0,1-2.95,1.028,3.991,3.991,0,0,1-3-1.11,3.823,3.823,0,0,1,0-5.354m3,5.172a2.511,2.511,0,1,0-2.5-2.5,2.358,2.358,0,0,0,2.5,2.5" transform="translate(-280.074 -367.417)"/>
            <path id="Path_21420" data-name="Path 21420" d="M850.963,1098.768l-2.668-4.26-1.161,4.078h-1.542l2.222-7.427,3.149,5.122,3.134-5.122,2.171,7.427h-1.492l-1.159-4.1Z" transform="translate(-284.728 -367.417)"/>
            <path id="Path_21421" data-name="Path 21421" d="M865.509,1095.479v3.2h-1.491v-7.245h1.491v2.753h3.912v-2.753h1.492v7.245h-1.492v-3.2Z" transform="translate(-290.933 -367.509)"/>
            <path id="Path_21422" data-name="Path 21422" d="M879.409,1091.434v2.586h1.939a2.9,2.9,0,0,1,2.089.68,2.126,2.126,0,0,1,.7,1.575,2.435,2.435,0,0,1-.531,1.525,2.958,2.958,0,0,1-2.437.879h-3.249v-7.245Zm0,6.018h1.741c1.061,0,1.408-.547,1.408-1.161a.846.846,0,0,0-.3-.679,1.486,1.486,0,0,0-1.11-.365h-1.741Zm6.149-6.018h1.492v7.245h-1.492Z" transform="translate(-295.613 -367.509)"/>
            <path id="Path_21423" data-name="Path 21423" d="M900.165,1092.427l-4.973,4.675v-7.427h1.492v4.426l4.973-4.608v7.427h-1.492Zm.995-6.217c0,1.343-.945,2.2-2.554,2.2-1.673,0-2.6-.862-2.6-2.2h1.409c0,.647.464,1.011,1.176,1.011s1.177-.348,1.177-1.011Z" transform="translate(-301.43 -365.75)"/>
            <path id="Path_21424" data-name="Path 21424" d="M816.114,1122.679v-5.952h-3.829v5.952h-1.491v-7.245h6.813v7.245Z" transform="translate(-273.011 -375.59)"/>
            <path id="Path_21425" data-name="Path 21425" d="M826.059,1126.117h-1.492v-10.776h1.492v1.11a3.324,3.324,0,0,1,2.652-1.293,3.883,3.883,0,0,1,2.885,6.5,3.528,3.528,0,0,1-2.751,1.11,3.6,3.6,0,0,1-2.785-1.293Zm.68-5.371a2.509,2.509,0,0,0,1.857.73,2.31,2.31,0,0,0,2.42-2.5,2.686,2.686,0,0,0-.646-1.723,2.226,2.226,0,0,0-1.856-.8,2.532,2.532,0,0,0-1.774,4.294" transform="translate(-277.649 -375.498)"/>
            <path id="Path_21426" data-name="Path 21426" d="M839.787,1116.3a4,4,0,0,1,3-1.144,4.117,4.117,0,0,1,2.951,1.077,3.881,3.881,0,0,1,0,5.5,4.261,4.261,0,0,1-2.951,1.028,3.991,3.991,0,0,1-3-1.11,3.82,3.82,0,0,1,0-5.355m3,5.172a2.511,2.511,0,1,0-2.5-2.5,2.358,2.358,0,0,0,2.5,2.5" transform="translate(-282.405 -375.498)"/>
            <path id="Path_21427" data-name="Path 21427" d="M860.6,1121.26a4.12,4.12,0,0,1-3.449,1.508,4.036,4.036,0,0,1-3.017-1.127,3.88,3.88,0,0,1-1.1-2.785,3.389,3.389,0,0,1,1.178-2.636A4.034,4.034,0,0,1,857,1115.16a3.677,3.677,0,0,1,2.769,1.044,3.424,3.424,0,0,1,1.01,2.471,2.587,2.587,0,0,1-.049.563H854.5a2.318,2.318,0,0,0,.8,1.592,2.767,2.767,0,0,0,1.873.646,3.121,3.121,0,0,0,2.437-1.011Zm-1.393-3.15a2.05,2.05,0,0,0-2.139-1.657,2.386,2.386,0,0,0-2.47,1.657Z" transform="translate(-287.237 -375.498)"/>
            <path id="Path_21428" data-name="Path 21428" d="M867.493,1122.679v-7.245h1.491v3.266l3.068-3.266h1.707l-3.151,3.25,3.748,3.995h-1.89l-3.482-3.73v3.73Z" transform="translate(-292.103 -375.59)"/>
            <path id="Path_21429" data-name="Path 21429" d="M880.354,1122.679v-5.952h-2.188v-1.293h5.869v1.293h-2.188v5.952Z" transform="translate(-295.697 -375.59)"/>
            <path id="Path_21430" data-name="Path 21430" d="M146.811,1100.313l1.319,11.056-11.131.29.661-.764,9.067-.245-10.159-8.785.489-.567,10.159,8.786-1.066-9.007Z" transform="translate(-45.985 -370.499)"/>
            <path id="Path_21431" data-name="Path 21431" d="M779.309,1107.019l-1.319,11.056,11.131.29-.661-.764-9.067-.245,10.159-8.785-.489-.566-10.159,8.786,1.066-9.007Z" transform="translate(-261.965 -372.757)"/>
          </g>
        </g>
      </g>
    </g>
    <g id="Group_522" data-name="Group 522" transform="translate(97.94 937.509)">
      <g id="Group_521" data-name="Group 521" transform="translate(0)" clip-path="url(#clip-path-9)">
        <path id="Path_21432" data-name="Path 21432" d="M258.7,0,0,105.722,253.14,222.356,495.386,109.63Z" transform="translate(0 0)" fill="#299eff"/>
        <path id="Path_21433" data-name="Path 21433" d="M0,168.12,253.117,285.143l242.269-113.43V163.3L253.141,276.028,0,159.393Z" transform="translate(0 -53.671)" fill="#008ae8"/>
        <path id="Path_21434" data-name="Path 21434" d="M374.35,135.243l-22.528,9.206-3.948,113.127,22.4,10.321,5.566-2.591,4.222-127.427Z" transform="translate(-117.136 -45.539)" fill="#bcc2ce"/>
        <path id="Path_21435" data-name="Path 21435" d="M347.558,328.67l22.59,10.444,5.589-2.617v-9.089L370.17,330l-22.4-10.32Z" transform="translate(-117.03 -107.642)" fill="#a5aab7"/>
        <g id="Group_520" data-name="Group 520">
          <g id="Group_519" data-name="Group 519" clip-path="url(#clip-path-9)">
            <g id="Group_518" data-name="Group 518" transform="translate(99.865 86.464)" opacity="0.72">
              <g id="Group_517" data-name="Group 517">
                <g id="Group_516" data-name="Group 516" clip-path="url(#clip-path-11)">
                  <rect id="Rectangle_2473" data-name="Rectangle 2473" width="22.843" height="6.449" transform="translate(0 30.69)" fill="#fff"/>
                  <path id="Path_21436" data-name="Path 21436" d="M198.708,134.009a27.751,27.751,0,0,1,13.908-3.651,16.648,16.648,0,0,1,10.645,3.419,10.6,10.6,0,0,1,4.273,8.7,12.359,12.359,0,0,1-8,11.421v.233c7.148,1.554,11.033,6.993,11.033,12.975,0,5.44-1.865,9.635-5.595,12.665s-8.624,4.506-14.684,4.506a30.18,30.18,0,0,1-11.111-2.253v-6.683a27.057,27.057,0,0,0,11.111,2.72c7.847,0,12.665-3.807,12.665-10.411,0-5.827-4.274-10.179-12.976-10.1h-2.641v-6.216h2.253c6.915,0,10.334-2.564,10.334-7.77,0-3.962-3.185-6.993-8.7-6.993a23.4,23.4,0,0,0-9.945,2.8Z" transform="translate(-166.774 -130.358)" fill="#fff"/>
                </g>
              </g>
            </g>
          </g>
        </g>
      </g>
    </g>
    <g id="Group_529" data-name="Group 529" transform="translate(97.94 816.792)">
      <g id="Group_528" data-name="Group 528" transform="translate(0 0)" clip-path="url(#clip-path-12)">
        <path id="Path_21437" data-name="Path 21437" d="M382.652,221.535,624.233,108.93,389.443.454Z" transform="translate(-128.847 -0.153)" fill="#e3007a"/>
        <path id="Path_21438" data-name="Path 21438" d="M382.567,276.6l-.168,9.285L624.148,172.424V164Z" transform="translate(-128.762 -55.222)" fill="#c90575"/>
        <path id="Path_21439" data-name="Path 21439" d="M259.543,0,0,105.67,253.805,221.383Z" transform="translate(0 0)" fill="#299eff"/>
        <path id="Path_21440" data-name="Path 21440" d="M0,168.049,253.637,284.312l.168-9.285L0,159.315Z" transform="translate(0 -53.645)" fill="#008ae8"/>
        <g id="Group_527" data-name="Group 527">
          <g id="Group_526" data-name="Group 526" clip-path="url(#clip-path-12)">
            <g id="Group_525" data-name="Group 525" transform="translate(99.866 83.132)" opacity="0.72">
              <g id="Group_524" data-name="Group 524">
                <g id="Group_523" data-name="Group 523" clip-path="url(#clip-path-14)">
                  <rect id="Rectangle_2477" data-name="Rectangle 2477" width="22.843" height="6.449" transform="translate(0 30.69)" fill="#fff"/>
                  <path id="Path_21441" data-name="Path 21441" d="M227.82,171.954l-3.108,6.216H193.788l8.159-9.79,6.838-8c1.631-1.786,3.263-3.807,4.972-5.983a51.491,51.491,0,0,0,3.73-5.205,17.8,17.8,0,0,0,2.719-8.469c0-5.205-2.875-9.168-8.08-9.168a18,18,0,0,0-10.179,3.574l-2.952-5.206a22.693,22.693,0,0,1,13.752-4.584c4.817,0,8.546,1.4,11.11,4.2a13.551,13.551,0,0,1,3.963,9.79c0,4.429-1.632,9.169-4.973,14.219a149.616,149.616,0,0,1-15.306,18.415Z" transform="translate(-165.118 -125.335)" fill="#fff"/>
                </g>
              </g>
            </g>
          </g>
        </g>
        <path id="Path_21442" data-name="Path 21442" d="M370.981,159,352.3,147.868l-3.62,113.3,22.536,10,5.849-1.829,2.4-114.319Z" transform="translate(-117.406 -49.79)" fill="#bcc2ce"/>
        <path id="Path_21443" data-name="Path 21443" d="M348.289,327.471l22.624,10.372,5.964-2.729v-9.227l-5.8,2.672L348.5,318.293Z" transform="translate(-117.276 -107.176)" fill="#a5aab7"/>
      </g>
    </g>
    <g id="Group_544" data-name="Group 544" transform="translate(97.94 695.412)">
      <g id="Group_543" data-name="Group 543" transform="translate(0)" clip-path="url(#clip-path-15)">
        <path id="Path_21444" data-name="Path 21444" d="M382.4,222.418,624.148,109.789,388.4.361Z" transform="translate(-128.762 -0.122)" fill="#299eff"/>
        <path id="Path_21445" data-name="Path 21445" d="M382.392,277.97l-.017,9.157L624.14,173.766v-8.425Z" transform="translate(-128.754 -55.674)" fill="#008ae8"/>
        <g id="Group_537" data-name="Group 537">
          <g id="Group_536" data-name="Group 536" clip-path="url(#clip-path-15)">
            <g id="Group_532" data-name="Group 532" opacity="0.49" style="isolation: isolate">
              <g id="Group_531" data-name="Group 531">
                <g id="Group_530" data-name="Group 530" clip-path="url(#clip-path-17)">
                  <path id="Path_21446" data-name="Path 21446" d="M0,105.728,259.478,0l-5.84,222.3Z" transform="translate(0 0)" fill="#e5e5e5"/>
                </g>
              </g>
            </g>
            <g id="Group_535" data-name="Group 535" transform="translate(0 105.766)" opacity="0.49" style="isolation: isolate">
              <g id="Group_534" data-name="Group 534">
                <g id="Group_533" data-name="Group 533" clip-path="url(#clip-path-18)">
                  <path id="Path_21447" data-name="Path 21447" d="M0,159.459l205.885,94.592,47.753,21.939-.017,9.157L0,168.192Z" transform="translate(0 -159.459)" fill="#d1d1d1"/>
                </g>
              </g>
            </g>
          </g>
        </g>
        <path id="Path_21448" data-name="Path 21448" d="M374.705,134.762l-22.528,9.206-3.622,113.4L371,267.674l5.938-2.231L380.421,137.4Z" transform="translate(-117.366 -45.377)" fill="#bcc2ce"/>
        <path id="Path_21449" data-name="Path 21449" d="M348.237,328.7l22.643,10.366,5.949-2.767v-9.226l-5.932,2.836L348.451,319.6Z" transform="translate(-117.259 -107.617)" fill="#a5aab7"/>
        <g id="Group_542" data-name="Group 542">
          <g id="Group_541" data-name="Group 541" clip-path="url(#clip-path-15)">
            <g id="Group_540" data-name="Group 540" transform="translate(99.866 84.408)" opacity="0.55">
              <g id="Group_539" data-name="Group 539">
                <g id="Group_538" data-name="Group 538" clip-path="url(#clip-path-20)">
                  <rect id="Rectangle_2484" data-name="Rectangle 2484" width="22.843" height="6.449" transform="translate(0 29.603)" fill="#ccd2e2"/>
                  <path id="Path_21450" data-name="Path 21450" d="M202.459,145.051v-7.925l9.945-9.868h4.35V179h-7.149V138.292Z" transform="translate(-168.038 -127.258)" fill="#ccd2e2"/>
                </g>
              </g>
            </g>
          </g>
        </g>
      </g>
    </g>
    <g id="Group_545" data-name="Group 545" transform="translate(97.94 574.032)">
      <path id="Path_21451" data-name="Path 21451" d="M259.477,0,0,105.9,253.576,222.235Z" transform="translate(0 0)" fill="#299eff"/>
      <path id="Path_21452" data-name="Path 21452" d="M388.242,0l-5.834,222.4L624.151,109.63Z" transform="translate(-128.765 0)" fill="#e3007a"/>
      <path id="Path_21453" data-name="Path 21453" d="M0,168.339l253.576,117.02v-9.247L205.885,254.2,0,159.606Z" transform="translate(0 -53.742)" fill="#008ae8"/>
      <path id="Path_21454" data-name="Path 21454" d="M382.306,278.092v9.247l241.81-113.427v-8.426Z" transform="translate(-128.73 -55.723)" fill="#c90575"/>
      <path id="Path_21455" data-name="Path 21455" d="M189.654,145.789v-7.925L199.6,128h4.35v51.746H196.8V139.029Z" transform="translate(-63.86 -43.098)" fill="#fff"/>
      <path id="Path_21456" data-name="Path 21456" d="M371.1,160.177l-19.122-11.262-3.621,113.3,22.507,10.542,5.879-2.721,3.106-114.035Z" transform="translate(-117.297 -50.143)" fill="#bcc2ce"/>
      <path id="Path_21457" data-name="Path 21457" d="M348.035,328.754l22.687,10.535,5.9-2.767v-9.228l-5.9,2.748L348.248,319.7Z" transform="translate(-117.19 -107.65)" fill="#a5aab7"/>
    </g>
    <g id="Group_557" data-name="Group 557" transform="translate(97.94 452.652)">
      <g id="Group_556" data-name="Group 556" transform="translate(0 0)" clip-path="url(#clip-path-21)">
        <g id="Group_553" data-name="Group 553">
          <g id="Group_552" data-name="Group 552" clip-path="url(#clip-path-21)">
            <g id="Group_548" data-name="Group 548" opacity="0.49" style="isolation: isolate">
              <g id="Group_547" data-name="Group 547">
                <g id="Group_546" data-name="Group 546" clip-path="url(#clip-path-23)">
                  <path id="Path_21458" data-name="Path 21458" d="M495.386,109.294,374.143,53.1,256.6,108.3,259.478,0,0,105.393,253.575,222.236l.8-29.963-.5,29.537Z" transform="translate(0 0)" fill="#e5e5e5"/>
                </g>
              </g>
            </g>
            <g id="Group_551" data-name="Group 551" transform="translate(0 105.393)" opacity="0.49" style="isolation: isolate">
              <g id="Group_550" data-name="Group 550">
                <g id="Group_549" data-name="Group 549" clip-path="url(#clip-path-24)">
                  <path id="Path_21459" data-name="Path 21459" d="M253.575,275.4l-47.69-21.915L0,158.9v8.733L253.575,284.65,495.386,171.223V162.8Z" transform="translate(0 -158.897)" fill="#d1d1d1"/>
                </g>
              </g>
            </g>
          </g>
        </g>
        <path id="Path_21460" data-name="Path 21460" d="M370.849,159.824l-18.476-11.239-3.621,113.3,22.483,10.394,5.9-2.224,3.114-114.635Z" transform="translate(-117.432 -50.032)" fill="#bcc2ce"/>
        <path id="Path_21461" data-name="Path 21461" d="M348.438,328.419l22.686,10.535,5.9-2.767v-9.228l-5.9,2.748L348.65,319.367Z" transform="translate(-117.326 -107.537)" fill="#a5aab7"/>
        <g id="Group_555" data-name="Group 555">
          <g id="Group_554" data-name="Group 554" clip-path="url(#clip-path-21)">
            <path id="Path_21462" data-name="Path 21462" d="M212.186,174.608l-3.108,6.216H178.155l8.158-9.79,6.838-8c1.632-1.787,3.263-3.807,4.973-5.983a51.709,51.709,0,0,0,3.73-5.205,17.815,17.815,0,0,0,2.719-8.469c0-5.205-2.875-9.169-8.081-9.169a18,18,0,0,0-10.179,3.574l-2.952-5.206a22.7,22.7,0,0,1,13.752-4.584c4.818,0,8.546,1.4,11.111,4.2a13.549,13.549,0,0,1,3.962,9.79c0,4.429-1.631,9.168-4.972,14.218a149.622,149.622,0,0,1-15.306,18.415Z" transform="translate(-59.988 -43.097)" fill="#ccd2e2"/>
          </g>
        </g>
      </g>
    </g>
    <g id="Group_572" data-name="Group 572" transform="translate(97.94 331.935)">
      <g id="Group_571" data-name="Group 571" transform="translate(0)" clip-path="url(#clip-path-26)">
        <path id="Path_21463" data-name="Path 21463" d="M259.477,0,0,105.185,253.576,222.236Z" transform="translate(0 0)" fill="#299eff"/>
        <g id="Group_565" data-name="Group 565">
          <g id="Group_564" data-name="Group 564" clip-path="url(#clip-path-26)">
            <g id="Group_560" data-name="Group 560" transform="translate(253.575)" opacity="0.49" style="isolation: isolate">
              <g id="Group_559" data-name="Group 559">
                <g id="Group_558" data-name="Group 558" clip-path="url(#clip-path-28)">
                  <path id="Path_21464" data-name="Path 21464" d="M388.208,0l-5.9,222.236L624.116,109.159Z" transform="translate(-382.305 0)" fill="#e5e5e5"/>
                </g>
              </g>
            </g>
            <g id="Group_563" data-name="Group 563" transform="translate(121.431 86.953)" opacity="0.72">
              <g id="Group_562" data-name="Group 562">
                <g id="Group_561" data-name="Group 561" clip-path="url(#clip-path-29)">
                  <path id="Path_21465" data-name="Path 21465" d="M183.076,134.746a27.746,27.746,0,0,1,13.908-3.651,16.647,16.647,0,0,1,10.644,3.419,10.6,10.6,0,0,1,4.274,8.7,12.357,12.357,0,0,1-8,11.421v.233c7.148,1.554,11.033,6.993,11.033,12.975,0,5.44-1.864,9.635-5.593,12.665s-8.625,4.506-14.686,4.506a30.168,30.168,0,0,1-11.11-2.253v-6.683a27.046,27.046,0,0,0,11.11,2.72c7.848,0,12.665-3.807,12.665-10.412,0-5.827-4.273-10.179-12.976-10.1H191.7v-6.216h2.252c6.915,0,10.335-2.564,10.335-7.77,0-3.962-3.186-6.993-8.7-6.993a23.4,23.4,0,0,0-9.945,2.8Z" transform="translate(-183.076 -131.095)" fill="#fff"/>
                </g>
              </g>
            </g>
          </g>
        </g>
        <path id="Path_21466" data-name="Path 21466" d="M0,167.316l253.576,117.02v-9.247l-47.691-21.914L0,158.583Z" transform="translate(0 -53.398)" fill="#008ae8"/>
        <g id="Group_570" data-name="Group 570">
          <g id="Group_569" data-name="Group 569" clip-path="url(#clip-path-26)">
            <g id="Group_568" data-name="Group 568" transform="translate(253.575 109.159)" opacity="0.49" style="isolation: isolate">
              <g id="Group_567" data-name="Group 567">
                <g id="Group_566" data-name="Group 566" clip-path="url(#clip-path-31)">
                  <path id="Path_21467" data-name="Path 21467" d="M624.116,164.575,382.305,277.651v8.7L624.116,172.927Z" transform="translate(-382.305 -164.575)" fill="#d1d1d1"/>
                </g>
              </g>
            </g>
          </g>
        </g>
        <path id="Path_21468" data-name="Path 21468" d="M374.77,134.573l-22.528,9.206-3.621,113.3L371.1,267.478l5.9-2.224,3.479-128.045Z" transform="translate(-117.388 -45.314)" fill="#bcc2ce"/>
        <path id="Path_21469" data-name="Path 21469" d="M348.22,327.787l22.686,10.535,5.9-2.767v-9.228l-5.9,2.748-22.474-10.341Z" transform="translate(-117.253 -107.325)" fill="#a5aab7"/>
      </g>
    </g>
    <g id="Group_573" data-name="Group 573" transform="translate(97.94 210.555)">
      <path id="Path_21470" data-name="Path 21470" d="M259.477,0,0,105.313,253.576,222.064l241.81-116.751Z" transform="translate(0 0)" fill="#fdc30a"/>
      <path id="Path_21471" data-name="Path 21471" d="M214.442,157.57l-1.71,6.216h-3.884v8.391H201.7v-8.391H178.624v-4.273l25.8-39.082h4.429v37.14Zm-12.742,0V135.193L187.014,157.57Z" transform="translate(-60.146 -40.551)" fill="#fff"/>
      <path id="Path_21472" data-name="Path 21472" d="M376.8,0l-22.5,9.153-5.879,202.492L370.9,222.039l5.9-2.225L382.538,2.67Z" transform="translate(-117.319 0)" fill="#bcc2ce"/>
      <path id="Path_21473" data-name="Path 21473" d="M253.542,275.363v-.033l-47.658-21.962L0,158.776v8.733L253.575,284.53,495.386,171.1V158.776Z" transform="translate(0 -53.463)" fill="#f2b200"/>
      <path id="Path_21474" data-name="Path 21474" d="M348.147,327.985l22.686,10.535,5.9-2.767v-9.338l-5.9,2.858-22.474-10.341Z" transform="translate(-117.228 -107.391)" fill="#a5aab7"/>
    </g>
  </g>
</svg>
